<svg width="1200" height="800" viewBox="0 0 1200 800" fill="none" xmlns="http://www.w3.org/2000/svg">
<mask id="mask0_1_7" style="mask-type:luminance" maskUnits="userSpaceOnUse" x="0" y="0" width="1200" height="800">
<path d="M1200 0H0V800H1200V0Z" fill="white"/>
</mask>
<g mask="url(#mask0_1_7)">
<path d="M602.5 -19.822H597.5H-27.25V397.429V402.571V819.822H597.5H602.5H1227.25V402.571V397.429V-19.822H602.5ZM669.916 788.016L687.192 814.822H657.527L669.916 788.016ZM672.401 782.64L692.805 738.492L786.302 774.652L743.11 814.821H693.142L672.401 782.64ZM788.797 779.161L791.258 814.822H750.453L788.797 779.161ZM793.695 777.512L890.164 814.822H796.27L793.695 777.512ZM694.906 733.943L770.86 569.599L923.524 814.821H904.027L694.906 733.943ZM542.473 814.822H512.808L530.084 788.016L542.473 814.822ZM506.858 814.822H456.89L413.698 774.653L507.195 738.493L527.6 782.64L506.858 814.822ZM411.204 779.161L449.548 814.822H408.742L411.204 779.161ZM403.73 814.822H309.836L406.305 777.512L403.73 814.822ZM295.973 814.822H276.476L429.14 569.599L505.094 733.943L295.973 814.822ZM530.084 11.984L512.808 -14.822H542.473L530.084 11.984ZM527.6 17.36L507.196 61.508L413.7 25.348L456.891 -14.822H506.859L527.6 17.36ZM411.204 20.84L408.742 -14.822H449.548L411.204 20.84ZM406.306 22.488L309.837 -14.822H403.731L406.306 22.488ZM505.094 66.057L429.14 230.4L276.476 -14.822H295.973L505.094 66.057ZM657.527 -14.822H687.192L669.916 11.984L657.527 -14.822ZM693.141 -14.822H743.109L786.3 25.348L692.804 61.508L672.401 17.36L693.141 -14.822ZM788.797 20.84L750.453 -14.822H791.259L788.797 20.84ZM796.27 -14.822H890.164L793.695 22.488L796.27 -14.822ZM904.027 -14.822H923.524L770.86 230.4L694.906 66.057L904.027 -14.822ZM1222.25 248.03L1149.18 252.799L1190.52 150.153L1222.25 163.354L1222.25 248.03ZM1145.28 249.107L1079.02 103.768L1185.9 148.232L1145.28 249.107ZM1072.24 100.947L1141.69 253.288L982.086 263.705L1042.22 88.461L1072.24 100.947ZM995.892 726.629L903.662 639.633L931.484 404.246L1023.03 671.022L995.892 726.629ZM739.939 624.586L712.073 501.848L829.052 431.769L739.939 624.586ZM370.948 431.769L487.927 501.848L460.062 624.587L370.948 431.769ZM176.966 671.021L268.516 404.245L296.338 639.632L204.108 726.628L176.966 671.021ZM204.108 73.37L296.338 160.367L268.516 395.754L176.966 128.978L204.108 73.37ZM460.062 175.413L487.927 298.152L370.948 368.231L460.062 175.413ZM829.051 368.23L712.072 298.151L739.938 175.413L829.051 368.23ZM1023.03 128.979L931.484 395.755L903.662 160.368L995.892 73.371L1023.03 128.979ZM936.195 402.571H1009.18L979.768 529.544L936.195 402.571ZM745.346 476.087L714.004 402.571H868.062L745.346 476.087ZM868.063 397.429H714.004L745.346 323.913L868.063 397.429ZM936.195 397.429L979.768 270.456L1009.18 397.429H936.195ZM981.197 266.296L981.338 265.884L981.362 266.258L981.197 266.296ZM899.132 164.64L926.646 397.429H877.791L836.668 372.794L788.636 268.865L899.132 164.64ZM741.016 321.319L708.569 397.429H637.595L632.812 256.496L741.016 321.319ZM627.705 253.437L632.592 397.429H602.5V238.338L627.705 253.437ZM597.5 397.429H567.408L572.295 253.438L597.5 238.338V397.429ZM331.938 402.571H485.996L454.655 476.087L331.938 402.571ZM220.231 529.543L190.82 402.571H263.804L220.231 529.543ZM263.804 397.429H190.82L220.231 270.456L263.804 397.429ZM454.654 323.913L485.996 397.429H331.938L454.654 323.913ZM562.405 397.429H491.431L458.984 321.319L567.188 256.497L562.405 397.429ZM363.331 372.794L322.209 397.429H273.354L300.869 164.64L411.364 268.865L363.331 372.794ZM218.803 266.296L218.637 266.257L218.661 265.883L218.803 266.296ZM185.688 397.429H171.908L104.434 261.309L215.538 268.56L185.688 397.429ZM166.327 397.429H53.268L123.332 310.692L166.327 397.429ZM166.327 402.571L123.332 489.308L53.268 402.571H166.327ZM171.908 402.571H185.688L215.538 531.44L104.434 538.691L171.908 402.571ZM218.803 533.704L218.661 534.117L218.637 533.743L218.803 533.704ZM300.868 635.359L273.353 402.57H322.208L363.33 427.205L411.362 531.134L300.868 635.359ZM458.984 478.681L491.431 402.571H562.405L567.188 543.503L458.984 478.681ZM572.295 546.562L567.408 402.571H597.5V561.662L572.295 546.562ZM602.5 402.571H632.592L627.705 546.563L602.5 561.663V402.571ZM637.595 402.571H708.569L741.016 478.681L632.811 543.503L637.595 402.571ZM836.669 427.206L877.792 402.571H926.647L899.132 635.36L788.637 531.135L836.669 427.206ZM981.197 533.704L981.363 533.743L981.339 534.116L981.197 533.704ZM1014.31 402.571H1028.09L1095.56 538.691L984.461 531.44L1014.31 402.571ZM1033.67 402.571H1146.73L1076.67 489.308L1033.67 402.571ZM1033.67 397.429L1076.67 310.692L1146.73 397.429H1033.67ZM1028.09 397.429H1014.31L984.463 268.56L1095.57 261.309L1028.09 397.429ZM1025.33 122.286L958.41 -14.822H1072.38L1025.33 122.286ZM1077.67 -14.822H1203.75L1048.15 71.185L1077.67 -14.822ZM993.595 68.664L786.425 264.079L773.37 235.83L929.414 -14.822H952.846L993.595 68.664ZM736.5 167.974L707.559 295.448L602.5 232.51V185.599L709.162 108.82L736.5 167.974ZM597.5 232.51L492.44 295.449L463.5 167.974L490.839 108.821L597.5 185.599V232.51ZM426.63 235.831L413.575 264.08L206.405 68.664L247.154 -14.822H270.586L426.63 235.831ZM174.669 122.285L127.618 -14.822H241.59L174.669 122.285ZM151.847 71.185L-3.751 -14.822H122.332L151.847 71.185ZM217.914 263.704L58.312 253.288L127.761 100.948L157.776 88.461L217.914 263.704ZM54.722 249.107L14.097 148.232L120.979 103.768L54.722 249.107ZM9.481 150.152L50.82 252.798L-22.249 248.029V163.352L9.481 150.152ZM-22.25 253.041L98.667 260.933L120.888 305.76L47.69 396.377L-22.25 329.18V253.041ZM47.69 403.623L120.887 494.24L98.666 539.067L-22.251 546.959V470.82L47.69 403.623ZM-22.25 551.97L50.819 547.201L9.481 649.848L-22.25 636.647V551.97ZM54.722 550.893L120.978 696.232L14.097 651.768L54.722 550.893ZM127.76 699.053L58.311 546.713L217.913 536.296L157.775 711.54L127.76 699.053ZM174.669 677.715L241.59 814.822H127.618L174.669 677.715ZM122.332 814.822H-3.751L151.847 728.815L122.332 814.822ZM206.405 731.335L413.575 535.92L426.63 564.169L270.586 814.822H247.154L206.405 731.335ZM463.5 632.026L492.441 504.552L597.5 567.49V614.401L490.839 691.18L463.5 632.026ZM602.5 567.49L707.559 504.552L736.5 632.026L709.162 691.179L602.5 614.401V567.49ZM773.37 564.169L786.425 535.92L993.595 731.335L952.847 814.821H929.415L773.37 564.169ZM1025.33 677.714L1072.38 814.821H958.41L1025.33 677.714ZM1048.15 728.814L1203.75 814.821H1077.67L1048.15 728.814ZM982.086 536.295L1141.69 546.712L1072.24 699.053L1042.22 711.539L982.086 536.295ZM1145.28 550.893L1185.9 651.768L1079.02 696.232L1145.28 550.893ZM1190.52 649.848L1149.18 547.202L1222.25 551.971V636.648L1190.52 649.848ZM1222.25 546.958L1101.33 539.066L1079.11 494.239L1152.31 403.622L1222.25 470.819V546.958ZM1152.31 396.377L1079.11 305.76L1101.33 260.933L1222.25 253.041V329.18L1152.31 396.377ZM1222.25 157.936L1043.85 83.72L1045.73 78.235L1214.09 -14.823H1222.25V157.936ZM652.019 -14.822L707.025 104.197L602.5 179.438V-14.822H652.019ZM597.5 179.438L492.975 104.197L547.981 -14.822H597.5V179.438ZM-14.087 -14.822L154.267 78.236L156.149 83.721L-22.25 157.936V-14.822H-14.087ZM-22.25 336.113L41.569 397.429H-22.25V336.113ZM41.569 402.571L-22.25 463.887V402.571H41.569ZM-22.25 642.063L156.149 716.279L154.267 721.764L-14.087 814.822H-22.25V642.063ZM547.981 814.822L492.975 695.803L597.5 620.562V814.822H547.981ZM602.5 620.562L707.025 695.803L652.019 814.822H602.5V620.562ZM1214.09 814.822L1045.73 721.764L1043.85 716.279L1222.25 642.063V814.821H1214.09V814.822ZM1222.25 463.887L1158.43 402.571H1222.25V463.887ZM1158.43 397.429L1222.25 336.113V397.429H1158.43Z" fill="white"/>
</g>
</svg>
