<svg width="73" height="166" viewBox="0 0 73 166" fill="none" xmlns="http://www.w3.org/2000/svg">
<path d="M72.281 165.766C72.55 165.766 72.766 165.548 72.766 165.279C72.766 165.009 72.549 164.793 72.281 164.793C72.013 164.793 71.794 165.01 71.794 165.279C71.794 165.547 72.013 165.766 72.281 165.766Z" fill="white"/>
<path d="M66.802 165.766C67.072 165.766 67.288 165.548 67.288 165.279C67.288 165.009 67.071 164.793 66.802 164.793C66.534 164.793 66.316 165.01 66.316 165.279C66.315 165.547 66.534 165.766 66.802 165.766Z" fill="white"/>
<path d="M61.323 165.766C61.591 165.766 61.809 165.548 61.809 165.279C61.809 165.009 61.59 164.793 61.323 164.793C61.054 164.793 60.837 165.01 60.837 165.279C60.837 165.547 61.054 165.766 61.323 165.766Z" fill="white"/>
<path d="M55.8449 165.766C56.1139 165.766 56.3309 165.548 56.3309 165.279C56.3309 165.009 56.1129 164.793 55.8449 164.793C55.5759 164.793 55.3589 165.01 55.3589 165.279C55.3579 165.547 55.5759 165.766 55.8449 165.766Z" fill="white"/>
<path d="M50.366 165.766C50.634 165.766 50.851 165.548 50.851 165.279C50.851 165.009 50.633 164.793 50.366 164.793C50.096 164.793 49.88 165.01 49.88 165.279C49.88 165.547 50.097 165.766 50.366 165.766Z" fill="white"/>
<path d="M44.8869 165.766C45.1549 165.766 45.3729 165.548 45.3729 165.28C45.3729 165.009 45.1539 164.793 44.8869 164.793C44.6179 164.793 44.4019 165.01 44.4019 165.28C44.4009 165.548 44.6179 165.766 44.8869 165.766Z" fill="white"/>
<path d="M39.4069 165.766C39.6759 165.766 39.8929 165.548 39.8929 165.28C39.8929 165.009 39.6749 164.793 39.4069 164.793C39.1389 164.793 38.9229 165.01 38.9229 165.28C38.9229 165.548 39.1399 165.766 39.4069 165.766Z" fill="white"/>
<path d="M33.929 165.766C34.197 165.766 34.415 165.548 34.415 165.28C34.415 165.009 34.196 164.793 33.929 164.793C33.659 164.793 33.443 165.01 33.443 165.28C33.442 165.548 33.659 165.766 33.929 165.766Z" fill="white"/>
<path d="M28.45 165.766C28.718 165.766 28.936 165.548 28.936 165.28C28.936 165.009 28.717 164.793 28.45 164.793C28.182 164.793 27.964 165.01 27.964 165.28C27.964 165.548 28.183 165.766 28.45 165.766Z" fill="white"/>
<path d="M22.972 165.766C23.242 165.766 23.458 165.548 23.458 165.28C23.458 165.009 23.241 164.793 22.972 164.793C22.702 164.793 22.486 165.01 22.486 165.28C22.485 165.548 22.702 165.766 22.972 165.766Z" fill="white"/>
<path d="M17.493 165.766C17.761 165.766 17.979 165.548 17.979 165.28C17.979 165.009 17.76 164.793 17.493 164.793C17.223 164.793 17.007 165.01 17.007 165.28C17.007 165.548 17.224 165.766 17.493 165.766Z" fill="white"/>
<path d="M12.015 165.766C12.283 165.766 12.501 165.548 12.501 165.28C12.501 165.009 12.282 164.793 12.015 164.793C11.745 164.793 11.529 165.01 11.529 165.28C11.528 165.548 11.745 165.766 12.015 165.766Z" fill="white"/>
<path d="M6.53602 165.766C6.80402 165.766 7.02002 165.548 7.02002 165.28C7.02002 165.009 6.80302 164.793 6.53602 164.793C6.26602 164.793 6.04902 165.01 6.04902 165.28C6.04902 165.548 6.26702 165.766 6.53602 165.766Z" fill="white"/>
<path d="M1.05697 164.793C0.787969 164.793 0.570969 165.01 0.570969 165.28C0.570969 165.548 0.788969 165.766 1.05697 165.766C1.32397 165.766 1.54297 165.548 1.54297 165.28C1.54297 165.009 1.32297 164.793 1.05697 164.793Z" fill="white"/>
<path d="M72.281 160.286C72.55 160.286 72.766 160.069 72.766 159.801C72.766 159.532 72.549 159.315 72.281 159.315C72.013 159.315 71.794 159.532 71.794 159.801C71.794 160.068 72.013 160.286 72.281 160.286Z" fill="white"/>
<path d="M66.802 160.286C67.072 160.286 67.288 160.069 67.288 159.801C67.288 159.532 67.071 159.315 66.802 159.315C66.534 159.315 66.316 159.532 66.316 159.801C66.315 160.068 66.534 160.286 66.802 160.286Z" fill="white"/>
<path d="M61.323 160.286C61.591 160.286 61.809 160.069 61.809 159.801C61.809 159.532 61.59 159.315 61.323 159.315C61.054 159.315 60.837 159.532 60.837 159.801C60.837 160.068 61.054 160.286 61.323 160.286Z" fill="white"/>
<path d="M55.8449 160.286C56.1139 160.286 56.3309 160.069 56.3309 159.801C56.3309 159.532 56.1129 159.315 55.8449 159.315C55.5759 159.315 55.3589 159.532 55.3589 159.801C55.3579 160.068 55.5759 160.286 55.8449 160.286Z" fill="white"/>
<path d="M50.366 160.286C50.634 160.286 50.851 160.069 50.851 159.801C50.851 159.532 50.633 159.315 50.366 159.315C50.096 159.315 49.88 159.532 49.88 159.801C49.88 160.068 50.097 160.286 50.366 160.286Z" fill="white"/>
<path d="M44.8869 160.286C45.1549 160.286 45.3729 160.069 45.3729 159.801C45.3729 159.532 45.1539 159.315 44.8869 159.315C44.6179 159.315 44.4019 159.532 44.4019 159.801C44.4009 160.068 44.6179 160.286 44.8869 160.286Z" fill="white"/>
<path d="M39.4069 160.286C39.6759 160.286 39.8929 160.069 39.8929 159.801C39.8929 159.532 39.6749 159.315 39.4069 159.315C39.1389 159.315 38.9229 159.532 38.9229 159.801C38.9229 160.068 39.1399 160.286 39.4069 160.286Z" fill="white"/>
<path d="M33.929 160.286C34.197 160.286 34.415 160.069 34.415 159.801C34.415 159.532 34.196 159.315 33.929 159.315C33.659 159.315 33.443 159.532 33.443 159.801C33.442 160.068 33.659 160.286 33.929 160.286Z" fill="white"/>
<path d="M28.45 160.286C28.718 160.286 28.936 160.069 28.936 159.801C28.936 159.532 28.717 159.315 28.45 159.315C28.182 159.315 27.964 159.532 27.964 159.801C27.964 160.068 28.183 160.286 28.45 160.286Z" fill="white"/>
<path d="M22.972 160.286C23.242 160.286 23.458 160.069 23.458 159.801C23.458 159.532 23.241 159.315 22.972 159.315C22.702 159.315 22.486 159.532 22.486 159.801C22.485 160.068 22.702 160.286 22.972 160.286Z" fill="white"/>
<path d="M17.493 160.286C17.761 160.286 17.979 160.069 17.979 159.801C17.979 159.532 17.76 159.315 17.493 159.315C17.223 159.315 17.007 159.532 17.007 159.801C17.007 160.068 17.224 160.286 17.493 160.286Z" fill="white"/>
<path d="M12.015 160.286C12.283 160.286 12.501 160.069 12.501 159.801C12.501 159.532 12.282 159.315 12.015 159.315C11.745 159.315 11.529 159.532 11.529 159.801C11.528 160.068 11.745 160.286 12.015 160.286Z" fill="white"/>
<path d="M6.53602 160.286C6.80402 160.286 7.02002 160.069 7.02002 159.801C7.02002 159.532 6.80302 159.315 6.53602 159.315C6.26602 159.315 6.04902 159.532 6.04902 159.801C6.04902 160.068 6.26702 160.286 6.53602 160.286Z" fill="white"/>
<path d="M1.05697 160.286C1.32397 160.286 1.54297 160.069 1.54297 159.801C1.54297 159.532 1.32297 159.315 1.05697 159.315C0.787969 159.315 0.570969 159.532 0.570969 159.801C0.569969 160.068 0.787969 160.286 1.05697 160.286Z" fill="white"/>
<path d="M72.281 154.808C72.55 154.808 72.766 154.591 72.766 154.322C72.766 154.052 72.549 153.836 72.281 153.836C72.013 153.836 71.794 154.053 71.794 154.322C71.794 154.59 72.013 154.808 72.281 154.808Z" fill="white"/>
<path d="M66.802 154.808C67.072 154.808 67.288 154.591 67.288 154.322C67.288 154.052 67.071 153.836 66.802 153.836C66.534 153.836 66.316 154.053 66.316 154.322C66.315 154.59 66.534 154.808 66.802 154.808Z" fill="white"/>
<path d="M61.323 154.808C61.591 154.808 61.809 154.591 61.809 154.322C61.809 154.052 61.59 153.836 61.323 153.836C61.054 153.836 60.837 154.053 60.837 154.322C60.837 154.59 61.054 154.808 61.323 154.808Z" fill="white"/>
<path d="M55.8449 154.808C56.1139 154.808 56.3309 154.591 56.3309 154.322C56.3309 154.052 56.1129 153.836 55.8449 153.836C55.5759 153.836 55.3589 154.053 55.3589 154.322C55.3579 154.59 55.5759 154.808 55.8449 154.808Z" fill="white"/>
<path d="M50.366 154.808C50.634 154.808 50.851 154.591 50.851 154.322C50.851 154.052 50.633 153.836 50.366 153.836C50.096 153.836 49.88 154.053 49.88 154.322C49.88 154.59 50.097 154.808 50.366 154.808Z" fill="white"/>
<path d="M44.8869 154.808C45.1549 154.808 45.3729 154.591 45.3729 154.323C45.3729 154.052 45.1539 153.836 44.8869 153.836C44.6179 153.836 44.4019 154.053 44.4019 154.323C44.4009 154.59 44.6179 154.808 44.8869 154.808Z" fill="white"/>
<path d="M39.4069 154.808C39.6759 154.808 39.8929 154.591 39.8929 154.323C39.8929 154.052 39.6749 153.836 39.4069 153.836C39.1389 153.836 38.9229 154.053 38.9229 154.323C38.9229 154.59 39.1399 154.808 39.4069 154.808Z" fill="white"/>
<path d="M33.929 154.808C34.197 154.808 34.415 154.591 34.415 154.323C34.415 154.052 34.196 153.836 33.929 153.836C33.659 153.836 33.443 154.053 33.443 154.323C33.442 154.59 33.659 154.808 33.929 154.808Z" fill="white"/>
<path d="M28.45 154.808C28.718 154.808 28.936 154.591 28.936 154.323C28.936 154.052 28.717 153.836 28.45 153.836C28.182 153.836 27.964 154.053 27.964 154.323C27.964 154.59 28.183 154.808 28.45 154.808Z" fill="white"/>
<path d="M22.972 154.808C23.242 154.808 23.458 154.591 23.458 154.323C23.458 154.052 23.241 153.836 22.972 153.836C22.702 153.836 22.486 154.053 22.486 154.323C22.485 154.59 22.702 154.808 22.972 154.808Z" fill="white"/>
<path d="M17.493 154.808C17.761 154.808 17.979 154.591 17.979 154.323C17.979 154.052 17.76 153.836 17.493 153.836C17.223 153.836 17.007 154.053 17.007 154.323C17.007 154.59 17.224 154.808 17.493 154.808Z" fill="white"/>
<path d="M12.015 154.808C12.283 154.808 12.501 154.591 12.501 154.323C12.501 154.052 12.282 153.836 12.015 153.836C11.745 153.836 11.529 154.053 11.529 154.323C11.528 154.59 11.745 154.808 12.015 154.808Z" fill="white"/>
<path d="M6.53602 154.808C6.80402 154.808 7.02002 154.591 7.02002 154.323C7.02002 154.052 6.80302 153.836 6.53602 153.836C6.26602 153.836 6.04902 154.053 6.04902 154.323C6.04902 154.59 6.26702 154.808 6.53602 154.808Z" fill="white"/>
<path d="M1.05697 154.808C1.32397 154.808 1.54297 154.591 1.54297 154.323C1.54297 154.052 1.32297 153.836 1.05697 153.836C0.787969 153.836 0.570969 154.053 0.570969 154.323C0.569969 154.59 0.787969 154.808 1.05697 154.808Z" fill="white"/>
<path d="M72.281 149.328C72.55 149.328 72.766 149.111 72.766 148.842C72.766 148.573 72.549 148.356 72.281 148.356C72.013 148.356 71.794 148.573 71.794 148.842C71.794 149.111 72.013 149.328 72.281 149.328Z" fill="white"/>
<path d="M66.802 149.328C67.072 149.328 67.288 149.111 67.288 148.842C67.288 148.573 67.071 148.356 66.802 148.356C66.534 148.356 66.316 148.573 66.316 148.842C66.315 149.111 66.534 149.328 66.802 149.328Z" fill="white"/>
<path d="M61.323 149.328C61.591 149.328 61.809 149.111 61.809 148.842C61.809 148.573 61.59 148.356 61.323 148.356C61.054 148.356 60.837 148.573 60.837 148.842C60.837 149.111 61.054 149.328 61.323 149.328Z" fill="white"/>
<path d="M55.8449 149.328C56.1139 149.328 56.3309 149.111 56.3309 148.842C56.3309 148.573 56.1129 148.356 55.8449 148.356C55.5759 148.356 55.3589 148.573 55.3589 148.842C55.3579 149.111 55.5759 149.328 55.8449 149.328Z" fill="white"/>
<path d="M50.366 149.328C50.634 149.328 50.851 149.111 50.851 148.842C50.851 148.573 50.633 148.356 50.366 148.356C50.096 148.356 49.88 148.573 49.88 148.842C49.88 149.111 50.097 149.328 50.366 149.328Z" fill="white"/>
<path d="M44.8869 149.328C45.1549 149.328 45.3729 149.111 45.3729 148.843C45.3729 148.573 45.1539 148.356 44.8869 148.356C44.6179 148.356 44.4019 148.573 44.4019 148.843C44.4009 149.111 44.6179 149.328 44.8869 149.328Z" fill="white"/>
<path d="M39.4069 149.328C39.6759 149.328 39.8929 149.111 39.8929 148.843C39.8929 148.573 39.6749 148.356 39.4069 148.356C39.1389 148.356 38.9229 148.573 38.9229 148.843C38.9229 149.111 39.1399 149.328 39.4069 149.328Z" fill="white"/>
<path d="M33.929 149.328C34.197 149.328 34.415 149.111 34.415 148.843C34.415 148.573 34.196 148.356 33.929 148.356C33.659 148.356 33.443 148.573 33.443 148.843C33.442 149.111 33.659 149.328 33.929 149.328Z" fill="white"/>
<path d="M28.45 149.328C28.718 149.328 28.936 149.111 28.936 148.843C28.936 148.573 28.717 148.356 28.45 148.356C28.182 148.356 27.964 148.573 27.964 148.843C27.964 149.111 28.183 149.328 28.45 149.328Z" fill="white"/>
<path d="M22.972 149.328C23.242 149.328 23.458 149.111 23.458 148.843C23.458 148.573 23.241 148.356 22.972 148.356C22.702 148.356 22.486 148.573 22.486 148.843C22.485 149.111 22.702 149.328 22.972 149.328Z" fill="white"/>
<path d="M17.493 149.328C17.761 149.328 17.979 149.111 17.979 148.843C17.979 148.573 17.76 148.356 17.493 148.356C17.223 148.356 17.007 148.573 17.007 148.843C17.007 149.111 17.224 149.328 17.493 149.328Z" fill="white"/>
<path d="M12.015 149.328C12.283 149.328 12.501 149.111 12.501 148.843C12.501 148.573 12.282 148.356 12.015 148.356C11.745 148.356 11.529 148.573 11.529 148.843C11.528 149.111 11.745 149.328 12.015 149.328Z" fill="white"/>
<path d="M6.53602 149.328C6.80402 149.328 7.02002 149.111 7.02002 148.843C7.02002 148.573 6.80302 148.356 6.53602 148.356C6.26602 148.356 6.04902 148.573 6.04902 148.843C6.04902 149.111 6.26702 149.328 6.53602 149.328Z" fill="white"/>
<path d="M1.05697 149.328C1.32397 149.328 1.54297 149.111 1.54297 148.843C1.54297 148.573 1.32297 148.356 1.05697 148.356C0.787969 148.356 0.570969 148.573 0.570969 148.843C0.569969 149.111 0.787969 149.328 1.05697 149.328Z" fill="white"/>
<path d="M72.281 143.85C72.55 143.85 72.766 143.631 72.766 143.363C72.766 143.094 72.549 142.878 72.281 142.878C72.013 142.878 71.794 143.094 71.794 143.363C71.794 143.631 72.013 143.85 72.281 143.85Z" fill="white"/>
<path d="M66.802 143.85C67.072 143.85 67.288 143.631 67.288 143.363C67.288 143.094 67.071 142.878 66.802 142.878C66.534 142.878 66.316 143.094 66.316 143.363C66.315 143.631 66.534 143.85 66.802 143.85Z" fill="white"/>
<path d="M61.323 143.85C61.591 143.85 61.809 143.631 61.809 143.363C61.809 143.094 61.59 142.878 61.323 142.878C61.054 142.878 60.837 143.094 60.837 143.363C60.837 143.631 61.054 143.85 61.323 143.85Z" fill="white"/>
<path d="M55.8449 143.85C56.1139 143.85 56.3309 143.631 56.3309 143.363C56.3309 143.094 56.1129 142.878 55.8449 142.878C55.5759 142.878 55.3589 143.094 55.3589 143.363C55.3579 143.631 55.5759 143.85 55.8449 143.85Z" fill="white"/>
<path d="M50.366 143.85C50.634 143.85 50.851 143.631 50.851 143.363C50.851 143.094 50.633 142.878 50.366 142.878C50.096 142.878 49.88 143.094 49.88 143.363C49.88 143.631 50.097 143.85 50.366 143.85Z" fill="white"/>
<path d="M44.8869 143.85C45.1549 143.85 45.3729 143.633 45.3729 143.365C45.3729 143.094 45.1539 142.879 44.8869 142.879C44.6179 142.879 44.4019 143.094 44.4019 143.365C44.4009 143.633 44.6179 143.85 44.8869 143.85Z" fill="white"/>
<path d="M39.4069 143.85C39.6759 143.85 39.8929 143.633 39.8929 143.365C39.8929 143.094 39.6749 142.879 39.4069 142.879C39.1389 142.879 38.9229 143.094 38.9229 143.365C38.9229 143.633 39.1399 143.85 39.4069 143.85Z" fill="white"/>
<path d="M33.929 143.85C34.197 143.85 34.415 143.633 34.415 143.365C34.415 143.094 34.196 142.879 33.929 142.879C33.659 142.879 33.443 143.094 33.443 143.365C33.442 143.633 33.659 143.85 33.929 143.85Z" fill="white"/>
<path d="M28.45 143.85C28.718 143.85 28.936 143.633 28.936 143.365C28.936 143.094 28.717 142.879 28.45 142.879C28.182 142.879 27.964 143.094 27.964 143.365C27.964 143.633 28.183 143.85 28.45 143.85Z" fill="white"/>
<path d="M22.972 143.85C23.242 143.85 23.458 143.633 23.458 143.365C23.458 143.094 23.241 142.879 22.972 142.879C22.702 142.879 22.486 143.094 22.486 143.365C22.485 143.633 22.702 143.85 22.972 143.85Z" fill="white"/>
<path d="M17.493 143.85C17.761 143.85 17.979 143.633 17.979 143.365C17.979 143.094 17.76 142.879 17.493 142.879C17.223 142.879 17.007 143.094 17.007 143.365C17.007 143.633 17.224 143.85 17.493 143.85Z" fill="white"/>
<path d="M12.015 143.85C12.283 143.85 12.501 143.633 12.501 143.365C12.501 143.094 12.282 142.879 12.015 142.879C11.745 142.879 11.529 143.094 11.529 143.365C11.528 143.633 11.745 143.85 12.015 143.85Z" fill="white"/>
<path d="M6.53602 143.85C6.80402 143.85 7.02002 143.633 7.02002 143.365C7.02002 143.094 6.80302 142.879 6.53602 142.879C6.26602 142.879 6.04902 143.094 6.04902 143.365C6.04902 143.633 6.26702 143.85 6.53602 143.85Z" fill="white"/>
<path d="M1.05697 143.85C1.32397 143.85 1.54297 143.633 1.54297 143.365C1.54297 143.094 1.32297 142.879 1.05697 142.879C0.787969 142.879 0.570969 143.094 0.570969 143.365C0.569969 143.633 0.787969 143.85 1.05697 143.85Z" fill="white"/>
<path d="M72.281 138.371C72.55 138.371 72.766 138.153 72.766 137.885C72.766 137.616 72.549 137.4 72.281 137.4C72.013 137.4 71.794 137.616 71.794 137.885C71.794 138.152 72.013 138.371 72.281 138.371Z" fill="white"/>
<path d="M66.802 138.371C67.072 138.371 67.288 138.153 67.288 137.885C67.288 137.616 67.071 137.4 66.802 137.4C66.534 137.4 66.316 137.616 66.316 137.885C66.315 138.152 66.534 138.371 66.802 138.371Z" fill="white"/>
<path d="M61.323 138.371C61.591 138.371 61.809 138.153 61.809 137.885C61.809 137.616 61.59 137.4 61.323 137.4C61.054 137.4 60.837 137.616 60.837 137.885C60.837 138.152 61.054 138.371 61.323 138.371Z" fill="white"/>
<path d="M55.8449 138.371C56.1139 138.371 56.3309 138.153 56.3309 137.885C56.3309 137.616 56.1129 137.4 55.8449 137.4C55.5759 137.4 55.3589 137.616 55.3589 137.885C55.3579 138.152 55.5759 138.371 55.8449 138.371Z" fill="white"/>
<path d="M50.366 138.371C50.634 138.371 50.851 138.153 50.851 137.885C50.851 137.616 50.633 137.4 50.366 137.4C50.096 137.4 49.88 137.616 49.88 137.885C49.88 138.152 50.097 138.371 50.366 138.371Z" fill="white"/>
<path d="M44.8869 138.371C45.1549 138.371 45.3729 138.153 45.3729 137.885C45.3729 137.616 45.1539 137.4 44.8869 137.4C44.6179 137.4 44.4019 137.616 44.4019 137.885C44.4009 138.153 44.6179 138.371 44.8869 138.371Z" fill="white"/>
<path d="M39.4069 138.371C39.6759 138.371 39.8929 138.153 39.8929 137.885C39.8929 137.616 39.6749 137.4 39.4069 137.4C39.1389 137.4 38.9229 137.616 38.9229 137.885C38.9229 138.153 39.1399 138.371 39.4069 138.371Z" fill="white"/>
<path d="M33.929 138.371C34.197 138.371 34.415 138.153 34.415 137.885C34.415 137.616 34.196 137.4 33.929 137.4C33.659 137.4 33.443 137.616 33.443 137.885C33.442 138.153 33.659 138.371 33.929 138.371Z" fill="white"/>
<path d="M28.45 138.371C28.718 138.371 28.936 138.153 28.936 137.885C28.936 137.616 28.717 137.4 28.45 137.4C28.182 137.4 27.964 137.616 27.964 137.885C27.964 138.153 28.183 138.371 28.45 138.371Z" fill="white"/>
<path d="M22.972 138.371C23.242 138.371 23.458 138.153 23.458 137.885C23.458 137.616 23.241 137.4 22.972 137.4C22.702 137.4 22.486 137.616 22.486 137.885C22.485 138.153 22.702 138.371 22.972 138.371Z" fill="white"/>
<path d="M17.493 138.371C17.761 138.371 17.979 138.153 17.979 137.885C17.979 137.616 17.76 137.4 17.493 137.4C17.223 137.4 17.007 137.616 17.007 137.885C17.007 138.153 17.224 138.371 17.493 138.371Z" fill="white"/>
<path d="M12.015 138.371C12.283 138.371 12.501 138.153 12.501 137.885C12.501 137.616 12.282 137.4 12.015 137.4C11.745 137.4 11.529 137.616 11.529 137.885C11.528 138.153 11.745 138.371 12.015 138.371Z" fill="white"/>
<path d="M6.53602 138.371C6.80402 138.371 7.02002 138.153 7.02002 137.885C7.02002 137.616 6.80302 137.4 6.53602 137.4C6.26602 137.4 6.04902 137.616 6.04902 137.885C6.04902 138.153 6.26702 138.371 6.53602 138.371Z" fill="white"/>
<path d="M1.05697 138.371C1.32397 138.371 1.54297 138.153 1.54297 137.885C1.54297 137.616 1.32297 137.4 1.05697 137.4C0.787969 137.4 0.570969 137.616 0.570969 137.885C0.569969 138.153 0.787969 138.371 1.05697 138.371Z" fill="white"/>
<path d="M72.281 132.892C72.55 132.892 72.766 132.673 72.766 132.405C72.766 132.138 72.549 131.919 72.281 131.919C72.013 131.919 71.794 132.138 71.794 132.405C71.794 132.673 72.013 132.892 72.281 132.892Z" fill="white"/>
<path d="M66.802 132.892C67.072 132.892 67.288 132.673 67.288 132.405C67.288 132.138 67.071 131.919 66.802 131.919C66.534 131.919 66.316 132.138 66.316 132.405C66.315 132.673 66.534 132.892 66.802 132.892Z" fill="white"/>
<path d="M61.323 132.892C61.591 132.892 61.809 132.673 61.809 132.405C61.809 132.138 61.59 131.919 61.323 131.919C61.054 131.919 60.837 132.138 60.837 132.405C60.837 132.673 61.054 132.892 61.323 132.892Z" fill="white"/>
<path d="M55.8449 132.892C56.1139 132.892 56.3309 132.673 56.3309 132.405C56.3309 132.138 56.1129 131.919 55.8449 131.919C55.5759 131.919 55.3589 132.138 55.3589 132.405C55.3579 132.673 55.5759 132.892 55.8449 132.892Z" fill="white"/>
<path d="M50.366 132.892C50.634 132.892 50.851 132.673 50.851 132.405C50.851 132.138 50.633 131.919 50.366 131.919C50.096 131.919 49.88 132.138 49.88 132.405C49.88 132.673 50.097 132.892 50.366 132.892Z" fill="white"/>
<path d="M44.8869 132.892C45.1549 132.892 45.3729 132.674 45.3729 132.407C45.3729 132.138 45.1539 131.922 44.8869 131.922C44.6179 131.922 44.4019 132.139 44.4019 132.407C44.4009 132.674 44.6179 132.892 44.8869 132.892Z" fill="white"/>
<path d="M39.4069 132.892C39.6759 132.892 39.8929 132.674 39.8929 132.407C39.8929 132.138 39.6749 131.922 39.4069 131.922C39.1389 131.922 38.9229 132.139 38.9229 132.407C38.9229 132.674 39.1399 132.892 39.4069 132.892Z" fill="white"/>
<path d="M33.929 132.892C34.197 132.892 34.415 132.674 34.415 132.407C34.415 132.138 34.196 131.922 33.929 131.922C33.659 131.922 33.443 132.139 33.443 132.407C33.442 132.674 33.659 132.892 33.929 132.892Z" fill="white"/>
<path d="M28.45 132.892C28.718 132.892 28.936 132.674 28.936 132.407C28.936 132.138 28.717 131.922 28.45 131.922C28.182 131.922 27.964 132.139 27.964 132.407C27.964 132.674 28.183 132.892 28.45 132.892Z" fill="white"/>
<path d="M22.972 132.892C23.242 132.892 23.458 132.674 23.458 132.407C23.458 132.138 23.241 131.922 22.972 131.922C22.702 131.922 22.486 132.139 22.486 132.407C22.485 132.674 22.702 132.892 22.972 132.892Z" fill="white"/>
<path d="M17.493 132.892C17.761 132.892 17.979 132.674 17.979 132.407C17.979 132.138 17.76 131.922 17.493 131.922C17.223 131.922 17.007 132.139 17.007 132.407C17.007 132.674 17.224 132.892 17.493 132.892Z" fill="white"/>
<path d="M12.015 132.892C12.283 132.892 12.501 132.674 12.501 132.407C12.501 132.138 12.282 131.922 12.015 131.922C11.745 131.922 11.529 132.139 11.529 132.407C11.528 132.674 11.745 132.892 12.015 132.892Z" fill="white"/>
<path d="M6.53602 132.892C6.80402 132.892 7.02002 132.674 7.02002 132.407C7.02002 132.138 6.80302 131.922 6.53602 131.922C6.26602 131.922 6.04902 132.139 6.04902 132.407C6.04902 132.674 6.26702 132.892 6.53602 132.892Z" fill="white"/>
<path d="M1.05697 132.892C1.32397 132.892 1.54297 132.674 1.54297 132.407C1.54297 132.138 1.32297 131.922 1.05697 131.922C0.787969 131.922 0.570969 132.139 0.570969 132.407C0.569969 132.674 0.787969 132.892 1.05697 132.892Z" fill="white"/>
<path d="M72.281 127.413C72.55 127.413 72.766 127.197 72.766 126.928C72.766 126.659 72.549 126.442 72.281 126.442C72.013 126.442 71.794 126.659 71.794 126.928C71.794 127.196 72.013 127.413 72.281 127.413Z" fill="white"/>
<path d="M66.802 127.413C67.072 127.413 67.288 127.197 67.288 126.928C67.288 126.659 67.071 126.442 66.802 126.442C66.534 126.442 66.316 126.659 66.316 126.928C66.315 127.196 66.534 127.413 66.802 127.413Z" fill="white"/>
<path d="M61.323 127.413C61.591 127.413 61.809 127.197 61.809 126.928C61.809 126.659 61.59 126.442 61.323 126.442C61.054 126.442 60.837 126.659 60.837 126.928C60.837 127.196 61.054 127.413 61.323 127.413Z" fill="white"/>
<path d="M55.8449 127.413C56.1139 127.413 56.3309 127.197 56.3309 126.928C56.3309 126.659 56.1129 126.442 55.8449 126.442C55.5759 126.442 55.3589 126.659 55.3589 126.928C55.3579 127.196 55.5759 127.413 55.8449 127.413Z" fill="white"/>
<path d="M50.366 127.413C50.634 127.413 50.851 127.197 50.851 126.928C50.851 126.659 50.633 126.442 50.366 126.442C50.096 126.442 49.88 126.659 49.88 126.928C49.88 127.196 50.097 127.413 50.366 127.413Z" fill="white"/>
<path d="M44.8869 127.413C45.1549 127.413 45.3729 127.197 45.3729 126.928C45.3729 126.66 45.1539 126.443 44.8869 126.443C44.6179 126.443 44.4019 126.66 44.4019 126.928C44.4009 127.197 44.6179 127.413 44.8869 127.413Z" fill="white"/>
<path d="M39.4069 127.413C39.6759 127.413 39.8929 127.197 39.8929 126.928C39.8929 126.66 39.6749 126.443 39.4069 126.443C39.1389 126.443 38.9229 126.66 38.9229 126.928C38.9229 127.197 39.1399 127.413 39.4069 127.413Z" fill="white"/>
<path d="M33.929 127.413C34.197 127.413 34.415 127.197 34.415 126.928C34.415 126.66 34.196 126.443 33.929 126.443C33.659 126.443 33.443 126.66 33.443 126.928C33.442 127.197 33.659 127.413 33.929 127.413Z" fill="white"/>
<path d="M28.45 127.413C28.718 127.413 28.936 127.197 28.936 126.928C28.936 126.66 28.717 126.443 28.45 126.443C28.182 126.443 27.964 126.66 27.964 126.928C27.964 127.197 28.183 127.413 28.45 127.413Z" fill="white"/>
<path d="M22.972 127.413C23.242 127.413 23.458 127.197 23.458 126.928C23.458 126.66 23.241 126.443 22.972 126.443C22.702 126.443 22.486 126.66 22.486 126.928C22.485 127.197 22.702 127.413 22.972 127.413Z" fill="white"/>
<path d="M17.493 127.413C17.761 127.413 17.979 127.197 17.979 126.928C17.979 126.66 17.76 126.443 17.493 126.443C17.223 126.443 17.007 126.66 17.007 126.928C17.007 127.197 17.224 127.413 17.493 127.413Z" fill="white"/>
<path d="M12.015 127.413C12.283 127.413 12.501 127.197 12.501 126.928C12.501 126.66 12.282 126.443 12.015 126.443C11.745 126.443 11.529 126.66 11.529 126.928C11.528 127.197 11.745 127.413 12.015 127.413Z" fill="white"/>
<path d="M6.53602 127.413C6.80402 127.413 7.02002 127.197 7.02002 126.928C7.02002 126.66 6.80302 126.443 6.53602 126.443C6.26602 126.443 6.04902 126.66 6.04902 126.928C6.04902 127.197 6.26702 127.413 6.53602 127.413Z" fill="white"/>
<path d="M1.05697 127.413C1.32397 127.413 1.54297 127.197 1.54297 126.928C1.54297 126.66 1.32297 126.443 1.05697 126.443C0.787969 126.443 0.570969 126.66 0.570969 126.928C0.569969 127.197 0.787969 127.413 1.05697 127.413Z" fill="white"/>
<path d="M72.281 121.935C72.55 121.935 72.766 121.717 72.766 121.448C72.766 121.179 72.549 120.962 72.281 120.962C72.013 120.962 71.794 121.179 71.794 121.448C71.794 121.717 72.013 121.935 72.281 121.935Z" fill="white"/>
<path d="M66.802 121.935C67.072 121.935 67.288 121.717 67.288 121.448C67.288 121.179 67.071 120.962 66.802 120.962C66.534 120.962 66.316 121.179 66.316 121.448C66.315 121.717 66.534 121.935 66.802 121.935Z" fill="white"/>
<path d="M61.323 121.935C61.591 121.935 61.809 121.717 61.809 121.448C61.809 121.179 61.59 120.962 61.323 120.962C61.054 120.962 60.837 121.179 60.837 121.448C60.837 121.717 61.054 121.935 61.323 121.935Z" fill="white"/>
<path d="M55.8449 121.935C56.1139 121.935 56.3309 121.717 56.3309 121.448C56.3309 121.179 56.1129 120.962 55.8449 120.962C55.5759 120.962 55.3589 121.179 55.3589 121.448C55.3579 121.717 55.5759 121.935 55.8449 121.935Z" fill="white"/>
<path d="M50.366 121.935C50.634 121.935 50.851 121.717 50.851 121.448C50.851 121.179 50.633 120.962 50.366 120.962C50.096 120.962 49.88 121.179 49.88 121.448C49.88 121.717 50.097 121.935 50.366 121.935Z" fill="white"/>
<path d="M44.8869 121.936C45.1549 121.936 45.3729 121.717 45.3729 121.448C45.3729 121.181 45.1539 120.962 44.8869 120.962C44.6179 120.962 44.4019 121.181 44.4019 121.448C44.4009 121.717 44.6179 121.936 44.8869 121.936Z" fill="white"/>
<path d="M39.4069 121.936C39.6759 121.936 39.8929 121.717 39.8929 121.448C39.8929 121.181 39.6749 120.962 39.4069 120.962C39.1389 120.962 38.9229 121.181 38.9229 121.448C38.9229 121.717 39.1399 121.936 39.4069 121.936Z" fill="white"/>
<path d="M33.929 121.936C34.197 121.936 34.415 121.717 34.415 121.448C34.415 121.181 34.196 120.962 33.929 120.962C33.659 120.962 33.443 121.181 33.443 121.448C33.442 121.717 33.659 121.936 33.929 121.936Z" fill="white"/>
<path d="M28.45 121.936C28.718 121.936 28.936 121.717 28.936 121.448C28.936 121.181 28.717 120.962 28.45 120.962C28.182 120.962 27.964 121.181 27.964 121.448C27.964 121.717 28.183 121.936 28.45 121.936Z" fill="white"/>
<path d="M22.972 121.936C23.242 121.936 23.458 121.717 23.458 121.448C23.458 121.181 23.241 120.962 22.972 120.962C22.702 120.962 22.486 121.181 22.486 121.448C22.485 121.717 22.702 121.936 22.972 121.936Z" fill="white"/>
<path d="M17.493 121.936C17.761 121.936 17.979 121.717 17.979 121.448C17.979 121.181 17.76 120.962 17.493 120.962C17.223 120.962 17.007 121.181 17.007 121.448C17.007 121.717 17.224 121.936 17.493 121.936Z" fill="white"/>
<path d="M12.015 121.936C12.283 121.936 12.501 121.717 12.501 121.448C12.501 121.181 12.282 120.962 12.015 120.962C11.745 120.962 11.529 121.181 11.529 121.448C11.528 121.717 11.745 121.936 12.015 121.936Z" fill="white"/>
<path d="M6.53602 121.936C6.80402 121.936 7.02002 121.717 7.02002 121.448C7.02002 121.181 6.80302 120.962 6.53602 120.962C6.26602 120.962 6.04902 121.181 6.04902 121.448C6.04902 121.717 6.26702 121.936 6.53602 121.936Z" fill="white"/>
<path d="M1.05697 121.936C1.32397 121.936 1.54297 121.717 1.54297 121.448C1.54297 121.181 1.32297 120.962 1.05697 120.962C0.787969 120.962 0.570969 121.181 0.570969 121.448C0.569969 121.717 0.787969 121.936 1.05697 121.936Z" fill="white"/>
<path d="M72.281 116.456C72.55 116.456 72.766 116.238 72.766 115.97C72.766 115.701 72.549 115.484 72.281 115.484C72.013 115.484 71.794 115.701 71.794 115.97C71.794 116.238 72.013 116.456 72.281 116.456Z" fill="white"/>
<path d="M66.802 116.456C67.072 116.456 67.288 116.238 67.288 115.97C67.288 115.701 67.071 115.484 66.802 115.484C66.534 115.484 66.316 115.701 66.316 115.97C66.315 116.238 66.534 116.456 66.802 116.456Z" fill="white"/>
<path d="M61.323 116.456C61.591 116.456 61.809 116.238 61.809 115.97C61.809 115.701 61.59 115.484 61.323 115.484C61.054 115.484 60.837 115.701 60.837 115.97C60.837 116.238 61.054 116.456 61.323 116.456Z" fill="white"/>
<path d="M55.8449 116.456C56.1139 116.456 56.3309 116.238 56.3309 115.97C56.3309 115.701 56.1129 115.484 55.8449 115.484C55.5759 115.484 55.3589 115.701 55.3589 115.97C55.3579 116.238 55.5759 116.456 55.8449 116.456Z" fill="white"/>
<path d="M50.366 116.456C50.634 116.456 50.851 116.238 50.851 115.97C50.851 115.701 50.633 115.484 50.366 115.484C50.096 115.484 49.88 115.701 49.88 115.97C49.88 116.238 50.097 116.456 50.366 116.456Z" fill="white"/>
<path d="M44.8869 116.457C45.1549 116.457 45.3729 116.238 45.3729 115.97C45.3729 115.701 45.1539 115.484 44.8869 115.484C44.6179 115.484 44.4019 115.701 44.4019 115.97C44.4009 116.238 44.6179 116.457 44.8869 116.457Z" fill="white"/>
<path d="M39.4069 116.457C39.6759 116.457 39.8929 116.238 39.8929 115.97C39.8929 115.701 39.6749 115.484 39.4069 115.484C39.1389 115.484 38.9229 115.701 38.9229 115.97C38.9229 116.238 39.1399 116.457 39.4069 116.457Z" fill="white"/>
<path d="M33.929 116.457C34.197 116.457 34.415 116.238 34.415 115.97C34.415 115.701 34.196 115.484 33.929 115.484C33.659 115.484 33.443 115.701 33.443 115.97C33.442 116.238 33.659 116.457 33.929 116.457Z" fill="white"/>
<path d="M28.45 116.457C28.718 116.457 28.936 116.238 28.936 115.97C28.936 115.701 28.717 115.484 28.45 115.484C28.182 115.484 27.964 115.701 27.964 115.97C27.964 116.238 28.183 116.457 28.45 116.457Z" fill="white"/>
<path d="M22.972 116.457C23.242 116.457 23.458 116.238 23.458 115.97C23.458 115.701 23.241 115.484 22.972 115.484C22.702 115.484 22.486 115.701 22.486 115.97C22.485 116.238 22.702 116.457 22.972 116.457Z" fill="white"/>
<path d="M17.493 116.457C17.761 116.457 17.979 116.238 17.979 115.97C17.979 115.701 17.76 115.484 17.493 115.484C17.223 115.484 17.007 115.701 17.007 115.97C17.007 116.238 17.224 116.457 17.493 116.457Z" fill="white"/>
<path d="M12.015 116.457C12.283 116.457 12.501 116.238 12.501 115.97C12.501 115.701 12.282 115.484 12.015 115.484C11.745 115.484 11.529 115.701 11.529 115.97C11.528 116.238 11.745 116.457 12.015 116.457Z" fill="white"/>
<path d="M6.53602 116.457C6.80402 116.457 7.02002 116.238 7.02002 115.97C7.02002 115.701 6.80302 115.484 6.53602 115.484C6.26602 115.484 6.04902 115.701 6.04902 115.97C6.04902 116.238 6.26702 116.457 6.53602 116.457Z" fill="white"/>
<path d="M1.05697 116.457C1.32397 116.457 1.54297 116.238 1.54297 115.97C1.54297 115.701 1.32297 115.484 1.05697 115.484C0.787969 115.484 0.570969 115.701 0.570969 115.97C0.569969 116.238 0.787969 116.457 1.05697 116.457Z" fill="white"/>
<path d="M72.281 110.977C72.55 110.977 72.766 110.76 72.766 110.491C72.766 110.222 72.549 110.005 72.281 110.005C72.013 110.005 71.794 110.222 71.794 110.491C71.794 110.76 72.013 110.977 72.281 110.977Z" fill="white"/>
<path d="M66.802 110.977C67.072 110.977 67.288 110.76 67.288 110.491C67.288 110.222 67.071 110.005 66.802 110.005C66.534 110.005 66.316 110.222 66.316 110.491C66.315 110.76 66.534 110.977 66.802 110.977Z" fill="white"/>
<path d="M60.837 110.491C60.837 110.759 61.0545 110.977 61.323 110.977C61.5914 110.977 61.809 110.759 61.809 110.491C61.809 110.223 61.5914 110.005 61.323 110.005C61.0545 110.005 60.837 110.223 60.837 110.491Z" fill="white"/>
<path d="M55.3589 110.491C55.3589 110.759 55.5765 110.977 55.8449 110.977C56.1133 110.977 56.3309 110.759 56.3309 110.491C56.3309 110.223 56.1133 110.005 55.8449 110.005C55.5765 110.005 55.3589 110.223 55.3589 110.491Z" fill="white"/>
<path d="M50.366 110.977C50.634 110.977 50.851 110.76 50.851 110.491C50.851 110.222 50.633 110.005 50.366 110.005C50.096 110.005 49.88 110.222 49.88 110.491C49.88 110.76 50.097 110.977 50.366 110.977Z" fill="white"/>
<path d="M44.8869 110.978C45.1549 110.978 45.3729 110.761 45.3729 110.491C45.3729 110.222 45.1539 110.005 44.8869 110.005C44.6179 110.005 44.4019 110.222 44.4019 110.491C44.4009 110.761 44.6179 110.978 44.8869 110.978Z" fill="white"/>
<path d="M39.4069 110.978C39.6759 110.978 39.8929 110.761 39.8929 110.491C39.8929 110.222 39.6749 110.005 39.4069 110.005C39.1389 110.005 38.9229 110.222 38.9229 110.491C38.9229 110.761 39.1399 110.978 39.4069 110.978Z" fill="white"/>
<path d="M33.929 110.978C34.197 110.978 34.415 110.761 34.415 110.491C34.415 110.222 34.196 110.005 33.929 110.005C33.659 110.005 33.443 110.222 33.443 110.491C33.442 110.761 33.659 110.978 33.929 110.978Z" fill="white"/>
<path d="M28.45 110.978C28.718 110.978 28.936 110.761 28.936 110.491C28.936 110.222 28.717 110.005 28.45 110.005C28.182 110.005 27.964 110.222 27.964 110.491C27.964 110.761 28.183 110.978 28.45 110.978Z" fill="white"/>
<path d="M22.972 110.978C23.242 110.978 23.458 110.761 23.458 110.491C23.458 110.222 23.241 110.005 22.972 110.005C22.702 110.005 22.486 110.222 22.486 110.491C22.485 110.761 22.702 110.978 22.972 110.978Z" fill="white"/>
<path d="M17.493 110.978C17.761 110.978 17.979 110.761 17.979 110.491C17.979 110.222 17.76 110.005 17.493 110.005C17.223 110.005 17.007 110.222 17.007 110.491C17.007 110.761 17.224 110.978 17.493 110.978Z" fill="white"/>
<path d="M12.015 110.978C12.283 110.978 12.501 110.761 12.501 110.491C12.501 110.222 12.282 110.005 12.015 110.005C11.745 110.005 11.529 110.222 11.529 110.491C11.528 110.761 11.745 110.978 12.015 110.978Z" fill="white"/>
<path d="M6.53602 110.978C6.80402 110.978 7.02002 110.761 7.02002 110.491C7.02002 110.222 6.80302 110.005 6.53602 110.005C6.26602 110.005 6.04902 110.222 6.04902 110.491C6.04902 110.761 6.26702 110.978 6.53602 110.978Z" fill="white"/>
<path d="M1.05697 110.978C1.32397 110.978 1.54297 110.761 1.54297 110.491C1.54297 110.222 1.32297 110.005 1.05697 110.005C0.787969 110.005 0.570969 110.222 0.570969 110.491C0.569969 110.761 0.787969 110.978 1.05697 110.978Z" fill="white"/>
<path d="M72.281 105.498C72.55 105.498 72.766 105.281 72.766 105.012C72.766 104.744 72.549 104.526 72.281 104.526C72.013 104.526 71.794 104.744 71.794 105.012C71.794 105.28 72.013 105.498 72.281 105.498Z" fill="white"/>
<path d="M66.802 105.498C67.072 105.498 67.288 105.281 67.288 105.012C67.288 104.744 67.071 104.526 66.802 104.526C66.534 104.526 66.316 104.744 66.316 105.012C66.315 105.28 66.534 105.498 66.802 105.498Z" fill="white"/>
<path d="M61.323 105.498C61.591 105.498 61.809 105.281 61.809 105.012C61.809 104.744 61.59 104.526 61.323 104.526C61.054 104.526 60.837 104.744 60.837 105.012C60.837 105.28 61.054 105.498 61.323 105.498Z" fill="white"/>
<path d="M55.8449 105.498C56.1139 105.498 56.3309 105.281 56.3309 105.012C56.3309 104.744 56.1129 104.526 55.8449 104.526C55.5759 104.526 55.3579 104.744 55.3579 105.012C55.3569 105.28 55.5759 105.498 55.8449 105.498Z" fill="white"/>
<path d="M50.366 105.498C50.634 105.498 50.85 105.281 50.85 105.012C50.85 104.744 50.633 104.526 50.366 104.526C50.095 104.526 49.878 104.744 49.878 105.012C49.878 105.28 50.096 105.498 50.366 105.498Z" fill="white"/>
<path d="M44.8869 105.499C45.1549 105.499 45.3719 105.28 45.3719 105.012C45.3719 104.744 45.1539 104.527 44.8869 104.527C44.6169 104.527 44.3999 104.744 44.3999 105.012C44.3989 105.28 44.6169 105.499 44.8869 105.499Z" fill="white"/>
<path d="M39.4069 105.499C39.6759 105.499 39.8929 105.28 39.8929 105.012C39.8929 104.744 39.6749 104.527 39.4069 104.527C39.1389 104.527 38.9229 104.744 38.9229 105.012C38.9229 105.28 39.1399 105.499 39.4069 105.499Z" fill="white"/>
<path d="M33.929 105.499C34.197 105.499 34.415 105.28 34.415 105.012C34.415 104.744 34.196 104.527 33.929 104.527C33.659 104.527 33.443 104.744 33.443 105.012C33.442 105.28 33.659 105.499 33.929 105.499Z" fill="white"/>
<path d="M28.4499 105.499C28.7179 105.499 28.9349 105.28 28.9349 105.012C28.9349 104.744 28.7169 104.527 28.4499 104.527C28.1819 104.527 27.9639 104.744 27.9639 105.012C27.9639 105.28 28.1829 105.499 28.4499 105.499Z" fill="white"/>
<path d="M22.9719 105.499C23.2419 105.499 23.4559 105.28 23.4559 105.012C23.4559 104.744 23.2409 104.527 22.9719 104.527C22.7019 104.527 22.4859 104.744 22.4859 105.012C22.4849 105.28 22.7019 105.499 22.9719 105.499Z" fill="white"/>
<path d="M17.492 105.499C17.761 105.499 17.979 105.28 17.979 105.012C17.979 104.744 17.76 104.527 17.492 104.527C17.223 104.527 17.007 104.744 17.007 105.012C17.007 105.28 17.224 105.499 17.492 105.499Z" fill="white"/>
<path d="M12.014 105.499C12.281 105.499 12.501 105.28 12.501 105.012C12.501 104.744 12.28 104.527 12.014 104.527C11.745 104.527 11.529 104.744 11.529 105.012C11.528 105.28 11.745 105.499 12.014 105.499Z" fill="white"/>
<path d="M6.53402 105.499C6.80402 105.499 7.02002 105.28 7.02002 105.012C7.02002 104.744 6.80302 104.527 6.53402 104.527C6.26602 104.527 6.04902 104.744 6.04902 105.012C6.04902 105.28 6.26702 105.499 6.53402 105.499Z" fill="white"/>
<path d="M1.05497 105.499C1.32397 105.499 1.54297 105.28 1.54297 105.012C1.54297 104.744 1.32297 104.527 1.05497 104.527C0.78797 104.527 0.570969 104.744 0.570969 105.012C0.569969 105.28 0.78797 105.499 1.05497 105.499Z" fill="white"/>
<path d="M72.281 100.02C72.55 100.02 72.766 99.803 72.766 99.533C72.766 99.265 72.549 99.048 72.281 99.048C72.013 99.048 71.794 99.265 71.794 99.533C71.794 99.802 72.013 100.02 72.281 100.02Z" fill="white"/>
<path d="M66.802 100.02C67.072 100.02 67.288 99.803 67.288 99.533C67.288 99.265 67.071 99.048 66.802 99.048C66.534 99.048 66.316 99.265 66.316 99.533C66.315 99.802 66.534 100.02 66.802 100.02Z" fill="white"/>
<path d="M61.323 100.02C61.591 100.02 61.809 99.803 61.809 99.533C61.809 99.265 61.59 99.048 61.323 99.048C61.054 99.048 60.837 99.265 60.837 99.533C60.837 99.802 61.054 100.02 61.323 100.02Z" fill="white"/>
<path d="M55.8449 100.02C56.1139 100.02 56.3309 99.803 56.3309 99.533C56.3309 99.265 56.1129 99.048 55.8449 99.048C55.5759 99.048 55.3579 99.265 55.3579 99.533C55.3569 99.802 55.5759 100.02 55.8449 100.02Z" fill="white"/>
<path d="M50.366 100.02C50.634 100.02 50.85 99.803 50.85 99.533C50.85 99.265 50.633 99.048 50.366 99.048C50.095 99.048 49.878 99.265 49.878 99.533C49.878 99.802 50.096 100.02 50.366 100.02Z" fill="white"/>
<path d="M44.8869 100.02C45.1549 100.02 45.3719 99.803 45.3719 99.533C45.3719 99.265 45.1539 99.048 44.8869 99.048C44.6169 99.048 44.3999 99.265 44.3999 99.533C44.3989 99.802 44.6169 100.02 44.8869 100.02Z" fill="white"/>
<path d="M39.4069 100.02C39.6759 100.02 39.8929 99.803 39.8929 99.533C39.8929 99.265 39.6749 99.048 39.4069 99.048C39.1389 99.048 38.9229 99.265 38.9229 99.533C38.9229 99.802 39.1399 100.02 39.4069 100.02Z" fill="white"/>
<path d="M33.929 100.02C34.197 100.02 34.415 99.803 34.415 99.533C34.415 99.265 34.196 99.048 33.929 99.048C33.659 99.048 33.443 99.265 33.443 99.533C33.442 99.802 33.659 100.02 33.929 100.02Z" fill="white"/>
<path d="M28.4499 100.02C28.7179 100.02 28.9349 99.803 28.9349 99.533C28.9349 99.265 28.7169 99.048 28.4499 99.048C28.1819 99.048 27.9639 99.265 27.9639 99.533C27.9639 99.802 28.1829 100.02 28.4499 100.02Z" fill="white"/>
<path d="M22.9719 100.02C23.2419 100.02 23.4559 99.803 23.4559 99.533C23.4559 99.265 23.2409 99.048 22.9719 99.048C22.7019 99.048 22.4859 99.265 22.4859 99.533C22.4849 99.802 22.7019 100.02 22.9719 100.02Z" fill="white"/>
<path d="M17.492 100.02C17.761 100.02 17.979 99.803 17.979 99.533C17.979 99.265 17.76 99.048 17.492 99.048C17.223 99.048 17.007 99.265 17.007 99.533C17.007 99.802 17.224 100.02 17.492 100.02Z" fill="white"/>
<path d="M12.014 100.02C12.281 100.02 12.501 99.803 12.501 99.533C12.501 99.265 12.28 99.048 12.014 99.048C11.745 99.048 11.529 99.265 11.529 99.533C11.528 99.802 11.745 100.02 12.014 100.02Z" fill="white"/>
<path d="M6.53402 100.02C6.80402 100.02 7.02002 99.803 7.02002 99.533C7.02002 99.265 6.80302 99.048 6.53402 99.048C6.26602 99.048 6.04902 99.265 6.04902 99.533C6.04902 99.802 6.26702 100.02 6.53402 100.02Z" fill="white"/>
<path d="M1.05497 100.02C1.32397 100.02 1.54297 99.803 1.54297 99.533C1.54297 99.265 1.32297 99.048 1.05497 99.048C0.78797 99.048 0.570969 99.265 0.570969 99.533C0.569969 99.802 0.78797 100.02 1.05497 100.02Z" fill="white"/>
<path d="M72.281 94.54C72.55 94.54 72.766 94.323 72.766 94.054C72.766 93.785 72.549 93.567 72.281 93.567C72.013 93.567 71.794 93.785 71.794 94.054C71.794 94.323 72.013 94.54 72.281 94.54Z" fill="white"/>
<path d="M66.802 94.54C67.072 94.54 67.288 94.323 67.288 94.054C67.288 93.785 67.071 93.567 66.802 93.567C66.534 93.567 66.316 93.785 66.316 94.054C66.315 94.323 66.534 94.54 66.802 94.54Z" fill="white"/>
<path d="M61.323 94.54C61.591 94.54 61.809 94.323 61.809 94.054C61.809 93.785 61.59 93.567 61.323 93.567C61.054 93.567 60.837 93.785 60.837 94.054C60.837 94.323 61.054 94.54 61.323 94.54Z" fill="white"/>
<path d="M55.8449 94.54C56.1139 94.54 56.3309 94.323 56.3309 94.054C56.3309 93.785 56.1129 93.567 55.8449 93.567C55.5759 93.567 55.3579 93.785 55.3579 94.054C55.3569 94.323 55.5759 94.54 55.8449 94.54Z" fill="white"/>
<path d="M50.366 94.54C50.634 94.54 50.85 94.323 50.85 94.054C50.85 93.785 50.633 93.567 50.366 93.567C50.095 93.567 49.878 93.785 49.878 94.054C49.878 94.323 50.096 94.54 50.366 94.54Z" fill="white"/>
<path d="M44.8869 94.541C45.1549 94.541 45.3719 94.323 45.3719 94.054C45.3719 93.786 45.1539 93.569 44.8869 93.569C44.6169 93.569 44.3999 93.786 44.3999 94.054C44.3989 94.323 44.6169 94.541 44.8869 94.541Z" fill="white"/>
<path d="M39.4069 94.541C39.6759 94.541 39.8929 94.323 39.8929 94.054C39.8929 93.786 39.6749 93.569 39.4069 93.569C39.1389 93.569 38.9229 93.786 38.9229 94.054C38.9229 94.323 39.1399 94.541 39.4069 94.541Z" fill="white"/>
<path d="M33.929 94.541C34.197 94.541 34.415 94.323 34.415 94.054C34.415 93.786 34.196 93.569 33.929 93.569C33.659 93.569 33.443 93.786 33.443 94.054C33.442 94.323 33.659 94.541 33.929 94.541Z" fill="white"/>
<path d="M28.4499 94.541C28.7179 94.541 28.9349 94.323 28.9349 94.054C28.9349 93.786 28.7169 93.569 28.4499 93.569C28.1819 93.569 27.9639 93.786 27.9639 94.054C27.9639 94.323 28.1829 94.541 28.4499 94.541Z" fill="white"/>
<path d="M22.9719 94.541C23.2419 94.541 23.4559 94.323 23.4559 94.054C23.4559 93.786 23.2409 93.569 22.9719 93.569C22.7019 93.569 22.4859 93.786 22.4859 94.054C22.4849 94.323 22.7019 94.541 22.9719 94.541Z" fill="white"/>
<path d="M17.492 94.541C17.761 94.541 17.979 94.323 17.979 94.054C17.979 93.786 17.76 93.569 17.492 93.569C17.223 93.569 17.007 93.786 17.007 94.054C17.007 94.323 17.224 94.541 17.492 94.541Z" fill="white"/>
<path d="M12.014 94.541C12.281 94.541 12.501 94.323 12.501 94.054C12.501 93.786 12.28 93.569 12.014 93.569C11.745 93.569 11.529 93.786 11.529 94.054C11.528 94.323 11.745 94.541 12.014 94.541Z" fill="white"/>
<path d="M6.53402 94.541C6.80402 94.541 7.02002 94.323 7.02002 94.054C7.02002 93.786 6.80302 93.569 6.53402 93.569C6.26602 93.569 6.04902 93.786 6.04902 94.054C6.04902 94.323 6.26702 94.541 6.53402 94.541Z" fill="white"/>
<path d="M1.05497 94.541C1.32397 94.541 1.54297 94.323 1.54297 94.054C1.54297 93.786 1.32297 93.569 1.05497 93.569C0.78797 93.569 0.570969 93.786 0.570969 94.054C0.569969 94.323 0.78797 94.541 1.05497 94.541Z" fill="white"/>
<path d="M72.281 89.062C72.55 89.062 72.766 88.844 72.766 88.575C72.766 88.307 72.549 88.089 72.281 88.089C72.013 88.089 71.794 88.307 71.794 88.575C71.794 88.843 72.013 89.062 72.281 89.062Z" fill="white"/>
<path d="M66.802 89.062C67.072 89.062 67.288 88.844 67.288 88.575C67.288 88.307 67.071 88.089 66.802 88.089C66.534 88.089 66.316 88.307 66.316 88.575C66.315 88.843 66.534 89.062 66.802 89.062Z" fill="white"/>
<path d="M61.323 89.062C61.591 89.062 61.809 88.844 61.809 88.575C61.809 88.307 61.59 88.089 61.323 88.089C61.054 88.089 60.837 88.307 60.837 88.575C60.837 88.843 61.054 89.062 61.323 89.062Z" fill="white"/>
<path d="M55.8449 89.062C56.1139 89.062 56.3309 88.844 56.3309 88.575C56.3309 88.307 56.1129 88.089 55.8449 88.089C55.5759 88.089 55.3579 88.307 55.3579 88.575C55.3569 88.843 55.5759 89.062 55.8449 89.062Z" fill="white"/>
<path d="M50.366 89.062C50.634 89.062 50.85 88.844 50.85 88.575C50.85 88.307 50.633 88.089 50.366 88.089C50.095 88.089 49.878 88.307 49.878 88.575C49.878 88.843 50.096 89.062 50.366 89.062Z" fill="white"/>
<path d="M44.8869 89.062C45.1549 89.062 45.3719 88.843 45.3719 88.575C45.3719 88.307 45.1539 88.089 44.8869 88.089C44.6169 88.089 44.3999 88.307 44.3999 88.575C44.3989 88.843 44.6169 89.062 44.8869 89.062Z" fill="white"/>
<path d="M39.4069 89.062C39.6759 89.062 39.8929 88.843 39.8929 88.575C39.8929 88.307 39.6749 88.089 39.4069 88.089C39.1389 88.089 38.9229 88.307 38.9229 88.575C38.9229 88.843 39.1399 89.062 39.4069 89.062Z" fill="white"/>
<path d="M33.929 89.062C34.197 89.062 34.415 88.843 34.415 88.575C34.415 88.307 34.196 88.089 33.929 88.089C33.659 88.089 33.443 88.307 33.443 88.575C33.442 88.843 33.659 89.062 33.929 89.062Z" fill="white"/>
<path d="M28.4499 89.062C28.7179 89.062 28.9349 88.843 28.9349 88.575C28.9349 88.307 28.7169 88.089 28.4499 88.089C28.1819 88.089 27.9639 88.307 27.9639 88.575C27.9639 88.843 28.1829 89.062 28.4499 89.062Z" fill="white"/>
<path d="M22.9719 89.062C23.2419 89.062 23.4559 88.843 23.4559 88.575C23.4559 88.307 23.2409 88.089 22.9719 88.089C22.7019 88.089 22.4859 88.307 22.4859 88.575C22.4849 88.843 22.7019 89.062 22.9719 89.062Z" fill="white"/>
<path d="M17.492 89.062C17.761 89.062 17.979 88.843 17.979 88.575C17.979 88.307 17.76 88.089 17.492 88.089C17.223 88.089 17.007 88.307 17.007 88.575C17.007 88.843 17.224 89.062 17.492 89.062Z" fill="white"/>
<path d="M12.014 89.062C12.281 89.062 12.501 88.843 12.501 88.575C12.501 88.307 12.28 88.089 12.014 88.089C11.745 88.089 11.529 88.307 11.529 88.575C11.528 88.843 11.745 89.062 12.014 89.062Z" fill="white"/>
<path d="M6.53402 89.062C6.80402 89.062 7.02002 88.843 7.02002 88.575C7.02002 88.307 6.80302 88.089 6.53402 88.089C6.26602 88.089 6.04902 88.307 6.04902 88.575C6.04902 88.843 6.26702 89.062 6.53402 89.062Z" fill="white"/>
<path d="M1.05497 89.062C1.32397 89.062 1.54297 88.843 1.54297 88.575C1.54297 88.307 1.32297 88.089 1.05497 88.089C0.78797 88.089 0.570969 88.307 0.570969 88.575C0.569969 88.843 0.78797 89.062 1.05497 89.062Z" fill="white"/>
<path d="M72.281 83.583C72.55 83.583 72.766 83.367 72.766 83.097C72.766 82.828 72.549 82.611 72.281 82.611C72.013 82.611 71.794 82.828 71.794 83.097C71.794 83.366 72.013 83.583 72.281 83.583Z" fill="white"/>
<path d="M66.802 83.583C67.072 83.583 67.288 83.367 67.288 83.097C67.288 82.828 67.071 82.611 66.802 82.611C66.534 82.611 66.316 82.828 66.316 83.097C66.315 83.366 66.534 83.583 66.802 83.583Z" fill="white"/>
<path d="M61.323 83.583C61.591 83.583 61.809 83.367 61.809 83.097C61.809 82.828 61.59 82.611 61.323 82.611C61.054 82.611 60.837 82.828 60.837 83.097C60.837 83.366 61.054 83.583 61.323 83.583Z" fill="white"/>
<path d="M55.8449 83.583C56.1139 83.583 56.3309 83.367 56.3309 83.097C56.3309 82.828 56.1129 82.611 55.8449 82.611C55.5759 82.611 55.3579 82.828 55.3579 83.097C55.3569 83.366 55.5759 83.583 55.8449 83.583Z" fill="white"/>
<path d="M50.366 83.583C50.634 83.583 50.85 83.367 50.85 83.097C50.85 82.828 50.633 82.611 50.366 82.611C50.095 82.611 49.878 82.828 49.878 83.097C49.878 83.366 50.096 83.583 50.366 83.583Z" fill="white"/>
<path d="M44.8869 83.584C45.1549 83.584 45.3719 83.367 45.3719 83.097C45.3719 82.829 45.1539 82.611 44.8869 82.611C44.6169 82.611 44.3999 82.829 44.3999 83.097C44.3989 83.366 44.6169 83.584 44.8869 83.584Z" fill="white"/>
<path d="M39.4069 83.584C39.6759 83.584 39.8929 83.367 39.8929 83.097C39.8929 82.829 39.6749 82.611 39.4069 82.611C39.1389 82.611 38.9229 82.829 38.9229 83.097C38.9229 83.366 39.1399 83.584 39.4069 83.584Z" fill="white"/>
<path d="M33.929 83.584C34.197 83.584 34.415 83.367 34.415 83.097C34.415 82.829 34.196 82.611 33.929 82.611C33.659 82.611 33.443 82.829 33.443 83.097C33.442 83.366 33.659 83.584 33.929 83.584Z" fill="white"/>
<path d="M28.4499 83.584C28.7179 83.584 28.9349 83.367 28.9349 83.097C28.9349 82.829 28.7169 82.611 28.4499 82.611C28.1819 82.611 27.9639 82.829 27.9639 83.097C27.9639 83.366 28.1829 83.584 28.4499 83.584Z" fill="white"/>
<path d="M22.9719 83.584C23.2419 83.584 23.4559 83.367 23.4559 83.097C23.4559 82.829 23.2409 82.611 22.9719 82.611C22.7019 82.611 22.4859 82.829 22.4859 83.097C22.4849 83.366 22.7019 83.584 22.9719 83.584Z" fill="white"/>
<path d="M17.492 83.584C17.761 83.584 17.979 83.367 17.979 83.097C17.979 82.829 17.76 82.611 17.492 82.611C17.223 82.611 17.007 82.829 17.007 83.097C17.007 83.366 17.224 83.584 17.492 83.584Z" fill="white"/>
<path d="M12.014 83.584C12.281 83.584 12.501 83.367 12.501 83.097C12.501 82.829 12.28 82.611 12.014 82.611C11.745 82.611 11.529 82.829 11.529 83.097C11.528 83.366 11.745 83.584 12.014 83.584Z" fill="white"/>
<path d="M6.53402 83.584C6.80402 83.584 7.02002 83.367 7.02002 83.097C7.02002 82.829 6.80302 82.611 6.53402 82.611C6.26602 82.611 6.04902 82.829 6.04902 83.097C6.04902 83.366 6.26702 83.584 6.53402 83.584Z" fill="white"/>
<path d="M1.05497 83.584C1.32397 83.584 1.54297 83.367 1.54297 83.097C1.54297 82.829 1.32297 82.611 1.05497 82.611C0.78797 82.611 0.570969 82.829 0.570969 83.097C0.569969 83.366 0.78797 83.584 1.05497 83.584Z" fill="white"/>
<path d="M72.281 78.104C72.55 78.104 72.766 77.885 72.766 77.618C72.766 77.35 72.549 77.131 72.281 77.131C72.013 77.131 71.794 77.35 71.794 77.618C71.794 77.885 72.013 78.104 72.281 78.104Z" fill="white"/>
<path d="M66.802 78.104C67.072 78.104 67.288 77.885 67.288 77.618C67.288 77.35 67.071 77.131 66.802 77.131C66.534 77.131 66.316 77.35 66.316 77.618C66.315 77.885 66.534 78.104 66.802 78.104Z" fill="white"/>
<path d="M61.323 78.104C61.591 78.104 61.809 77.885 61.809 77.618C61.809 77.35 61.59 77.131 61.323 77.131C61.054 77.131 60.837 77.35 60.837 77.618C60.837 77.885 61.054 78.104 61.323 78.104Z" fill="white"/>
<path d="M55.8449 78.104C56.1139 78.104 56.3309 77.885 56.3309 77.618C56.3309 77.35 56.1129 77.131 55.8449 77.131C55.5759 77.131 55.3579 77.35 55.3579 77.618C55.3569 77.885 55.5759 78.104 55.8449 78.104Z" fill="white"/>
<path d="M50.366 78.104C50.634 78.104 50.85 77.885 50.85 77.618C50.85 77.35 50.633 77.131 50.366 77.131C50.095 77.131 49.878 77.35 49.878 77.618C49.878 77.885 50.096 78.104 50.366 78.104Z" fill="white"/>
<path d="M44.8869 78.105C45.1549 78.105 45.3719 77.886 45.3719 77.619C45.3719 77.351 45.1539 77.132 44.8869 77.132C44.6169 77.132 44.3999 77.352 44.3999 77.619C44.3989 77.885 44.6169 78.105 44.8869 78.105Z" fill="white"/>
<path d="M39.4069 78.105C39.6759 78.105 39.8929 77.886 39.8929 77.619C39.8929 77.351 39.6749 77.132 39.4069 77.132C39.1389 77.132 38.9229 77.352 38.9229 77.619C38.9229 77.885 39.1399 78.105 39.4069 78.105Z" fill="white"/>
<path d="M33.929 78.105C34.197 78.105 34.415 77.886 34.415 77.619C34.415 77.351 34.196 77.132 33.929 77.132C33.659 77.132 33.443 77.352 33.443 77.619C33.442 77.885 33.659 78.105 33.929 78.105Z" fill="white"/>
<path d="M28.4499 78.105C28.7179 78.105 28.9349 77.886 28.9349 77.619C28.9349 77.351 28.7169 77.132 28.4499 77.132C28.1819 77.132 27.9639 77.352 27.9639 77.619C27.9639 77.885 28.1829 78.105 28.4499 78.105Z" fill="white"/>
<path d="M22.9719 78.105C23.2419 78.105 23.4559 77.886 23.4559 77.619C23.4559 77.351 23.2409 77.132 22.9719 77.132C22.7019 77.132 22.4859 77.352 22.4859 77.619C22.4849 77.885 22.7019 78.105 22.9719 78.105Z" fill="white"/>
<path d="M17.492 78.105C17.761 78.105 17.979 77.886 17.979 77.619C17.979 77.351 17.76 77.132 17.492 77.132C17.223 77.132 17.007 77.352 17.007 77.619C17.007 77.885 17.224 78.105 17.492 78.105Z" fill="white"/>
<path d="M12.014 78.105C12.281 78.105 12.501 77.886 12.501 77.619C12.501 77.351 12.28 77.132 12.014 77.132C11.745 77.132 11.529 77.352 11.529 77.619C11.528 77.885 11.745 78.105 12.014 78.105Z" fill="white"/>
<path d="M6.53402 78.105C6.80402 78.105 7.02002 77.886 7.02002 77.619C7.02002 77.351 6.80302 77.132 6.53402 77.132C6.26602 77.132 6.04902 77.352 6.04902 77.619C6.04902 77.885 6.26702 78.105 6.53402 78.105Z" fill="white"/>
<path d="M1.05497 78.105C1.32397 78.105 1.54297 77.886 1.54297 77.619C1.54297 77.351 1.32297 77.132 1.05497 77.132C0.78797 77.132 0.570969 77.352 0.570969 77.619C0.569969 77.885 0.78797 78.105 1.05497 78.105Z" fill="white"/>
<path d="M72.281 72.625C72.55 72.625 72.766 72.409 72.766 72.14C72.766 71.872 72.549 71.6541 72.281 71.6541C72.013 71.6541 71.794 71.872 71.794 72.14C71.794 72.408 72.013 72.625 72.281 72.625Z" fill="white"/>
<path d="M66.802 72.625C67.072 72.625 67.288 72.409 67.288 72.14C67.288 71.872 67.071 71.654 66.802 71.654C66.534 71.654 66.316 71.872 66.316 72.14C66.315 72.408 66.534 72.625 66.802 72.625Z" fill="white"/>
<path d="M61.323 72.625C61.591 72.625 61.809 72.409 61.809 72.14C61.809 71.872 61.59 71.654 61.323 71.654C61.054 71.654 60.837 71.872 60.837 72.14C60.837 72.408 61.054 72.625 61.323 72.625Z" fill="white"/>
<path d="M55.8449 72.625C56.1139 72.625 56.3309 72.409 56.3309 72.14C56.3309 71.872 56.1129 71.654 55.8449 71.654C55.5759 71.654 55.3579 71.872 55.3579 72.14C55.3569 72.408 55.5759 72.625 55.8449 72.625Z" fill="white"/>
<path d="M50.366 72.625C50.634 72.625 50.85 72.409 50.85 72.14C50.85 71.872 50.633 71.654 50.366 71.654C50.095 71.654 49.878 71.872 49.878 72.14C49.878 72.408 50.096 72.625 50.366 72.625Z" fill="white"/>
<path d="M44.8869 72.626C45.1549 72.626 45.3719 72.408 45.3719 72.14C45.3719 71.871 45.1539 71.653 44.8869 71.653C44.6169 71.653 44.3999 71.871 44.3999 72.14C44.3989 72.408 44.6169 72.626 44.8869 72.626Z" fill="white"/>
<path d="M39.4069 72.626C39.6759 72.626 39.8929 72.408 39.8929 72.14C39.8929 71.871 39.6749 71.653 39.4069 71.653C39.1389 71.653 38.9229 71.871 38.9229 72.14C38.9229 72.408 39.1399 72.626 39.4069 72.626Z" fill="white"/>
<path d="M33.929 72.626C34.197 72.626 34.415 72.408 34.415 72.14C34.415 71.871 34.196 71.653 33.929 71.653C33.659 71.653 33.443 71.871 33.443 72.14C33.442 72.408 33.659 72.626 33.929 72.626Z" fill="white"/>
<path d="M28.4499 72.626C28.7179 72.626 28.9349 72.408 28.9349 72.14C28.9349 71.871 28.7169 71.653 28.4499 71.653C28.1819 71.653 27.9639 71.871 27.9639 72.14C27.9639 72.408 28.1829 72.626 28.4499 72.626Z" fill="white"/>
<path d="M22.9719 72.626C23.2419 72.626 23.4559 72.408 23.4559 72.14C23.4559 71.871 23.2409 71.653 22.9719 71.653C22.7019 71.653 22.4859 71.871 22.4859 72.14C22.4849 72.408 22.7019 72.626 22.9719 72.626Z" fill="white"/>
<path d="M17.492 72.626C17.761 72.626 17.979 72.408 17.979 72.14C17.979 71.871 17.76 71.653 17.492 71.653C17.223 71.653 17.007 71.871 17.007 72.14C17.007 72.408 17.224 72.626 17.492 72.626Z" fill="white"/>
<path d="M12.014 72.626C12.281 72.626 12.501 72.408 12.501 72.14C12.501 71.871 12.28 71.653 12.014 71.653C11.745 71.653 11.529 71.871 11.529 72.14C11.528 72.408 11.745 72.626 12.014 72.626Z" fill="white"/>
<path d="M6.53402 72.626C6.80402 72.626 7.02002 72.408 7.02002 72.14C7.02002 71.871 6.80302 71.653 6.53402 71.653C6.26602 71.653 6.04902 71.871 6.04902 72.14C6.04902 72.408 6.26702 72.626 6.53402 72.626Z" fill="white"/>
<path d="M1.05497 72.626C1.32397 72.626 1.54297 72.408 1.54297 72.14C1.54297 71.871 1.32297 71.653 1.05497 71.653C0.78797 71.653 0.570969 71.871 0.570969 72.14C0.569969 72.408 0.78797 72.626 1.05497 72.626Z" fill="white"/>
<path d="M72.281 67.146C72.55 67.146 72.766 66.93 72.766 66.661C72.766 66.391 72.549 66.174 72.281 66.174C72.013 66.174 71.794 66.391 71.794 66.661C71.794 66.93 72.013 67.146 72.281 67.146Z" fill="white"/>
<path d="M66.802 67.146C67.072 67.146 67.288 66.93 67.288 66.661C67.288 66.391 67.071 66.174 66.802 66.174C66.534 66.174 66.316 66.391 66.316 66.661C66.315 66.93 66.534 67.146 66.802 67.146Z" fill="white"/>
<path d="M61.323 67.146C61.591 67.146 61.809 66.93 61.809 66.661C61.809 66.391 61.59 66.174 61.323 66.174C61.054 66.174 60.837 66.391 60.837 66.661C60.837 66.93 61.054 67.146 61.323 67.146Z" fill="white"/>
<path d="M55.8449 67.146C56.1139 67.146 56.3309 66.93 56.3309 66.661C56.3309 66.391 56.1129 66.174 55.8449 66.174C55.5759 66.174 55.3579 66.391 55.3579 66.661C55.3569 66.93 55.5759 67.146 55.8449 67.146Z" fill="white"/>
<path d="M50.366 67.146C50.634 67.146 50.85 66.93 50.85 66.661C50.85 66.391 50.633 66.174 50.366 66.174C50.095 66.174 49.878 66.391 49.878 66.661C49.878 66.93 50.096 67.146 50.366 67.146Z" fill="white"/>
<path d="M44.8869 67.147C45.1549 67.147 45.3719 66.93 45.3719 66.661C45.3719 66.391 45.1539 66.174 44.8869 66.174C44.6169 66.174 44.3999 66.391 44.3999 66.661C44.3989 66.93 44.6169 67.147 44.8869 67.147Z" fill="white"/>
<path d="M39.4069 67.147C39.6759 67.147 39.8929 66.93 39.8929 66.661C39.8929 66.391 39.6749 66.174 39.4069 66.174C39.1389 66.174 38.9229 66.391 38.9229 66.661C38.9229 66.93 39.1399 67.147 39.4069 67.147Z" fill="white"/>
<path d="M33.929 67.147C34.197 67.147 34.415 66.93 34.415 66.661C34.415 66.391 34.196 66.174 33.929 66.174C33.659 66.174 33.443 66.391 33.443 66.661C33.442 66.93 33.659 67.147 33.929 67.147Z" fill="white"/>
<path d="M28.4499 67.147C28.7179 67.147 28.9349 66.93 28.9349 66.661C28.9349 66.391 28.7169 66.174 28.4499 66.174C28.1819 66.174 27.9639 66.391 27.9639 66.661C27.9639 66.93 28.1829 67.147 28.4499 67.147Z" fill="white"/>
<path d="M22.9719 67.147C23.2419 67.147 23.4559 66.93 23.4559 66.661C23.4559 66.391 23.2409 66.174 22.9719 66.174C22.7019 66.174 22.4859 66.391 22.4859 66.661C22.4849 66.93 22.7019 67.147 22.9719 67.147Z" fill="white"/>
<path d="M17.492 67.147C17.761 67.147 17.979 66.93 17.979 66.661C17.979 66.391 17.76 66.174 17.492 66.174C17.223 66.174 17.007 66.391 17.007 66.661C17.007 66.93 17.224 67.147 17.492 67.147Z" fill="white"/>
<path d="M12.014 67.147C12.281 67.147 12.501 66.93 12.501 66.661C12.501 66.391 12.28 66.174 12.014 66.174C11.745 66.174 11.529 66.391 11.529 66.661C11.528 66.93 11.745 67.147 12.014 67.147Z" fill="white"/>
<path d="M6.53402 67.147C6.80402 67.147 7.02002 66.93 7.02002 66.661C7.02002 66.391 6.80302 66.174 6.53402 66.174C6.26602 66.174 6.04902 66.391 6.04902 66.661C6.04902 66.93 6.26702 67.147 6.53402 67.147Z" fill="white"/>
<path d="M1.05497 67.147C1.32397 67.147 1.54297 66.93 1.54297 66.661C1.54297 66.391 1.32297 66.174 1.05497 66.174C0.78797 66.174 0.570969 66.391 0.570969 66.661C0.569969 66.93 0.78797 67.147 1.05497 67.147Z" fill="white"/>
<path d="M72.281 61.667C72.55 61.667 72.766 61.45 72.766 61.182C72.766 60.914 72.549 60.695 72.281 60.695C72.013 60.695 71.794 60.913 71.794 61.182C71.794 61.45 72.013 61.667 72.281 61.667Z" fill="white"/>
<path d="M66.802 61.667C67.072 61.667 67.288 61.45 67.288 61.182C67.288 60.914 67.071 60.695 66.802 60.695C66.534 60.695 66.316 60.913 66.316 61.182C66.315 61.45 66.534 61.667 66.802 61.667Z" fill="white"/>
<path d="M61.323 61.667C61.591 61.667 61.809 61.45 61.809 61.182C61.809 60.914 61.59 60.695 61.323 60.695C61.054 60.695 60.837 60.913 60.837 61.182C60.837 61.45 61.054 61.667 61.323 61.667Z" fill="white"/>
<path d="M55.8449 61.667C56.1139 61.667 56.3309 61.45 56.3309 61.182C56.3309 60.914 56.1129 60.695 55.8449 60.695C55.5759 60.695 55.3579 60.913 55.3579 61.182C55.3569 61.45 55.5759 61.667 55.8449 61.667Z" fill="white"/>
<path d="M50.366 61.667C50.634 61.667 50.85 61.45 50.85 61.182C50.85 60.914 50.633 60.695 50.366 60.695C50.095 60.695 49.878 60.913 49.878 61.182C49.878 61.45 50.096 61.667 50.366 61.667Z" fill="white"/>
<path d="M44.8869 61.667C45.1549 61.667 45.3719 61.45 45.3719 61.183C45.3719 60.914 45.1539 60.695 44.8869 60.695C44.6169 60.695 44.3999 60.914 44.3999 61.183C44.3989 61.45 44.6169 61.667 44.8869 61.667Z" fill="white"/>
<path d="M39.4069 61.667C39.6759 61.667 39.8929 61.45 39.8929 61.183C39.8929 60.914 39.6749 60.695 39.4069 60.695C39.1389 60.695 38.9229 60.914 38.9229 61.183C38.9229 61.45 39.1399 61.667 39.4069 61.667Z" fill="white"/>
<path d="M33.929 61.667C34.197 61.667 34.415 61.45 34.415 61.183C34.415 60.914 34.196 60.695 33.929 60.695C33.659 60.695 33.443 60.914 33.443 61.183C33.442 61.45 33.659 61.667 33.929 61.667Z" fill="white"/>
<path d="M28.4499 61.667C28.7179 61.667 28.9349 61.45 28.9349 61.183C28.9349 60.914 28.7169 60.695 28.4499 60.695C28.1819 60.695 27.9639 60.914 27.9639 61.183C27.9639 61.45 28.1829 61.667 28.4499 61.667Z" fill="white"/>
<path d="M22.9719 61.667C23.2419 61.667 23.4559 61.45 23.4559 61.183C23.4559 60.914 23.2409 60.695 22.9719 60.695C22.7019 60.695 22.4859 60.914 22.4859 61.183C22.4849 61.45 22.7019 61.667 22.9719 61.667Z" fill="white"/>
<path d="M17.492 61.667C17.761 61.667 17.979 61.45 17.979 61.183C17.979 60.914 17.76 60.695 17.492 60.695C17.223 60.695 17.007 60.914 17.007 61.183C17.007 61.45 17.224 61.667 17.492 61.667Z" fill="white"/>
<path d="M12.014 61.667C12.281 61.667 12.501 61.45 12.501 61.183C12.501 60.914 12.28 60.695 12.014 60.695C11.745 60.695 11.529 60.914 11.529 61.183C11.528 61.45 11.745 61.667 12.014 61.667Z" fill="white"/>
<path d="M6.53402 61.667C6.80402 61.667 7.02002 61.45 7.02002 61.183C7.02002 60.914 6.80302 60.695 6.53402 60.695C6.26602 60.695 6.04902 60.914 6.04902 61.183C6.04902 61.45 6.26702 61.667 6.53402 61.667Z" fill="white"/>
<path d="M1.05497 61.667C1.32397 61.667 1.54297 61.45 1.54297 61.183C1.54297 60.914 1.32297 60.695 1.05497 60.695C0.78797 60.695 0.570969 60.914 0.570969 61.183C0.569969 61.45 0.78797 61.667 1.05497 61.667Z" fill="white"/>
<path d="M72.281 56.189C72.55 56.189 72.766 55.972 72.766 55.702C72.766 55.434 72.549 55.217 72.281 55.217C72.013 55.217 71.794 55.434 71.794 55.702C71.794 55.972 72.013 56.189 72.281 56.189Z" fill="white"/>
<path d="M66.802 56.189C67.072 56.189 67.288 55.972 67.288 55.702C67.288 55.434 67.071 55.217 66.802 55.217C66.534 55.217 66.316 55.434 66.316 55.702C66.315 55.972 66.534 56.189 66.802 56.189Z" fill="white"/>
<path d="M61.323 56.189C61.591 56.189 61.809 55.972 61.809 55.702C61.809 55.434 61.59 55.217 61.323 55.217C61.054 55.217 60.837 55.434 60.837 55.702C60.837 55.972 61.054 56.189 61.323 56.189Z" fill="white"/>
<path d="M55.8449 56.189C56.1139 56.189 56.3309 55.972 56.3309 55.702C56.3309 55.434 56.1129 55.217 55.8449 55.217C55.5759 55.217 55.3579 55.434 55.3579 55.702C55.3569 55.972 55.5759 56.189 55.8449 56.189Z" fill="white"/>
<path d="M50.366 56.189C50.634 56.189 50.85 55.972 50.85 55.702C50.85 55.434 50.633 55.217 50.366 55.217C50.095 55.217 49.878 55.434 49.878 55.702C49.878 55.972 50.096 56.189 50.366 56.189Z" fill="white"/>
<path d="M44.8869 56.189C45.1549 56.189 45.3719 55.972 45.3719 55.704C45.3719 55.434 45.1539 55.217 44.8869 55.217C44.6169 55.217 44.3999 55.434 44.3999 55.704C44.3989 55.972 44.6169 56.189 44.8869 56.189Z" fill="white"/>
<path d="M39.4069 56.189C39.6759 56.189 39.8929 55.972 39.8929 55.704C39.8929 55.434 39.6749 55.217 39.4069 55.217C39.1389 55.217 38.9229 55.434 38.9229 55.704C38.9229 55.972 39.1399 56.189 39.4069 56.189Z" fill="white"/>
<path d="M33.929 56.189C34.197 56.189 34.415 55.972 34.415 55.704C34.415 55.434 34.196 55.217 33.929 55.217C33.659 55.217 33.443 55.434 33.443 55.704C33.442 55.972 33.659 56.189 33.929 56.189Z" fill="white"/>
<path d="M28.4499 56.189C28.7179 56.189 28.9349 55.972 28.9349 55.704C28.9349 55.434 28.7169 55.217 28.4499 55.217C28.1819 55.217 27.9639 55.434 27.9639 55.704C27.9639 55.972 28.1829 56.189 28.4499 56.189Z" fill="white"/>
<path d="M22.9719 56.189C23.2419 56.189 23.4559 55.972 23.4559 55.704C23.4559 55.434 23.2409 55.217 22.9719 55.217C22.7019 55.217 22.4859 55.434 22.4859 55.704C22.4849 55.972 22.7019 56.189 22.9719 56.189Z" fill="white"/>
<path d="M17.492 56.189C17.761 56.189 17.979 55.972 17.979 55.704C17.979 55.434 17.76 55.217 17.492 55.217C17.223 55.217 17.007 55.434 17.007 55.704C17.007 55.972 17.224 56.189 17.492 56.189Z" fill="white"/>
<path d="M12.014 56.189C12.281 56.189 12.501 55.972 12.501 55.704C12.501 55.434 12.28 55.217 12.014 55.217C11.745 55.217 11.529 55.434 11.529 55.704C11.528 55.972 11.745 56.189 12.014 56.189Z" fill="white"/>
<path d="M6.53402 56.189C6.80402 56.189 7.02002 55.972 7.02002 55.704C7.02002 55.434 6.80302 55.217 6.53402 55.217C6.26602 55.217 6.04902 55.434 6.04902 55.704C6.04902 55.972 6.26702 56.189 6.53402 56.189Z" fill="white"/>
<path d="M1.05497 56.189C1.32397 56.189 1.54297 55.972 1.54297 55.704C1.54297 55.434 1.32297 55.217 1.05497 55.217C0.78797 55.217 0.570969 55.434 0.570969 55.704C0.569969 55.972 0.78797 56.189 1.05497 56.189Z" fill="white"/>
<path d="M72.281 50.71C72.55 50.71 72.766 50.493 72.766 50.224C72.766 49.956 72.549 49.738 72.281 49.738C72.013 49.738 71.794 49.956 71.794 50.224C71.794 50.492 72.013 50.71 72.281 50.71Z" fill="white"/>
<path d="M66.802 50.71C67.072 50.71 67.288 50.493 67.288 50.224C67.288 49.956 67.071 49.738 66.802 49.738C66.534 49.738 66.316 49.956 66.316 50.224C66.315 50.492 66.534 50.71 66.802 50.71Z" fill="white"/>
<path d="M61.323 50.71C61.591 50.71 61.809 50.493 61.809 50.224C61.809 49.956 61.59 49.738 61.323 49.738C61.054 49.738 60.837 49.956 60.837 50.224C60.837 50.492 61.054 50.71 61.323 50.71Z" fill="white"/>
<path d="M55.8449 50.71C56.1139 50.71 56.3309 50.493 56.3309 50.224C56.3309 49.956 56.1129 49.738 55.8449 49.738C55.5759 49.738 55.3579 49.956 55.3579 50.224C55.3569 50.492 55.5759 50.71 55.8449 50.71Z" fill="white"/>
<path d="M50.366 50.71C50.634 50.71 50.85 50.493 50.85 50.224C50.85 49.956 50.633 49.738 50.366 49.738C50.095 49.738 49.878 49.956 49.878 50.224C49.878 50.492 50.096 50.71 50.366 50.71Z" fill="white"/>
<path d="M44.8869 50.71C45.1549 50.71 45.3719 50.493 45.3719 50.226C45.3719 49.957 45.1539 49.738 44.8869 49.738C44.6169 49.738 44.3999 49.957 44.3999 50.226C44.3989 50.492 44.6169 50.71 44.8869 50.71Z" fill="white"/>
<path d="M39.4069 50.71C39.6759 50.71 39.8929 50.493 39.8929 50.226C39.8929 49.957 39.6749 49.738 39.4069 49.738C39.1389 49.738 38.9229 49.957 38.9229 50.226C38.9229 50.492 39.1399 50.71 39.4069 50.71Z" fill="white"/>
<path d="M33.929 50.71C34.197 50.71 34.415 50.493 34.415 50.226C34.415 49.957 34.196 49.738 33.929 49.738C33.659 49.738 33.443 49.957 33.443 50.226C33.442 50.492 33.659 50.71 33.929 50.71Z" fill="white"/>
<path d="M28.4499 50.71C28.7179 50.71 28.9349 50.493 28.9349 50.226C28.9349 49.957 28.7169 49.738 28.4499 49.738C28.1819 49.738 27.9639 49.957 27.9639 50.226C27.9639 50.492 28.1829 50.71 28.4499 50.71Z" fill="white"/>
<path d="M22.9719 50.71C23.2419 50.71 23.4559 50.493 23.4559 50.226C23.4559 49.957 23.2409 49.738 22.9719 49.738C22.7019 49.738 22.4859 49.957 22.4859 50.226C22.4849 50.492 22.7019 50.71 22.9719 50.71Z" fill="white"/>
<path d="M17.492 50.71C17.761 50.71 17.979 50.493 17.979 50.226C17.979 49.957 17.76 49.738 17.492 49.738C17.223 49.738 17.007 49.957 17.007 50.226C17.007 50.492 17.224 50.71 17.492 50.71Z" fill="white"/>
<path d="M12.014 50.71C12.281 50.71 12.501 50.493 12.501 50.226C12.501 49.957 12.28 49.738 12.014 49.738C11.745 49.738 11.529 49.957 11.529 50.226C11.528 50.492 11.745 50.71 12.014 50.71Z" fill="white"/>
<path d="M6.53402 50.71C6.80402 50.71 7.02002 50.493 7.02002 50.226C7.02002 49.957 6.80302 49.738 6.53402 49.738C6.26602 49.738 6.04902 49.957 6.04902 50.226C6.04902 50.492 6.26702 50.71 6.53402 50.71Z" fill="white"/>
<path d="M1.05497 50.71C1.32397 50.71 1.54297 50.493 1.54297 50.226C1.54297 49.957 1.32297 49.738 1.05497 49.738C0.78797 49.738 0.570969 49.957 0.570969 50.226C0.569969 50.492 0.78797 50.71 1.05497 50.71Z" fill="white"/>
<path d="M72.281 45.231C72.55 45.231 72.766 45.013 72.766 44.744C72.766 44.476 72.549 44.259 72.281 44.259C72.013 44.259 71.794 44.477 71.794 44.744C71.794 45.013 72.013 45.231 72.281 45.231Z" fill="white"/>
<path d="M66.802 45.231C67.072 45.231 67.288 45.013 67.288 44.744C67.288 44.476 67.071 44.259 66.802 44.259C66.534 44.259 66.316 44.477 66.316 44.744C66.315 45.013 66.534 45.231 66.802 45.231Z" fill="white"/>
<path d="M61.323 45.231C61.591 45.231 61.809 45.013 61.809 44.744C61.809 44.476 61.59 44.259 61.323 44.259C61.054 44.259 60.837 44.477 60.837 44.744C60.837 45.013 61.054 45.231 61.323 45.231Z" fill="white"/>
<path d="M55.8449 45.231C56.1139 45.231 56.3309 45.013 56.3309 44.744C56.3309 44.476 56.1129 44.259 55.8449 44.259C55.5759 44.259 55.3579 44.477 55.3579 44.744C55.3569 45.013 55.5759 45.231 55.8449 45.231Z" fill="white"/>
<path d="M50.366 45.231C50.634 45.231 50.85 45.013 50.85 44.744C50.85 44.476 50.633 44.259 50.366 44.259C50.095 44.259 49.878 44.477 49.878 44.744C49.878 45.013 50.096 45.231 50.366 45.231Z" fill="white"/>
<path d="M44.8869 45.231C45.1549 45.231 45.3719 45.013 45.3719 44.746C45.3719 44.478 45.1539 44.259 44.8869 44.259C44.6169 44.259 44.3999 44.478 44.3999 44.746C44.3989 45.013 44.6169 45.231 44.8869 45.231Z" fill="white"/>
<path d="M39.4069 45.231C39.6759 45.231 39.8929 45.013 39.8929 44.746C39.8929 44.478 39.6749 44.259 39.4069 44.259C39.1389 44.259 38.9229 44.478 38.9229 44.746C38.9229 45.013 39.1399 45.231 39.4069 45.231Z" fill="white"/>
<path d="M33.929 45.231C34.197 45.231 34.415 45.013 34.415 44.746C34.415 44.478 34.196 44.259 33.929 44.259C33.659 44.259 33.443 44.478 33.443 44.746C33.442 45.013 33.659 45.231 33.929 45.231Z" fill="white"/>
<path d="M28.4499 45.231C28.7179 45.231 28.9349 45.013 28.9349 44.746C28.9349 44.478 28.7169 44.259 28.4499 44.259C28.1819 44.259 27.9639 44.478 27.9639 44.746C27.9639 45.013 28.1829 45.231 28.4499 45.231Z" fill="white"/>
<path d="M22.9719 45.231C23.2419 45.231 23.4559 45.013 23.4559 44.746C23.4559 44.478 23.2409 44.259 22.9719 44.259C22.7019 44.259 22.4859 44.478 22.4859 44.746C22.4849 45.013 22.7019 45.231 22.9719 45.231Z" fill="white"/>
<path d="M17.492 45.231C17.761 45.231 17.979 45.013 17.979 44.746C17.979 44.478 17.76 44.259 17.492 44.259C17.223 44.259 17.007 44.478 17.007 44.746C17.007 45.013 17.224 45.231 17.492 45.231Z" fill="white"/>
<path d="M12.014 45.231C12.281 45.231 12.501 45.013 12.501 44.746C12.501 44.478 12.28 44.259 12.014 44.259C11.745 44.259 11.529 44.478 11.529 44.746C11.528 45.013 11.745 45.231 12.014 45.231Z" fill="white"/>
<path d="M6.53402 45.231C6.80402 45.231 7.02002 45.013 7.02002 44.746C7.02002 44.478 6.80302 44.259 6.53402 44.259C6.26602 44.259 6.04902 44.478 6.04902 44.746C6.04902 45.013 6.26702 45.231 6.53402 45.231Z" fill="white"/>
<path d="M1.05497 45.231C1.32397 45.231 1.54297 45.013 1.54297 44.746C1.54297 44.478 1.32297 44.259 1.05497 44.259C0.78797 44.259 0.570969 44.478 0.570969 44.746C0.569969 45.013 0.78797 45.231 1.05497 45.231Z" fill="white"/>
<path d="M72.281 39.752C72.55 39.752 72.766 39.5351 72.766 39.2661C72.766 38.9981 72.549 38.7791 72.281 38.7791C72.013 38.7791 71.794 38.9981 71.794 39.2661C71.794 39.5351 72.013 39.752 72.281 39.752Z" fill="white"/>
<path d="M66.802 39.752C67.072 39.752 67.288 39.535 67.288 39.266C67.288 38.998 67.071 38.779 66.802 38.779C66.534 38.779 66.316 38.998 66.316 39.266C66.315 39.535 66.534 39.752 66.802 39.752Z" fill="white"/>
<path d="M61.323 39.752C61.591 39.752 61.809 39.535 61.809 39.266C61.809 38.998 61.59 38.779 61.323 38.779C61.054 38.779 60.837 38.998 60.837 39.266C60.837 39.535 61.054 39.752 61.323 39.752Z" fill="white"/>
<path d="M55.8449 39.752C56.1139 39.752 56.3309 39.535 56.3309 39.266C56.3309 38.998 56.1129 38.779 55.8449 38.779C55.5759 38.779 55.3579 38.998 55.3579 39.266C55.3569 39.535 55.5759 39.752 55.8449 39.752Z" fill="white"/>
<path d="M50.366 39.752C50.634 39.752 50.85 39.535 50.85 39.266C50.85 38.998 50.633 38.779 50.366 38.779C50.095 38.779 49.878 38.998 49.878 39.266C49.878 39.535 50.096 39.752 50.366 39.752Z" fill="white"/>
<path d="M44.8869 39.752C45.1549 39.752 45.3719 39.535 45.3719 39.266C45.3719 38.998 45.1539 38.779 44.8869 38.779C44.6169 38.779 44.3999 38.999 44.3999 39.266C44.3989 39.535 44.6169 39.752 44.8869 39.752Z" fill="white"/>
<path d="M39.4069 39.752C39.6759 39.752 39.8929 39.535 39.8929 39.266C39.8929 38.998 39.6749 38.779 39.4069 38.779C39.1389 38.779 38.9229 38.999 38.9229 39.266C38.9229 39.535 39.1399 39.752 39.4069 39.752Z" fill="white"/>
<path d="M33.929 39.752C34.197 39.752 34.415 39.535 34.415 39.266C34.415 38.998 34.196 38.779 33.929 38.779C33.659 38.779 33.443 38.999 33.443 39.266C33.442 39.535 33.659 39.752 33.929 39.752Z" fill="white"/>
<path d="M28.4499 39.752C28.7179 39.752 28.9349 39.535 28.9349 39.266C28.9349 38.998 28.7169 38.779 28.4499 38.779C28.1819 38.779 27.9639 38.999 27.9639 39.266C27.9639 39.535 28.1829 39.752 28.4499 39.752Z" fill="white"/>
<path d="M22.9719 39.752C23.2419 39.752 23.4559 39.535 23.4559 39.266C23.4559 38.998 23.2409 38.779 22.9719 38.779C22.7019 38.779 22.4859 38.999 22.4859 39.266C22.4849 39.535 22.7019 39.752 22.9719 39.752Z" fill="white"/>
<path d="M17.492 39.752C17.761 39.752 17.979 39.535 17.979 39.266C17.979 38.998 17.76 38.779 17.492 38.779C17.223 38.779 17.007 38.999 17.007 39.266C17.007 39.535 17.224 39.752 17.492 39.752Z" fill="white"/>
<path d="M12.014 39.752C12.281 39.752 12.501 39.535 12.501 39.266C12.501 38.998 12.28 38.779 12.014 38.779C11.745 38.779 11.529 38.999 11.529 39.266C11.528 39.535 11.745 39.752 12.014 39.752Z" fill="white"/>
<path d="M6.53402 39.752C6.80402 39.752 7.02002 39.535 7.02002 39.266C7.02002 38.998 6.80302 38.779 6.53402 38.779C6.26602 38.779 6.04902 38.999 6.04902 39.266C6.04902 39.535 6.26702 39.752 6.53402 39.752Z" fill="white"/>
<path d="M1.05497 39.752C1.32397 39.752 1.54297 39.535 1.54297 39.266C1.54297 38.998 1.32297 38.779 1.05497 38.779C0.78797 38.779 0.570969 38.999 0.570969 39.266C0.569969 39.535 0.78797 39.752 1.05497 39.752Z" fill="white"/>
<path d="M72.281 34.274C72.55 34.274 72.766 34.056 72.766 33.787C72.766 33.519 72.549 33.301 72.281 33.301C72.013 33.301 71.794 33.519 71.794 33.787C71.794 34.055 72.013 34.274 72.281 34.274Z" fill="white"/>
<path d="M66.802 34.274C67.072 34.274 67.288 34.056 67.288 33.787C67.288 33.519 67.071 33.301 66.802 33.301C66.534 33.301 66.316 33.519 66.316 33.787C66.315 34.055 66.534 34.274 66.802 34.274Z" fill="white"/>
<path d="M61.323 34.274C61.591 34.274 61.809 34.056 61.809 33.787C61.809 33.519 61.59 33.301 61.323 33.301C61.054 33.301 60.837 33.519 60.837 33.787C60.837 34.055 61.054 34.274 61.323 34.274Z" fill="white"/>
<path d="M55.8449 34.274C56.1139 34.274 56.3309 34.056 56.3309 33.787C56.3309 33.519 56.1129 33.301 55.8449 33.301C55.5759 33.301 55.3579 33.519 55.3579 33.787C55.3569 34.055 55.5759 34.274 55.8449 34.274Z" fill="white"/>
<path d="M50.366 34.274C50.634 34.274 50.85 34.056 50.85 33.787C50.85 33.519 50.633 33.301 50.366 33.301C50.095 33.301 49.878 33.519 49.878 33.787C49.878 34.055 50.096 34.274 50.366 34.274Z" fill="white"/>
<path d="M44.8869 34.274C45.1549 34.274 45.3719 34.056 45.3719 33.788C45.3719 33.52 45.1539 33.302 44.8869 33.302C44.6169 33.302 44.3999 33.52 44.3999 33.788C44.3989 34.056 44.6169 34.274 44.8869 34.274Z" fill="white"/>
<path d="M39.4069 34.274C39.6759 34.274 39.8929 34.056 39.8929 33.788C39.8929 33.52 39.6749 33.302 39.4069 33.302C39.1389 33.302 38.9229 33.52 38.9229 33.788C38.9229 34.056 39.1399 34.274 39.4069 34.274Z" fill="white"/>
<path d="M33.929 34.274C34.197 34.274 34.415 34.056 34.415 33.788C34.415 33.52 34.196 33.302 33.929 33.302C33.659 33.302 33.443 33.52 33.443 33.788C33.442 34.056 33.659 34.274 33.929 34.274Z" fill="white"/>
<path d="M28.4499 34.274C28.7179 34.274 28.9349 34.056 28.9349 33.788C28.9349 33.52 28.7169 33.302 28.4499 33.302C28.1819 33.302 27.9639 33.52 27.9639 33.788C27.9639 34.056 28.1829 34.274 28.4499 34.274Z" fill="white"/>
<path d="M22.9719 34.274C23.2419 34.274 23.4559 34.056 23.4559 33.788C23.4559 33.52 23.2409 33.302 22.9719 33.302C22.7019 33.302 22.4859 33.52 22.4859 33.788C22.4849 34.056 22.7019 34.274 22.9719 34.274Z" fill="white"/>
<path d="M17.492 34.274C17.761 34.274 17.979 34.056 17.979 33.788C17.979 33.52 17.76 33.302 17.492 33.302C17.223 33.302 17.007 33.52 17.007 33.788C17.007 34.056 17.224 34.274 17.492 34.274Z" fill="white"/>
<path d="M12.014 34.274C12.281 34.274 12.501 34.056 12.501 33.788C12.501 33.52 12.28 33.302 12.014 33.302C11.745 33.302 11.529 33.52 11.529 33.788C11.528 34.056 11.745 34.274 12.014 34.274Z" fill="white"/>
<path d="M6.53402 34.274C6.80402 34.274 7.02002 34.056 7.02002 33.788C7.02002 33.52 6.80302 33.302 6.53402 33.302C6.26602 33.302 6.04902 33.52 6.04902 33.788C6.04902 34.056 6.26702 34.274 6.53402 34.274Z" fill="white"/>
<path d="M1.05497 34.274C1.32397 34.274 1.54297 34.056 1.54297 33.788C1.54297 33.52 1.32297 33.302 1.05497 33.302C0.78797 33.302 0.570969 33.52 0.570969 33.788C0.569969 34.056 0.78797 34.274 1.05497 34.274Z" fill="white"/>
<path d="M72.281 28.795C72.55 28.795 72.766 28.578 72.766 28.309C72.766 28.041 72.549 27.823 72.281 27.823C72.013 27.823 71.794 28.041 71.794 28.309C71.794 28.577 72.013 28.795 72.281 28.795Z" fill="white"/>
<path d="M66.802 28.795C67.072 28.795 67.288 28.578 67.288 28.309C67.288 28.041 67.071 27.823 66.802 27.823C66.534 27.823 66.316 28.041 66.316 28.309C66.315 28.577 66.534 28.795 66.802 28.795Z" fill="white"/>
<path d="M61.323 28.795C61.591 28.795 61.809 28.578 61.809 28.309C61.809 28.041 61.59 27.823 61.323 27.823C61.054 27.823 60.837 28.041 60.837 28.309C60.837 28.577 61.054 28.795 61.323 28.795Z" fill="white"/>
<path d="M55.8449 28.795C56.1139 28.795 56.3309 28.578 56.3309 28.309C56.3309 28.041 56.1129 27.823 55.8449 27.823C55.5759 27.823 55.3579 28.041 55.3579 28.309C55.3569 28.577 55.5759 28.795 55.8449 28.795Z" fill="white"/>
<path d="M50.366 28.795C50.634 28.795 50.85 28.578 50.85 28.309C50.85 28.041 50.633 27.823 50.366 27.823C50.095 27.823 49.878 28.041 49.878 28.309C49.878 28.577 50.096 28.795 50.366 28.795Z" fill="white"/>
<path d="M44.8869 28.795C45.1549 28.795 45.3719 28.578 45.3719 28.309C45.3719 28.041 45.1539 27.823 44.8869 27.823C44.6169 27.823 44.3999 28.041 44.3999 28.309C44.3989 28.577 44.6169 28.795 44.8869 28.795Z" fill="white"/>
<path d="M39.4069 28.795C39.6759 28.795 39.8929 28.578 39.8929 28.309C39.8929 28.041 39.6749 27.823 39.4069 27.823C39.1389 27.823 38.9229 28.041 38.9229 28.309C38.9229 28.577 39.1399 28.795 39.4069 28.795Z" fill="white"/>
<path d="M33.929 28.795C34.197 28.795 34.415 28.578 34.415 28.309C34.415 28.041 34.196 27.823 33.929 27.823C33.659 27.823 33.443 28.041 33.443 28.309C33.442 28.577 33.659 28.795 33.929 28.795Z" fill="white"/>
<path d="M28.4499 28.795C28.7179 28.795 28.9349 28.578 28.9349 28.309C28.9349 28.041 28.7169 27.823 28.4499 27.823C28.1819 27.823 27.9639 28.041 27.9639 28.309C27.9639 28.577 28.1829 28.795 28.4499 28.795Z" fill="white"/>
<path d="M22.9719 28.795C23.2419 28.795 23.4559 28.578 23.4559 28.309C23.4559 28.041 23.2409 27.823 22.9719 27.823C22.7019 27.823 22.4859 28.041 22.4859 28.309C22.4849 28.577 22.7019 28.795 22.9719 28.795Z" fill="white"/>
<path d="M17.492 28.795C17.761 28.795 17.979 28.578 17.979 28.309C17.979 28.041 17.76 27.823 17.492 27.823C17.223 27.823 17.007 28.041 17.007 28.309C17.007 28.577 17.224 28.795 17.492 28.795Z" fill="white"/>
<path d="M12.014 28.795C12.281 28.795 12.501 28.578 12.501 28.309C12.501 28.041 12.28 27.823 12.014 27.823C11.745 27.823 11.529 28.041 11.529 28.309C11.528 28.577 11.745 28.795 12.014 28.795Z" fill="white"/>
<path d="M6.53402 28.795C6.80402 28.795 7.02002 28.578 7.02002 28.309C7.02002 28.041 6.80302 27.823 6.53402 27.823C6.26602 27.823 6.04902 28.041 6.04902 28.309C6.04902 28.577 6.26702 28.795 6.53402 28.795Z" fill="white"/>
<path d="M1.05497 28.795C1.32397 28.795 1.54297 28.578 1.54297 28.309C1.54297 28.041 1.32297 27.823 1.05497 27.823C0.78797 27.823 0.570969 28.041 0.570969 28.309C0.569969 28.577 0.78797 28.795 1.05497 28.795Z" fill="white"/>
<path d="M72.281 23.316C72.55 23.316 72.766 23.1 72.766 22.831C72.766 22.562 72.549 22.345 72.281 22.345C72.013 22.345 71.794 22.562 71.794 22.831C71.794 23.1 72.013 23.316 72.281 23.316Z" fill="white"/>
<path d="M66.802 23.316C67.072 23.316 67.288 23.1 67.288 22.831C67.288 22.562 67.071 22.345 66.802 22.345C66.534 22.345 66.316 22.562 66.316 22.831C66.315 23.1 66.534 23.316 66.802 23.316Z" fill="white"/>
<path d="M61.323 23.316C61.591 23.316 61.809 23.1 61.809 22.831C61.809 22.562 61.59 22.345 61.323 22.345C61.054 22.345 60.837 22.562 60.837 22.831C60.837 23.1 61.054 23.316 61.323 23.316Z" fill="white"/>
<path d="M55.8449 23.316C56.1139 23.316 56.3309 23.1 56.3309 22.831C56.3309 22.562 56.1129 22.345 55.8449 22.345C55.5759 22.345 55.3579 22.562 55.3579 22.831C55.3569 23.1 55.5759 23.316 55.8449 23.316Z" fill="white"/>
<path d="M50.366 23.316C50.634 23.316 50.85 23.1 50.85 22.831C50.85 22.562 50.633 22.345 50.366 22.345C50.095 22.345 49.878 22.562 49.878 22.831C49.878 23.1 50.096 23.316 50.366 23.316Z" fill="white"/>
<path d="M44.8869 23.316C45.1549 23.316 45.3719 23.1 45.3719 22.831C45.3719 22.562 45.1539 22.345 44.8869 22.345C44.6169 22.345 44.3999 22.562 44.3999 22.831C44.3989 23.1 44.6169 23.316 44.8869 23.316Z" fill="white"/>
<path d="M39.4069 23.316C39.6759 23.316 39.8929 23.1 39.8929 22.831C39.8929 22.562 39.6749 22.345 39.4069 22.345C39.1389 22.345 38.9229 22.562 38.9229 22.831C38.9229 23.1 39.1399 23.316 39.4069 23.316Z" fill="white"/>
<path d="M33.929 23.316C34.197 23.316 34.415 23.1 34.415 22.831C34.415 22.562 34.196 22.345 33.929 22.345C33.659 22.345 33.443 22.562 33.443 22.831C33.442 23.1 33.659 23.316 33.929 23.316Z" fill="white"/>
<path d="M28.4499 23.316C28.7179 23.316 28.9349 23.1 28.9349 22.831C28.9349 22.562 28.7169 22.345 28.4499 22.345C28.1819 22.345 27.9639 22.562 27.9639 22.831C27.9639 23.1 28.1829 23.316 28.4499 23.316Z" fill="white"/>
<path d="M22.9719 23.316C23.2419 23.316 23.4559 23.1 23.4559 22.831C23.4559 22.562 23.2409 22.345 22.9719 22.345C22.7019 22.345 22.4859 22.562 22.4859 22.831C22.4849 23.1 22.7019 23.316 22.9719 23.316Z" fill="white"/>
<path d="M17.492 23.316C17.761 23.316 17.979 23.1 17.979 22.831C17.979 22.562 17.76 22.345 17.492 22.345C17.223 22.345 17.007 22.562 17.007 22.831C17.007 23.1 17.224 23.316 17.492 23.316Z" fill="white"/>
<path d="M12.014 23.316C12.281 23.316 12.501 23.1 12.501 22.831C12.501 22.562 12.28 22.345 12.014 22.345C11.745 22.345 11.529 22.562 11.529 22.831C11.528 23.1 11.745 23.316 12.014 23.316Z" fill="white"/>
<path d="M6.53402 23.316C6.80402 23.316 7.02002 23.1 7.02002 22.831C7.02002 22.562 6.80302 22.345 6.53402 22.345C6.26602 22.345 6.04902 22.562 6.04902 22.831C6.04902 23.1 6.26702 23.316 6.53402 23.316Z" fill="white"/>
<path d="M1.05497 23.316C1.32397 23.316 1.54297 23.1 1.54297 22.831C1.54297 22.562 1.32297 22.345 1.05497 22.345C0.78797 22.345 0.570969 22.562 0.570969 22.831C0.569969 23.1 0.78797 23.316 1.05497 23.316Z" fill="white"/>
<path d="M72.281 17.837C72.55 17.837 72.766 17.62 72.766 17.352C72.766 17.084 72.549 16.866 72.281 16.866C72.013 16.866 71.794 17.084 71.794 17.352C71.794 17.62 72.013 17.837 72.281 17.837Z" fill="white"/>
<path d="M66.802 17.837C67.072 17.837 67.288 17.62 67.288 17.352C67.288 17.084 67.071 16.866 66.802 16.866C66.534 16.866 66.316 17.084 66.316 17.352C66.315 17.62 66.534 17.837 66.802 17.837Z" fill="white"/>
<path d="M61.323 17.837C61.591 17.837 61.809 17.62 61.809 17.352C61.809 17.084 61.59 16.866 61.323 16.866C61.054 16.866 60.837 17.084 60.837 17.352C60.837 17.62 61.054 17.837 61.323 17.837Z" fill="white"/>
<path d="M55.8449 17.837C56.1139 17.837 56.3309 17.62 56.3309 17.352C56.3309 17.084 56.1129 16.866 55.8449 16.866C55.5759 16.866 55.3579 17.084 55.3579 17.352C55.3569 17.62 55.5759 17.837 55.8449 17.837Z" fill="white"/>
<path d="M50.366 17.837C50.634 17.837 50.85 17.62 50.85 17.352C50.85 17.084 50.633 16.866 50.366 16.866C50.095 16.866 49.878 17.084 49.878 17.352C49.878 17.62 50.096 17.837 50.366 17.837Z" fill="white"/>
<path d="M44.8869 17.837C45.1549 17.837 45.3719 17.62 45.3719 17.352C45.3719 17.084 45.1539 16.866 44.8869 16.866C44.6169 16.866 44.3999 17.084 44.3999 17.352C44.3989 17.62 44.6169 17.837 44.8869 17.837Z" fill="white"/>
<path d="M39.4069 17.837C39.6759 17.837 39.8929 17.62 39.8929 17.352C39.8929 17.084 39.6749 16.866 39.4069 16.866C39.1389 16.866 38.9229 17.084 38.9229 17.352C38.9229 17.62 39.1399 17.837 39.4069 17.837Z" fill="white"/>
<path d="M33.929 17.837C34.197 17.837 34.415 17.62 34.415 17.352C34.415 17.084 34.196 16.866 33.929 16.866C33.659 16.866 33.443 17.084 33.443 17.352C33.442 17.62 33.659 17.837 33.929 17.837Z" fill="white"/>
<path d="M28.4499 17.837C28.7179 17.837 28.9349 17.62 28.9349 17.352C28.9349 17.084 28.7169 16.866 28.4499 16.866C28.1819 16.866 27.9639 17.084 27.9639 17.352C27.9639 17.62 28.1829 17.837 28.4499 17.837Z" fill="white"/>
<path d="M22.9719 17.837C23.2419 17.837 23.4559 17.62 23.4559 17.352C23.4559 17.084 23.2409 16.866 22.9719 16.866C22.7019 16.866 22.4859 17.084 22.4859 17.352C22.4849 17.62 22.7019 17.837 22.9719 17.837Z" fill="white"/>
<path d="M17.492 17.837C17.761 17.837 17.979 17.62 17.979 17.352C17.979 17.084 17.76 16.866 17.492 16.866C17.223 16.866 17.007 17.084 17.007 17.352C17.007 17.62 17.224 17.837 17.492 17.837Z" fill="white"/>
<path d="M12.014 17.837C12.281 17.837 12.501 17.62 12.501 17.352C12.501 17.084 12.28 16.866 12.014 16.866C11.745 16.866 11.529 17.084 11.529 17.352C11.528 17.62 11.745 17.837 12.014 17.837Z" fill="white"/>
<path d="M6.53402 17.837C6.80402 17.837 7.02002 17.62 7.02002 17.352C7.02002 17.084 6.80302 16.866 6.53402 16.866C6.26602 16.866 6.04902 17.084 6.04902 17.352C6.04902 17.62 6.26702 17.837 6.53402 17.837Z" fill="white"/>
<path d="M1.05497 17.837C1.32397 17.837 1.54297 17.62 1.54297 17.352C1.54297 17.084 1.32297 16.866 1.05497 16.866C0.78797 16.866 0.570969 17.084 0.570969 17.352C0.569969 17.62 0.78797 17.837 1.05497 17.837Z" fill="white"/>
<path d="M72.281 12.357C72.55 12.357 72.766 12.142 72.766 11.873C72.766 11.604 72.549 11.386 72.281 11.386C72.013 11.386 71.794 11.604 71.794 11.873C71.794 12.142 72.013 12.357 72.281 12.357Z" fill="white"/>
<path d="M66.802 12.357C67.072 12.357 67.288 12.142 67.288 11.873C67.288 11.604 67.071 11.386 66.802 11.386C66.534 11.386 66.316 11.604 66.316 11.873C66.315 12.142 66.534 12.357 66.802 12.357Z" fill="white"/>
<path d="M61.323 12.357C61.591 12.357 61.809 12.142 61.809 11.873C61.809 11.604 61.59 11.386 61.323 11.386C61.054 11.386 60.837 11.604 60.837 11.873C60.837 12.142 61.054 12.357 61.323 12.357Z" fill="white"/>
<path d="M55.8449 12.357C56.1139 12.357 56.3309 12.142 56.3309 11.873C56.3309 11.604 56.1129 11.386 55.8449 11.386C55.5759 11.386 55.3579 11.604 55.3579 11.873C55.3569 12.142 55.5759 12.357 55.8449 12.357Z" fill="white"/>
<path d="M50.366 12.357C50.634 12.357 50.85 12.142 50.85 11.873C50.85 11.604 50.633 11.386 50.366 11.386C50.095 11.386 49.878 11.604 49.878 11.873C49.878 12.142 50.096 12.357 50.366 12.357Z" fill="white"/>
<path d="M44.8869 12.357C45.1549 12.357 45.3719 12.142 45.3719 11.873C45.3719 11.604 45.1539 11.386 44.8869 11.386C44.6169 11.386 44.3999 11.604 44.3999 11.873C44.3989 12.142 44.6169 12.357 44.8869 12.357Z" fill="white"/>
<path d="M39.4069 12.357C39.6759 12.357 39.8929 12.142 39.8929 11.873C39.8929 11.604 39.6749 11.386 39.4069 11.386C39.1389 11.386 38.9229 11.604 38.9229 11.873C38.9229 12.142 39.1399 12.357 39.4069 12.357Z" fill="white"/>
<path d="M33.929 12.357C34.197 12.357 34.415 12.142 34.415 11.873C34.415 11.604 34.196 11.386 33.929 11.386C33.659 11.386 33.443 11.604 33.443 11.873C33.442 12.142 33.659 12.357 33.929 12.357Z" fill="white"/>
<path d="M28.4499 12.357C28.7179 12.357 28.9349 12.142 28.9349 11.873C28.9349 11.604 28.7169 11.386 28.4499 11.386C28.1819 11.386 27.9639 11.604 27.9639 11.873C27.9639 12.142 28.1829 12.357 28.4499 12.357Z" fill="white"/>
<path d="M22.9719 12.357C23.2419 12.357 23.4559 12.142 23.4559 11.873C23.4559 11.604 23.2409 11.386 22.9719 11.386C22.7019 11.386 22.4859 11.604 22.4859 11.873C22.4849 12.142 22.7019 12.357 22.9719 12.357Z" fill="white"/>
<path d="M17.492 12.357C17.761 12.357 17.979 12.142 17.979 11.873C17.979 11.604 17.76 11.386 17.492 11.386C17.223 11.386 17.007 11.604 17.007 11.873C17.007 12.142 17.224 12.357 17.492 12.357Z" fill="white"/>
<path d="M12.014 12.357C12.281 12.357 12.501 12.142 12.501 11.873C12.501 11.604 12.28 11.386 12.014 11.386C11.745 11.386 11.529 11.604 11.529 11.873C11.528 12.142 11.745 12.357 12.014 12.357Z" fill="white"/>
<path d="M6.53402 12.357C6.80402 12.357 7.02002 12.142 7.02002 11.873C7.02002 11.604 6.80302 11.386 6.53402 11.386C6.26602 11.386 6.04902 11.604 6.04902 11.873C6.04902 12.142 6.26702 12.357 6.53402 12.357Z" fill="white"/>
<path d="M1.05497 12.357C1.32397 12.357 1.54297 12.142 1.54297 11.873C1.54297 11.604 1.32297 11.386 1.05497 11.386C0.78797 11.386 0.570969 11.604 0.570969 11.873C0.569969 12.142 0.78797 12.357 1.05497 12.357Z" fill="white"/>
<path d="M72.281 6.87904C72.55 6.87904 72.766 6.66204 72.766 6.39304C72.766 6.12504 72.549 5.90704 72.281 5.90704C72.013 5.90704 71.794 6.12504 71.794 6.39304C71.794 6.66204 72.013 6.87904 72.281 6.87904Z" fill="white"/>
<path d="M66.802 6.87904C67.072 6.87904 67.288 6.66204 67.288 6.39304C67.288 6.12504 67.071 5.90704 66.802 5.90704C66.534 5.90704 66.316 6.12504 66.316 6.39304C66.315 6.66204 66.534 6.87904 66.802 6.87904Z" fill="white"/>
<path d="M61.323 6.87904C61.591 6.87904 61.809 6.66204 61.809 6.39304C61.809 6.12504 61.59 5.90704 61.323 5.90704C61.054 5.90704 60.837 6.12504 60.837 6.39304C60.837 6.66204 61.054 6.87904 61.323 6.87904Z" fill="white"/>
<path d="M55.8449 6.87904C56.1139 6.87904 56.3309 6.66204 56.3309 6.39304C56.3309 6.12504 56.1129 5.90704 55.8449 5.90704C55.5759 5.90704 55.3579 6.12504 55.3579 6.39304C55.3569 6.66204 55.5759 6.87904 55.8449 6.87904Z" fill="white"/>
<path d="M50.366 6.87904C50.634 6.87904 50.85 6.66204 50.85 6.39304C50.85 6.12504 50.633 5.90704 50.366 5.90704C50.095 5.90704 49.878 6.12504 49.878 6.39304C49.878 6.66204 50.096 6.87904 50.366 6.87904Z" fill="white"/>
<path d="M44.8869 6.87904C45.1549 6.87904 45.3719 6.66204 45.3719 6.39304C45.3719 6.12504 45.1539 5.90704 44.8869 5.90704C44.6169 5.90704 44.3999 6.12504 44.3999 6.39304C44.3989 6.66204 44.6169 6.87904 44.8869 6.87904Z" fill="white"/>
<path d="M39.4069 6.87904C39.6759 6.87904 39.8929 6.66204 39.8929 6.39304C39.8929 6.12504 39.6749 5.90704 39.4069 5.90704C39.1389 5.90704 38.9229 6.12504 38.9229 6.39304C38.9229 6.66204 39.1399 6.87904 39.4069 6.87904Z" fill="white"/>
<path d="M33.929 6.87904C34.197 6.87904 34.415 6.66204 34.415 6.39304C34.415 6.12504 34.196 5.90704 33.929 5.90704C33.659 5.90704 33.443 6.12504 33.443 6.39304C33.442 6.66204 33.659 6.87904 33.929 6.87904Z" fill="white"/>
<path d="M28.4499 6.87904C28.7179 6.87904 28.9349 6.66204 28.9349 6.39304C28.9349 6.12504 28.7169 5.90704 28.4499 5.90704C28.1819 5.90704 27.9639 6.12504 27.9639 6.39304C27.9639 6.66204 28.1829 6.87904 28.4499 6.87904Z" fill="white"/>
<path d="M22.9719 6.87904C23.2419 6.87904 23.4559 6.66204 23.4559 6.39304C23.4559 6.12504 23.2409 5.90704 22.9719 5.90704C22.7019 5.90704 22.4859 6.12504 22.4859 6.39304C22.4849 6.66204 22.7019 6.87904 22.9719 6.87904Z" fill="white"/>
<path d="M17.492 6.87904C17.761 6.87904 17.979 6.66204 17.979 6.39304C17.979 6.12504 17.76 5.90704 17.492 5.90704C17.223 5.90704 17.007 6.12504 17.007 6.39304C17.007 6.66204 17.224 6.87904 17.492 6.87904Z" fill="white"/>
<path d="M12.014 6.87904C12.281 6.87904 12.501 6.66204 12.501 6.39304C12.501 6.12504 12.28 5.90704 12.014 5.90704C11.745 5.90704 11.529 6.12504 11.529 6.39304C11.528 6.66204 11.745 6.87904 12.014 6.87904Z" fill="white"/>
<path d="M6.53402 6.87904C6.80402 6.87904 7.02002 6.66204 7.02002 6.39304C7.02002 6.12504 6.80302 5.90704 6.53402 5.90704C6.26602 5.90704 6.04902 6.12504 6.04902 6.39304C6.04902 6.66204 6.26702 6.87904 6.53402 6.87904Z" fill="white"/>
<path d="M1.05497 6.87904C1.32397 6.87904 1.54297 6.66204 1.54297 6.39304C1.54297 6.12504 1.32297 5.90704 1.05497 5.90704C0.78797 5.90704 0.570969 6.12504 0.570969 6.39304C0.569969 6.66204 0.78797 6.87904 1.05497 6.87904Z" fill="white"/>
<path d="M72.281 1.40102C72.55 1.40102 72.766 1.18402 72.766 0.914017C72.766 0.647017 72.549 0.429016 72.281 0.429016C72.013 0.429016 71.794 0.647017 71.794 0.914017C71.794 1.18302 72.013 1.40102 72.281 1.40102Z" fill="white"/>
<path d="M66.802 1.40102C67.072 1.40102 67.288 1.18402 67.288 0.914017C67.288 0.647017 67.071 0.429016 66.802 0.429016C66.534 0.429016 66.316 0.647017 66.316 0.914017C66.315 1.18302 66.534 1.40102 66.802 1.40102Z" fill="white"/>
<path d="M61.323 1.40102C61.591 1.40102 61.809 1.18402 61.809 0.914017C61.809 0.647017 61.59 0.429016 61.323 0.429016C61.054 0.429016 60.837 0.647017 60.837 0.914017C60.837 1.18302 61.054 1.40102 61.323 1.40102Z" fill="white"/>
<path d="M55.8449 1.40102C56.1139 1.40102 56.3309 1.18402 56.3309 0.914017C56.3309 0.647017 56.1129 0.429016 55.8449 0.429016C55.5759 0.429016 55.3579 0.647017 55.3579 0.914017C55.3569 1.18302 55.5759 1.40102 55.8449 1.40102Z" fill="white"/>
<path d="M50.366 1.40102C50.634 1.40102 50.85 1.18402 50.85 0.914017C50.85 0.647017 50.633 0.429016 50.366 0.429016C50.095 0.429016 49.878 0.647017 49.878 0.914017C49.878 1.18302 50.096 1.40102 50.366 1.40102Z" fill="white"/>
<path d="M44.8869 1.40102C45.1549 1.40102 45.3719 1.18402 45.3719 0.914017C45.3719 0.647017 45.1539 0.429016 44.8869 0.429016C44.6169 0.429016 44.3999 0.647017 44.3999 0.914017C44.3989 1.18302 44.6169 1.40102 44.8869 1.40102Z" fill="white"/>
<path d="M39.4069 1.40102C39.6759 1.40102 39.8929 1.18402 39.8929 0.914017C39.8929 0.647017 39.6749 0.429016 39.4069 0.429016C39.1389 0.429016 38.9229 0.647017 38.9229 0.914017C38.9229 1.18302 39.1399 1.40102 39.4069 1.40102Z" fill="white"/>
<path d="M33.929 1.40102C34.197 1.40102 34.415 1.18402 34.415 0.914017C34.415 0.647017 34.196 0.429016 33.929 0.429016C33.659 0.429016 33.443 0.647017 33.443 0.914017C33.442 1.18302 33.659 1.40102 33.929 1.40102Z" fill="white"/>
<path d="M28.4499 1.40102C28.7179 1.40102 28.9349 1.18402 28.9349 0.914017C28.9349 0.647017 28.7169 0.429016 28.4499 0.429016C28.1819 0.429016 27.9639 0.647017 27.9639 0.914017C27.9639 1.18302 28.1829 1.40102 28.4499 1.40102Z" fill="white"/>
<path d="M22.9719 1.40102C23.2419 1.40102 23.4559 1.18402 23.4559 0.914017C23.4559 0.647017 23.2409 0.429016 22.9719 0.429016C22.7019 0.429016 22.4859 0.647017 22.4859 0.914017C22.4849 1.18302 22.7019 1.40102 22.9719 1.40102Z" fill="white"/>
<path d="M17.492 1.40102C17.761 1.40102 17.979 1.18402 17.979 0.914017C17.979 0.647017 17.76 0.429016 17.492 0.429016C17.223 0.429016 17.007 0.647017 17.007 0.914017C17.007 1.18302 17.224 1.40102 17.492 1.40102Z" fill="white"/>
<path d="M12.014 1.40102C12.281 1.40102 12.501 1.18402 12.501 0.914017C12.501 0.647017 12.28 0.429016 12.014 0.429016C11.745 0.429016 11.529 0.647017 11.529 0.914017C11.528 1.18302 11.745 1.40102 12.014 1.40102Z" fill="white"/>
<path d="M6.53402 1.40102C6.80402 1.40102 7.02002 1.18402 7.02002 0.914017C7.02002 0.647017 6.80302 0.429016 6.53402 0.429016C6.26602 0.429016 6.04902 0.647017 6.04902 0.914017C6.04902 1.18302 6.26702 1.40102 6.53402 1.40102Z" fill="white"/>
<path d="M1.05497 1.40102C1.32397 1.40102 1.54297 1.18402 1.54297 0.914017C1.54297 0.647017 1.32297 0.429016 1.05497 0.429016C0.78797 0.429016 0.570969 0.647017 0.570969 0.914017C0.569969 1.18302 0.78797 1.40102 1.05497 1.40102Z" fill="white"/>
</svg>
