<?xml version="1.0" standalone="no"?>
<!DOCTYPE svg PUBLIC "-//W3C//DTD SVG 20010904//EN"
 "http://www.w3.org/TR/2001/REC-SVG-20010904/DTD/svg10.dtd">
<svg version="1.0" xmlns="http://www.w3.org/2000/svg"
 width="700.000000pt" height="700.000000pt" viewBox="0 0 700.000000 700.000000"
 preserveAspectRatio="xMidYMid meet">
<metadata>
Created by potrace 1.14, written by Peter Selinger 2001-2017
</metadata>
<g transform="translate(0.000000,700.000000) scale(0.100000,-0.100000)"
fill="#000000" stroke="none">
<path d="M1997 5804 c-301 -54 -556 -238 -699 -504 -37 -69 -65 -143 -95 -250
-17 -61 -18 -147 -18 -1525 0 -803 3 -1481 7 -1506 42 -290 227 -558 486 -705
67 -39 155 -77 202 -90 148 -38 86 -36 1458 -39 l1312 -2 0 373 0 374 -1266 0
-1265 0 -55 26 c-68 32 -120 98 -130 164 -4 25 -7 658 -7 1407 l0 1361 22 44
c31 59 65 93 120 119 l46 22 1378 -1 c1033 -1 1387 -4 1415 -13 54 -17 98 -53
129 -107 l28 -47 3 -1277 2 -1278 374 0 373 0 0 1264 c0 1333 -1 1376 -46
1516 -99 312 -355 561 -668 650 -35 11 -79 22 -96 27 -18 4 -684 8 -1482 9
-1212 2 -1463 0 -1528 -12z"/>
<path d="M3187 4653 c-1 0 -38 -2 -82 -4 -280 -11 -510 -221 -540 -494 -8 -75
-8 -1235 0 -1302 24 -193 127 -346 291 -432 52 -27 70 -34 109 -47 57 -19 183
-23 778 -24 l677 0 1 27 c4 131 0 703 -4 710 -4 6 -223 9 -557 9 -302 -1 -551
1 -551 4 -3 13 -5 786 -2 796 3 7 176 10 551 9 301 0 555 1 564 3 15 4 16 36
15 374 l-2 371 -623 1 c-343 0 -624 0 -625 -1z"/>
<path d="M5043 1568 l2 -383 386 -1 386 -1 0 384 0 383 -388 0 -388 0 2 -382z"/>
</g>
</svg>
