<svg width="465" height="584" viewBox="0 0 465 584" fill="none" xmlns="http://www.w3.org/2000/svg">
<path d="M444.836 430.662C444.836 408.556 442.07 400.257 436.537 383.683C422.73 353.278 406.13 322.898 389.557 309.066C381.258 300.766 367.452 278.66 353.646 264.854C342.605 248.281 331.539 231.708 328.773 226.175C317.733 212.368 292.86 173.663 276.261 148.816C259.688 123.944 251.389 112.904 237.582 99.0713C234.816 93.5384 226.542 85.2648 221.009 79.7318C215.476 71.4324 207.203 63.159 204.436 57.626C198.903 52.093 193.395 43.8193 190.629 41.0529C187.862 35.5199 179.564 27.2463 174.057 21.7134C151.951 -0.392673 113.271 -5.92587 93.9314 7.90656C91.165 10.673 85.6325 10.6732 82.8661 10.6732C80.0996 10.6732 77.333 10.6731 71.8259 13.4396C69.0594 13.4396 63.5264 16.2062 60.7858 16.2062C55.2528 18.9727 33.1469 32.7793 22.1068 41.0787C13.8073 49.3782 5.53333 68.7178 5.53333 82.5244C5.53333 85.2909 2.76729 90.8237 2.76729 90.8237C0.000807762 90.8237 0 96.3568 0 101.89C0 115.696 5.53292 129.529 19.3395 157.142C22.106 162.675 27.639 179.248 30.3796 190.288C35.9126 209.627 52.486 248.307 66.2926 273.179C69.0591 278.712 74.5921 289.752 77.3327 298.052C77.3327 306.351 82.8656 314.625 85.6321 320.158C88.3986 325.69 91.1654 333.964 91.1654 333.964C91.1654 336.731 91.165 345.03 93.9314 350.537C99.4644 356.07 99.4648 364.344 99.4648 367.11C99.4648 369.877 102.231 372.643 102.231 372.643C104.997 372.643 107.764 380.943 110.53 389.216C113.297 400.257 116.063 408.556 116.063 408.556C118.83 408.556 121.597 411.323 121.597 414.089C121.597 419.622 135.403 452.768 140.936 469.341C157.509 513.553 185.148 535.659 243.167 552.232C248.7 552.232 256.974 554.999 262.507 557.765C281.846 563.298 301.185 566.065 328.824 563.298H361.997L367.529 574.364C373.062 585.43 375.829 585.43 381.336 579.897C384.103 577.131 389.635 574.364 397.908 571.597C403.441 571.597 408.948 568.831 408.948 566.064C408.948 566.064 408.949 560.532 406.182 554.999C400.649 538.426 403.416 538.426 425.522 538.426C436.562 538.426 444.861 535.659 444.861 532.893C447.628 530.126 447.627 527.36 447.627 527.36C444.861 527.36 442.095 521.827 442.095 519.06C442.095 516.294 439.329 507.994 433.796 505.254C428.263 499.721 419.989 485.914 411.689 474.848C395.116 449.976 384.051 438.936 381.284 444.443C381.284 444.443 381.284 449.976 384.05 452.742C403.39 474.848 422.729 505.254 422.729 508.02C422.729 510.787 422.73 513.553 419.963 516.319L414.43 524.619L408.897 516.319C400.597 502.513 378.492 474.874 375.751 474.874C367.452 474.874 370.218 480.407 378.517 491.447C397.857 508.02 408.923 532.893 400.624 532.893C397.857 532.893 392.324 524.593 386.816 516.319C381.283 508.02 373.011 496.98 370.244 491.447C359.204 480.381 359.204 477.64 364.711 472.107C370.244 466.575 370.244 466.574 370.244 436.195C373.011 411.322 373.011 408.556 375.778 416.855C378.544 419.622 378.544 425.155 378.544 427.921C381.31 433.454 386.842 436.221 400.649 430.688C408.949 430.688 411.689 430.688 411.689 433.454C414.456 433.454 417.222 438.987 422.729 447.261C428.262 452.794 433.77 458.327 433.77 458.327C433.77 458.327 436.536 463.86 439.303 466.626C444.836 472.159 447.603 483.199 444.836 485.966C439.303 488.732 433.77 480.433 436.537 474.9C436.537 472.134 433.77 469.367 431.003 469.367C428.237 469.367 425.471 466.6 422.704 461.067C414.405 452.768 406.13 444.495 400.597 444.495C395.064 444.495 400.597 450.027 411.637 463.834C417.17 472.133 425.445 480.407 425.445 483.173C425.445 485.94 425.444 488.707 428.211 488.707C428.211 488.707 433.744 488.707 433.744 494.24C436.511 497.006 439.277 499.772 447.55 497.006C455.85 494.239 464.124 488.706 464.124 483.199C464.124 480.433 458.591 474.9 453.084 469.393C444.836 461.068 444.836 458.301 444.836 430.662ZM439.328 524.619C439.328 524.619 433.795 524.619 431.029 524.619H428.263C431.029 519.086 439.328 519.086 439.328 524.619ZM392.35 339.471C392.35 325.665 395.116 322.898 400.649 333.938C406.182 347.745 406.182 347.745 400.649 345.004C397.883 339.471 392.351 339.471 395.117 345.004C395.117 347.771 395.116 350.537 392.35 350.537C392.35 350.537 392.35 345.004 392.35 339.471ZM386.816 333.938C381.283 336.705 381.284 333.938 381.284 325.639C381.284 314.573 378.517 311.832 364.711 314.573C356.411 317.34 353.671 317.34 353.671 314.573C353.671 311.807 348.138 309.04 345.371 306.273C339.838 300.74 337.072 297.974 326.032 300.74C317.732 300.74 306.693 303.507 303.926 306.273C295.627 309.04 295.627 309.04 292.886 303.507C290.12 289.7 279.08 289.7 273.547 303.507C273.547 306.274 270.78 306.273 265.247 300.74C259.714 297.974 254.206 297.974 251.44 297.974C248.673 297.974 248.674 295.208 248.674 289.675L251.44 284.142H284.612C301.185 284.142 320.524 284.142 326.057 286.908C350.93 292.441 367.504 300.715 373.037 306.248C381.284 314.599 389.583 331.172 386.816 333.938ZM259.714 361.577H245.881C240.348 361.577 237.582 361.577 234.841 353.278C232.075 347.745 226.542 342.238 223.801 339.471C221.035 336.705 221.035 333.938 221.035 331.172C221.035 325.639 234.841 314.599 245.907 314.599C254.206 311.832 259.714 320.132 262.48 342.238C265.221 358.811 262.481 361.577 259.714 361.577ZM256.947 405.789C256.947 405.789 251.414 405.789 248.647 408.556C243.114 408.556 243.115 408.556 243.115 394.749V375.41C245.882 369.877 251.415 375.41 251.415 380.943C251.415 383.709 251.414 389.242 256.947 392.009C262.48 397.49 262.48 405.789 256.947 405.789ZM232.075 383.683C237.608 391.983 234.841 403.023 226.542 414.089C218.242 422.388 204.436 422.388 193.37 416.855C182.33 408.556 179.563 403.049 185.07 389.216C187.837 378.151 196.11 372.643 207.176 369.877C218.268 367.11 226.542 372.643 232.075 383.683ZM240.375 419.596C243.141 422.363 248.674 419.596 248.674 419.596C248.674 414.063 262.48 414.063 268.013 416.829C273.546 419.596 284.587 438.935 284.587 447.235C284.587 452.768 276.287 461.042 265.247 466.574C262.481 469.341 256.947 469.341 256.947 469.341C254.18 469.341 248.648 463.808 240.375 444.469C226.542 422.363 229.309 419.596 240.375 419.596ZM279.054 416.855C276.287 411.322 276.286 405.789 276.286 403.049C276.286 403.049 273.521 397.516 270.754 392.009C259.714 375.436 259.714 372.669 270.754 367.136C287.327 361.603 287.328 361.603 295.627 378.202C303.926 397.542 309.432 419.648 306.666 422.414C306.666 422.414 301.134 425.181 295.627 425.181C284.587 425.129 281.82 425.129 279.054 416.855ZM301.159 369.877C295.626 353.304 292.86 350.537 281.82 353.304C273.52 356.07 273.521 353.304 270.754 345.004C270.754 339.471 267.987 328.431 267.987 325.665C265.22 317.365 265.22 314.599 267.987 317.365C273.52 322.898 276.286 322.898 279.027 314.599L281.794 306.299L287.326 314.599C290.093 320.132 290.093 325.665 287.326 328.405C281.793 336.705 287.326 347.745 298.367 353.278C309.432 358.811 312.174 361.577 312.174 372.617C312.174 378.15 309.407 383.658 309.407 383.658C309.407 383.658 306.692 375.384 301.159 369.877ZM295.627 339.471V331.172C298.393 322.872 309.433 311.832 320.499 309.066C337.072 306.299 345.371 314.599 339.838 336.705C339.838 345.004 337.072 350.511 334.306 350.511H326.032C320.499 353.278 295.627 342.238 295.627 339.471ZM82.8661 38.2862C85.6325 35.5197 88.3989 29.987 91.1654 27.2464C91.1654 18.9469 107.738 10.6732 124.311 10.6732C146.417 10.6732 162.991 21.7391 185.097 49.3522C193.396 60.4182 201.669 71.4584 201.669 71.4584C204.436 71.4584 207.202 74.2249 209.968 76.9914C212.735 82.5244 218.269 90.7979 223.776 96.3309C229.309 99.0974 237.582 110.137 245.881 121.203C251.414 129.503 256.947 135.01 259.688 135.01C259.688 137.776 262.455 137.776 262.455 140.543C262.455 143.309 265.22 148.842 267.987 154.349C273.52 159.882 279.027 170.923 284.56 176.456C301.133 204.095 312.2 220.668 326.007 237.241C337.073 251.047 337.072 253.814 334.306 256.58C331.54 259.347 328.772 256.58 320.499 242.774C314.966 234.474 306.692 220.668 301.159 212.368C295.626 204.069 287.353 193.028 284.587 184.729C279.054 176.43 273.52 170.923 270.779 170.923C268.013 170.923 268.014 173.689 273.547 176.456C273.547 176.456 276.312 181.988 279.079 184.755C279.079 187.521 284.613 198.562 292.886 206.861C298.419 215.16 306.692 228.967 309.458 237.267C317.758 251.073 331.565 273.179 334.331 273.179C337.098 273.179 339.865 270.412 339.865 264.88C339.865 262.113 339.864 262.113 348.164 270.413C359.204 284.219 359.204 284.219 342.631 278.712C334.331 275.946 314.992 273.179 268.013 270.413C198.929 270.413 182.356 267.646 165.783 259.346C154.743 251.047 138.143 237.241 129.87 223.434C118.83 204.095 118.83 201.328 116.063 201.328C113.297 198.562 110.53 193.028 105.023 184.755C102.257 176.455 96.7238 168.182 93.9832 162.649C85.6837 143.309 77.4102 123.97 74.6437 110.137C66.2667 79.7319 71.8001 46.5598 82.8661 38.2862ZM234.841 286.96C234.841 286.96 232.074 289.726 229.308 289.726C221.008 295.259 221.009 295.259 226.542 289.726C232.075 286.96 240.374 284.219 234.841 286.96ZM129.844 411.322L124.311 403.023C121.545 397.49 116.012 383.683 113.271 372.617C110.504 361.552 104.971 350.511 102.231 347.745C102.231 344.978 99.4648 342.212 99.4648 339.446C99.4648 339.446 99.464 333.913 96.6975 328.38C93.931 325.613 91.1646 317.339 88.3981 311.806C88.3981 306.273 82.8652 295.233 80.0988 286.934C77.3323 278.634 74.5667 270.361 74.5667 270.361C74.5667 267.594 69.0337 259.295 63.5266 248.255C46.9535 212.342 44.1867 204.043 38.6537 187.47C33.1208 176.404 27.6132 159.831 22.0803 146.024C2.74073 101.812 5.50712 71.4065 30.3796 49.3005C41.4456 38.2345 71.8255 21.6615 74.5919 24.4279C77.3584 24.4279 74.5916 32.7277 69.0586 43.7678C63.5257 52.0672 60.7593 65.8735 60.7593 74.173C57.9928 99.0455 74.5657 148.791 99.4383 193.003C104.971 201.302 110.478 209.576 110.478 212.342C127.051 245.488 165.757 275.894 187.863 278.66H207.202L215.502 281.427L204.436 286.96C198.903 289.726 196.136 295.259 196.136 295.259C196.136 298.026 193.37 300.792 193.37 300.792C190.603 300.792 179.563 309.092 168.497 320.132C154.69 333.938 143.625 347.771 140.858 356.044C135.325 364.344 132.559 380.917 132.559 391.957L129.844 411.322ZM193.396 314.599C182.356 322.898 174.057 333.938 174.057 333.938C174.057 336.705 174.056 339.471 171.289 336.705C168.523 333.938 196.163 306.299 204.436 300.792C207.203 300.792 201.67 306.325 193.396 314.599ZM162.99 356.044C160.224 358.811 157.457 358.811 154.691 356.044C149.158 353.278 149.158 353.278 154.691 350.511C160.224 347.771 165.757 350.537 162.99 356.044ZM143.651 405.789C140.884 411.322 140.884 419.596 143.651 425.129V438.936C143.651 441.702 140.885 438.935 140.885 430.636C138.118 414.063 138.118 386.424 143.651 391.957V405.789ZM146.417 378.15C146.417 378.15 146.417 375.384 146.417 372.617C146.417 369.851 146.417 369.851 146.417 369.851C146.417 369.851 149.184 369.851 149.184 372.617C149.184 375.384 149.183 378.15 146.417 378.15ZM151.95 361.577C154.716 361.577 157.483 364.344 157.483 364.344C157.483 367.11 151.95 364.344 149.184 364.344C149.184 361.577 149.183 361.577 151.95 361.577ZM151.95 400.256C157.483 380.917 179.59 342.238 193.396 328.405C204.436 317.365 223.801 303.533 226.567 303.533C226.567 303.533 229.334 303.533 232.1 303.533C234.867 300.766 237.633 298 240.4 300.766C245.933 300.766 218.294 320.106 212.761 320.106C207.228 320.106 207.228 328.406 215.527 344.979C221.06 361.552 221.06 361.552 215.527 358.785C207.228 356.019 190.656 364.318 182.356 372.592C176.823 375.358 174.057 383.632 174.057 389.165C174.057 394.698 171.29 397.464 168.523 397.464C165.757 394.698 157.483 402.997 157.483 408.53C157.483 408.53 157.483 414.063 160.249 414.063C165.782 422.363 168.55 447.209 163.017 447.209C160.25 447.209 160.249 447.209 160.249 452.742C163.016 461.042 160.25 461.042 157.483 452.742C149.184 436.195 149.183 414.089 151.95 400.256ZM157.457 474.874C157.457 472.108 157.457 474.874 162.99 485.94C165.757 491.473 165.756 496.98 165.756 496.98C162.99 496.98 157.457 480.407 157.457 474.874ZM168.523 480.407C162.99 474.874 162.99 466.6 162.99 466.6C165.757 463.834 165.756 463.834 171.289 480.407C176.797 499.746 174.056 499.746 168.523 480.407ZM179.564 510.786C176.797 508.02 174.03 505.254 176.796 505.254C176.796 502.487 179.564 502.487 179.564 505.254C185.096 513.553 185.096 513.553 179.564 510.786ZM193.396 516.319C190.63 516.319 187.863 513.553 187.863 510.786C185.096 508.02 185.096 499.721 182.33 496.98C174.03 480.407 168.523 458.301 171.289 458.301C171.289 455.535 174.057 461.068 185.097 488.707C187.863 497.006 193.396 508.046 193.396 510.812C193.396 513.553 193.396 516.319 193.396 516.319ZM196.162 499.747C196.162 496.98 193.395 491.447 190.629 488.707C187.862 483.174 185.097 474.9 185.097 469.367C182.33 461.068 185.096 461.067 187.863 461.067C190.629 461.067 193.396 463.834 196.162 469.367C198.929 477.666 198.929 477.666 193.396 477.666C187.863 474.9 187.863 474.9 193.396 485.966C196.163 494.265 201.695 505.305 207.202 521.878C209.969 524.645 209.968 530.178 209.968 530.178C207.202 530.126 196.162 502.513 196.162 499.747ZM209.968 508.02C209.968 505.254 212.735 508.02 215.502 513.553C215.502 519.086 218.268 521.853 218.268 524.593V527.36C215.501 527.385 207.202 508.02 209.968 508.02ZM221.009 535.659C218.242 535.659 218.243 532.893 218.243 532.893C218.243 530.126 218.242 530.126 221.009 530.126C221.009 530.126 223.776 530.126 223.776 532.893L221.009 535.659ZM223.776 496.98C209.969 496.98 209.969 496.98 207.202 480.407V466.6C209.969 469.367 215.501 474.9 221.009 483.173L229.308 494.214L223.776 496.98ZM232.075 519.086V516.319C232.075 516.319 234.841 521.853 237.607 527.385C240.374 530.152 240.375 535.685 240.375 535.685C237.608 535.659 234.842 527.386 232.075 519.086ZM212.736 458.301C204.436 447.235 196.163 441.728 193.396 450.002C193.396 450.002 190.63 450.002 185.097 450.002C176.797 447.235 176.796 447.235 176.796 436.195C176.796 427.895 174.031 419.622 171.264 416.855C165.731 408.556 165.731 405.789 171.264 405.789C174.031 405.789 176.796 405.789 176.796 408.556C176.796 416.855 190.603 427.895 207.202 430.662C209.969 430.662 218.242 433.428 221.009 436.195C226.542 441.728 248.647 477.64 248.647 480.407C248.647 483.173 245.882 485.94 243.115 485.94C237.608 491.447 226.542 480.407 212.736 458.301ZM262.48 546.725C259.714 546.725 259.714 543.958 259.714 541.192C262.481 538.425 268.014 538.426 270.754 543.959C270.754 546.725 267.987 549.491 262.48 546.725ZM259.714 532.893C256.948 532.893 248.673 508.02 245.907 502.487C245.907 496.954 259.714 483.148 273.547 474.848C276.313 472.082 279.08 472.082 281.846 474.848C281.846 474.848 284.612 477.615 287.378 474.848C292.911 472.082 295.678 474.848 303.952 494.188C314.992 513.527 312.252 513.527 281.846 524.593C270.754 527.386 259.714 532.893 259.714 532.893ZM287.326 546.725C287.326 541.192 284.56 538.425 284.56 535.685C284.56 535.685 287.327 538.452 290.094 543.984C292.86 546.751 292.86 552.284 292.86 552.284C292.86 554.999 290.093 552.232 287.326 546.725ZM303.926 554.999C301.16 554.999 298.393 549.466 295.627 543.933C292.861 535.633 292.86 532.893 292.86 532.893C295.626 532.893 303.899 541.192 306.666 549.466C306.692 552.232 306.693 554.999 303.926 554.999ZM317.733 554.999C314.966 554.999 303.926 530.126 306.692 527.36C306.692 524.593 320.499 549.466 320.499 552.232L317.733 554.999ZM314.966 530.126C312.2 519.06 317.733 524.593 323.266 538.426C328.799 546.725 328.798 552.232 328.798 552.232C328.798 554.999 320.499 541.192 314.966 530.126ZM367.477 502.513C373.01 508.046 381.283 521.853 386.816 530.152L395.117 543.959L386.816 555.025C381.283 563.324 375.777 568.831 373.01 568.831C373.01 568.831 370.244 563.298 370.244 560.532C370.244 554.999 367.477 549.466 364.711 549.466C361.944 546.699 359.178 541.166 353.671 535.659C342.631 513.553 323.266 491.447 312.226 480.381C312.226 477.615 306.693 474.848 303.926 472.082C301.16 469.315 295.627 466.549 295.627 466.549C292.861 466.549 292.86 461.016 292.86 458.249C295.626 455.483 292.86 447.183 292.86 444.443C290.093 433.377 290.093 433.377 306.666 433.377C312.199 433.377 312.199 433.377 317.706 452.716C323.239 477.589 328.747 485.888 345.346 485.888C350.879 485.888 356.386 485.888 356.386 485.888C356.412 488.681 359.177 494.214 367.477 502.513ZM356.412 463.808C353.645 472.108 350.879 474.874 345.371 474.874C331.565 474.874 328.798 466.574 326.032 441.728C323.265 430.662 323.265 422.388 320.499 419.622C317.732 416.856 314.966 414.089 314.966 408.556C312.2 400.257 312.2 400.256 314.966 400.256C317.733 400.256 320.499 394.723 320.499 380.917C320.499 367.11 320.499 364.344 326.032 361.577C337.098 358.811 348.137 358.811 356.437 367.11C364.736 372.643 364.737 375.41 364.737 389.216C361.945 433.429 361.944 452.768 356.412 463.808ZM364.711 361.577C359.178 356.044 353.671 353.278 353.671 350.511C350.904 350.511 350.904 347.745 353.671 339.446C361.97 322.873 373.011 314.573 370.244 328.38C367.478 339.445 370.244 344.953 378.544 344.953C381.31 344.953 384.077 344.953 384.077 347.719C384.077 353.252 384.076 356.019 389.609 358.759C392.375 358.759 395.142 364.292 395.142 367.059C395.142 369.825 392.376 369.825 384.102 369.825C375.829 369.825 370.244 367.11 364.711 361.577ZM392.35 386.45C392.35 386.45 392.349 389.216 386.816 389.216C384.05 389.216 381.284 386.45 381.284 386.45C381.284 383.683 381.284 383.683 384.05 383.683C389.583 383.683 392.35 383.683 392.35 386.45ZM400.624 419.596C389.584 422.363 386.817 422.363 381.284 408.53L378.517 397.464L384.05 394.698C395.09 391.931 397.857 391.931 403.39 405.738C406.156 411.271 408.923 419.544 408.923 419.544C408.923 419.544 406.157 419.596 400.624 419.596ZM406.157 367.11C406.157 361.577 417.223 383.683 425.497 400.256C428.263 405.789 428.263 411.322 428.263 411.322C428.263 411.322 406.157 369.877 406.157 367.11ZM431.029 438.961C431.029 438.961 428.263 438.961 425.497 436.195C422.73 430.662 419.963 427.895 422.729 427.895C422.729 427.895 425.496 427.896 428.263 433.428C431.029 436.195 433.795 438.961 431.029 438.961ZM436.562 450.002L433.796 447.235C433.796 444.468 433.796 444.469 433.796 444.469C436.562 444.469 439.328 444.468 439.328 447.235L436.562 450.002Z" fill="#B2B2B2"/>
<path d="M284.587 215.134C290.12 226.174 298.393 240.007 303.926 248.281C309.459 253.814 314.966 259.321 314.966 259.321C317.733 259.321 314.966 253.788 309.433 248.281C303.9 239.981 298.367 228.941 292.86 220.641C287.327 209.576 281.819 198.536 276.286 193.003C273.52 187.47 267.987 179.196 267.987 176.429C265.22 170.896 265.221 170.896 265.221 176.429C265.221 181.962 265.22 184.729 267.987 187.495C270.753 190.262 276.287 201.302 284.587 215.134Z" fill="#B2B2B2"/>
<path d="M265.221 223.408C267.988 228.941 273.521 237.215 276.261 242.748C279.028 248.281 281.794 253.788 284.561 256.554C287.327 259.321 290.094 259.321 292.86 259.321C295.627 256.554 295.627 256.554 298.393 259.321C303.926 264.854 306.692 259.321 301.159 251.021C292.86 242.722 276.287 212.342 276.287 209.576C276.287 206.809 273.521 204.043 270.755 204.043C262.455 195.743 265.221 206.809 279.054 228.915C287.353 242.722 292.86 253.788 290.094 253.788C290.094 253.788 287.328 248.255 281.795 242.748C279.028 237.215 273.495 228.941 273.495 226.175C270.729 223.408 267.962 217.875 265.196 212.368C262.429 204.069 256.896 204.068 259.663 209.601C259.714 209.601 262.481 217.901 265.221 223.408Z" fill="#B2B2B2"/>
<path d="M281.819 256.58C281.819 256.58 276.287 248.281 270.754 242.774C267.988 234.474 262.455 226.201 259.714 220.668C259.714 217.901 256.947 215.135 254.181 215.135C251.414 215.135 251.415 215.135 251.415 215.135C251.415 217.901 267.988 248.281 270.754 253.814C276.287 256.581 281.819 259.347 281.819 256.58Z" fill="#B2B2B2"/>
<path d="M162.99 237.241C162.99 234.474 154.691 228.941 149.184 228.941C146.417 228.941 149.183 234.474 151.95 237.241C160.223 242.748 162.99 242.748 162.99 237.241Z" fill="#B2B2B2"/>
<path d="M267.987 267.62C273.52 267.62 276.287 262.088 270.754 259.321C267.987 259.321 262.454 251.022 259.714 242.748C254.181 234.449 248.673 228.941 245.906 228.941C243.14 228.941 243.141 231.708 256.973 248.281C262.48 259.347 267.987 267.62 267.987 267.62Z" fill="#B2B2B2"/>
<path d="M237.607 253.814C240.374 256.58 245.907 259.347 248.647 259.347H256.947L251.415 251.047C248.648 245.514 243.115 239.981 243.115 237.241C243.115 237.241 240.348 234.474 240.348 237.241C240.348 237.241 240.348 240.007 240.348 242.774C243.115 242.774 245.881 248.307 245.881 251.073C248.648 256.606 248.648 256.606 243.115 251.073C237.582 248.307 234.816 242.774 234.816 240.007C234.816 237.241 232.049 237.241 229.283 237.241C226.542 237.241 229.308 248.281 237.607 253.814Z" fill="#B2B2B2"/>
<path d="M223.776 256.581C226.542 256.581 229.308 256.581 229.308 256.581C229.308 259.347 229.309 262.114 232.075 262.114C234.842 262.114 234.841 259.347 229.308 248.307C223.775 234.501 218.242 231.734 221.009 242.774L223.776 251.074L218.243 245.54C209.943 234.5 207.202 240.008 212.709 251.074C218.268 259.347 221.009 259.347 223.776 256.581Z" fill="#B2B2B2"/>
<path d="M174.056 251.047C182.356 251.047 196.161 256.58 198.928 259.347C201.694 259.347 215.502 262.113 212.735 259.347C212.735 256.58 209.969 253.814 207.202 248.307C204.436 240.007 198.903 234.5 198.903 240.007C198.903 245.514 174.03 242.773 168.497 240.007C165.73 237.241 162.964 240.007 165.731 245.54C165.756 248.281 168.523 251.047 174.056 251.047Z" fill="#B2B2B2"/>
<path d="M143.651 215.135C143.651 212.368 143.651 212.368 143.651 212.368C143.651 215.135 143.651 217.901 143.651 217.901C143.651 220.642 143.651 217.901 143.651 215.135Z" fill="#B2B2B2"/>
<path d="M168.523 342.238C168.523 342.238 165.757 342.238 162.99 342.238C162.99 342.238 162.99 342.238 165.756 342.238C168.523 342.238 171.29 342.238 168.523 342.238Z" fill="#B2B2B2"/>
<path d="M287.327 466.574C287.327 466.574 284.561 466.574 281.795 466.574C281.795 466.574 281.794 466.574 284.561 466.574C287.327 466.574 290.093 466.574 287.327 466.574Z" fill="#B2B2B2"/>
</svg>
