<svg width="576" height="924" viewBox="0 0 576 924" fill="none" xmlns="http://www.w3.org/2000/svg">
<path d="M164.231 700.261C166.975 694.667 186.157 672.317 208.082 649.966C230.007 627.616 246.444 608.062 243.7 608.062C238.213 605.265 156 697.464 156 705.855C156 714.247 158.744 708.626 164.231 700.261Z" fill="#B2B2B2"/>
<path d="M448.517 345.665C445.75 345.665 442.984 348.431 440.217 348.431C437.451 348.431 437.45 348.431 437.45 351.198C437.45 356.731 440.217 356.731 442.983 353.964C442.983 351.198 445.75 351.198 448.517 351.198C451.283 353.964 454.05 351.198 454.05 348.431C454.024 345.665 451.283 342.898 448.517 345.665Z" fill="#B2B2B2"/>
<path d="M202.584 486.575C197.051 486.575 194.284 489.341 183.244 505.914C172.204 516.98 161.138 533.553 130.732 566.699C125.199 574.999 119.692 583.272 119.692 586.039C116.926 588.805 125.225 586.039 127.992 583.272C130.758 580.506 141.799 563.933 152.864 550.126C205.35 489.341 208.117 486.575 202.584 486.575Z" fill="#B2B2B2"/>
<path d="M445.751 312.493C448.517 312.493 451.283 309.726 451.283 306.96C451.283 301.427 442.983 301.427 442.983 306.96C442.983 309.726 442.984 312.493 445.751 312.493Z" fill="#B2B2B2"/>
<path d="M448.516 298.686C451.283 301.453 456.816 298.686 456.816 293.153C456.816 293.153 454.049 293.153 451.282 293.153C445.749 293.153 445.75 295.92 448.516 298.686Z" fill="#B2B2B2"/>
<path d="M564.553 38.9468C572.853 38.9468 578.36 27.881 572.853 25.1403C572.853 25.1403 567.32 19.6073 561.813 11.3337C556.28 3.03422 548.006 -2.47295 548.006 3.03417C548.006 5.80065 542.473 8.56718 536.966 8.56718C456.842 36.2062 412.63 58.3122 398.797 69.3523C396.031 74.8853 393.264 80.4182 393.264 85.9253C393.264 91.4324 390.498 96.9655 390.498 102.498C387.731 105.265 384.965 113.539 384.965 124.604C384.965 132.904 382.198 143.944 379.431 152.243C376.665 166.05 376.665 168.817 371.132 166.05C337.986 157.751 227.456 166.05 174.944 182.623C169.411 182.623 155.605 185.39 144.539 188.156C100.327 196.456 86.5207 201.963 61.6482 213.029C36.7757 224.095 14.669 243.434 11.9025 251.708C11.9025 254.474 11.903 257.241 9.13651 262.748C-1.92944 284.854 -1.93024 315.259 6.36921 362.212C9.1357 373.252 14.6687 395.358 17.4094 409.191C20.1758 425.764 22.9427 439.596 22.9427 445.103C25.7092 453.403 28.4755 467.209 31.242 486.549C34.0085 503.122 45.0485 539.06 58.8809 577.739C61.6474 580.506 64.4142 591.546 64.4142 594.312C64.4142 599.845 69.9471 610.885 72.7136 616.418C75.4801 624.718 81.0129 632.991 81.0129 632.991C81.0129 635.758 81.0137 641.291 83.7802 646.798C86.5467 652.331 89.3131 660.605 92.0796 668.904C94.8461 677.204 97.612 691.01 103.145 702.05C116.952 740.729 125.251 773.901 128.018 809.814C130.784 837.453 133.551 848.493 139.058 859.559C158.397 901.004 180.504 914.837 230.249 920.344C244.055 923.111 266.161 923.111 277.227 923.111C296.566 925.877 326.971 917.578 326.971 912.07C326.971 912.07 329.738 909.304 332.505 906.537C340.804 903.771 351.845 892.731 362.911 878.898C371.21 867.832 379.483 842.986 385.016 818.113C387.783 807.047 390.549 782.201 393.316 765.602C396.082 746.262 401.615 718.623 401.615 704.817C404.382 688.244 409.915 663.371 412.655 644.032C415.422 627.459 420.955 594.286 423.695 572.18C431.995 525.202 434.762 503.096 445.802 469.95C454.102 442.311 459.608 417.438 462.374 389.825C465.141 378.785 467.907 353.913 470.674 337.314C478.973 298.635 478.974 259.955 473.441 240.59C473.441 229.524 467.907 224.017 459.634 215.717C448.593 204.677 423.722 193.611 415.422 193.611C409.889 193.611 409.889 190.845 415.422 165.972C418.189 152.166 420.955 135.567 420.955 124.527C423.721 107.954 423.721 105.187 431.995 96.888C448.516 80.3925 545.214 36.1803 564.553 38.9468ZM25.7352 257.241C28.5017 254.474 28.5013 251.708 28.5013 251.708C25.7348 248.941 36.8007 235.135 47.8407 229.602C53.3737 229.602 58.8812 224.069 64.4142 221.302C78.2208 213.003 116.926 201.963 155.605 196.43C163.904 193.663 174.944 190.897 186.01 188.13C238.521 174.324 329.712 168.791 360.092 177.09C376.665 179.857 376.665 177.09 368.391 224.069C365.625 235.109 362.858 257.215 360.092 271.047C354.559 306.96 351.793 312.493 337.986 318.026C332.453 318.026 304.815 320.792 263.369 320.792C197.051 320.792 191.518 320.792 136.265 306.986C122.459 304.219 105.86 298.686 97.5864 298.686C83.7798 293.153 50.6081 279.347 31.2685 265.54C20.2026 259.981 20.2023 259.981 25.7352 257.241ZM271.668 655.149C274.435 655.149 277.201 652.383 279.968 649.616C282.734 644.083 293.774 633.043 302.073 621.977C313.113 610.911 324.18 597.105 326.946 591.572C332.479 586.039 343.519 572.232 351.819 561.166C360.118 550.126 371.158 533.527 373.924 530.761L379.458 519.721V530.761C379.458 536.294 379.458 539.06 379.458 539.06C376.691 539.06 373.925 541.827 371.158 547.36C368.392 550.126 365.625 558.4 362.859 558.4C360.093 561.166 360.092 563.933 360.092 563.933C360.092 566.699 354.559 569.466 351.792 574.999C349.026 580.532 340.753 588.805 335.22 597.105C332.454 602.638 324.179 610.911 321.413 616.444C315.88 621.977 310.373 630.251 307.607 633.017C302.074 638.55 293.8 649.59 288.267 655.123C282.734 663.423 279.968 668.93 279.968 671.696C282.734 666.163 291.034 657.89 299.307 649.59C304.84 644.057 315.88 627.484 326.946 616.418C335.246 605.352 343.519 594.312 349.052 588.779C354.585 583.247 362.859 572.206 365.625 563.907C373.925 555.607 376.665 552.841 379.431 555.607C379.431 558.374 379.432 558.374 376.665 558.374C371.132 561.14 371.132 566.673 376.665 574.947C376.665 577.713 376.665 580.48 376.665 580.48C373.899 580.48 371.132 577.713 371.132 574.947C371.132 572.18 368.366 569.414 365.6 569.414C365.6 569.414 365.6 572.18 365.6 574.947C365.6 577.713 365.6 580.48 365.6 580.48C362.833 580.48 360.066 580.48 360.066 586.013C354.533 599.82 302.047 666.138 260.602 707.583L210.857 757.328C199.817 773.901 188.751 784.967 185.984 787.734C183.218 790.5 180.452 793.267 177.685 798.8C172.152 804.333 172.152 804.333 172.152 801.566C172.152 801.566 172.153 796.033 174.919 796.033C177.686 790.5 177.686 790.5 174.919 793.267C163.879 798.8 172.152 784.967 191.491 762.861C235.703 713.116 266.109 682.736 271.617 679.97C274.383 679.97 277.149 677.204 279.916 671.671C279.916 671.671 277.149 674.437 274.383 674.437C271.616 674.437 263.342 677.203 257.809 682.736C249.51 693.777 235.704 704.842 185.959 760.095C180.426 765.628 174.918 773.901 172.152 779.434C166.619 787.734 166.619 787.734 163.852 784.967C161.086 773.901 177.659 749.055 246.744 679.97C257.784 668.93 263.317 660.63 263.317 657.864C263.317 655.097 232.911 682.737 221.871 699.31C216.338 704.843 205.298 715.883 194.232 729.715C183.166 740.755 172.126 754.588 166.593 760.12L161.06 768.42L158.294 757.38C155.527 749.08 158.294 746.314 163.827 735.274C174.867 724.234 257.784 638.55 263.317 638.55C263.317 638.55 266.083 638.55 266.083 641.317C266.083 641.317 268.85 638.55 271.617 635.784C274.383 630.251 277.149 624.718 279.916 624.718C282.682 621.951 285.448 616.418 290.981 610.911C296.514 605.378 302.022 597.105 307.555 591.572C310.321 586.039 321.361 574.999 329.66 563.933C337.96 550.126 351.766 536.294 357.299 528.02C371.106 508.681 382.172 494.848 379.406 492.108C376.639 492.108 371.107 497.64 365.6 505.914C354.56 522.487 335.193 550.126 307.58 586.039C293.773 599.845 282.708 616.444 277.175 621.951C271.642 627.484 268.876 632.991 263.369 632.991C257.836 632.991 188.751 699.309 166.645 726.948L155.605 740.755L150.072 726.948C141.772 704.842 144.539 702.076 169.411 668.93C197.05 635.758 221.922 610.911 227.43 610.911C227.43 610.911 230.197 608.145 230.197 605.378C230.197 599.845 216.39 608.145 194.284 633.017C163.878 668.93 147.306 685.529 144.539 691.036C141.773 696.569 141.773 693.802 139.006 685.503C136.24 679.97 136.239 674.437 141.772 666.164C144.539 660.631 147.305 655.123 150.072 655.123C150.072 655.123 158.371 644.083 166.645 633.017C174.944 619.211 188.75 605.378 197.05 597.105C205.349 586.039 208.091 583.298 205.35 583.298C199.818 583.298 183.243 599.871 166.67 621.977C147.331 649.616 133.499 668.956 130.759 663.423C130.759 663.423 127.992 652.357 125.225 641.317L122.459 621.977L136.265 605.404C152.838 583.298 163.905 566.725 161.138 561.192C161.138 558.426 180.477 530.787 183.244 528.046C186.01 528.046 191.544 519.747 199.817 511.473C213.624 494.9 219.156 489.367 213.623 489.367C210.857 489.367 210.857 489.367 185.984 519.772C177.685 530.813 161.112 547.411 152.839 558.451C144.539 569.517 139.031 577.791 139.031 580.557C141.798 580.557 144.564 580.558 147.331 575.025L152.864 569.492L147.331 577.791C144.564 583.324 139.032 591.598 133.525 599.897C125.225 610.963 122.485 610.963 119.718 608.196C114.185 588.857 111.419 580.557 114.185 580.557L122.484 572.258C125.251 566.725 133.524 555.685 141.824 547.386C161.163 525.28 166.697 516.98 172.23 508.706C174.997 503.173 180.529 500.407 180.529 497.641C186.062 494.874 183.295 486.575 177.762 489.341C177.762 489.341 172.229 494.874 169.463 500.407C166.696 505.94 152.89 522.513 141.824 539.086C128.017 552.893 116.951 566.725 116.951 569.492C111.418 577.791 111.418 575.025 105.911 550.152L100.379 528.046L114.185 511.473C133.525 481.067 139.057 475.56 141.824 478.301C144.59 478.301 144.59 483.834 136.291 492.108C114.185 519.747 103.145 541.853 111.419 541.853C111.419 541.853 114.185 539.086 114.185 536.32C114.185 533.553 130.758 508.681 147.331 492.108C155.63 481.067 166.67 475.534 166.67 481.067C166.67 483.834 158.371 494.874 147.331 508.706C122.458 539.112 111.419 558.451 111.419 561.218C111.419 569.517 114.185 566.751 119.718 555.685C122.485 550.152 130.758 539.112 139.058 528.046C147.357 519.746 158.398 505.94 163.931 497.641L174.971 483.834H232.989L221.949 497.641C216.416 503.174 205.376 519.746 194.31 528.046C174.971 550.152 169.438 558.451 169.438 563.959C172.204 569.492 163.904 580.532 147.331 597.131C136.291 613.704 127.991 627.536 127.991 627.536C127.991 630.303 133.524 624.77 139.031 619.237C150.071 608.196 183.244 563.984 183.244 561.218C183.244 561.218 180.477 561.218 177.71 561.218C169.411 563.984 174.944 558.451 197.05 536.345C213.623 517.006 235.73 492.133 238.496 483.834C238.496 483.834 241.263 481.067 246.796 483.834C255.095 483.834 255.096 481.067 205.35 539.112C191.544 555.685 180.477 572.258 183.244 575.025C186.01 575.025 166.671 599.897 144.565 630.277C136.265 638.576 130.758 646.85 133.525 646.85C136.291 649.616 150.098 633.043 166.697 610.937C174.996 597.13 183.269 586.065 188.802 583.298C194.335 577.765 194.336 574.999 191.57 569.492C191.57 566.725 191.57 563.959 202.61 550.152C210.909 541.853 227.481 522.513 238.521 508.706C257.861 489.367 263.395 483.834 268.928 483.834C271.694 483.834 277.227 483.834 277.227 483.834C277.227 486.6 244.08 528.046 221.974 552.918C202.635 572.258 197.102 580.558 202.635 577.791C205.401 577.791 213.676 566.751 224.742 555.685C255.147 525.279 255.147 522.513 271.72 503.173C280.02 492.107 285.526 483.834 285.526 483.834C285.526 481.067 288.292 481.067 288.292 483.834C291.059 486.6 279.993 503.173 227.508 566.725C221.975 577.765 213.702 588.831 213.702 591.598C213.702 594.364 208.169 605.404 194.362 619.237C163.957 649.642 144.617 674.515 144.617 677.255C141.85 682.788 147.383 682.788 152.916 674.489C161.215 657.916 222.001 597.131 224.767 597.131C227.533 597.131 230.3 597.131 230.3 594.364C230.3 594.364 238.599 577.791 252.406 563.959C282.811 530.787 321.491 483.834 321.491 478.301C324.257 475.534 332.531 475.534 332.531 481.067C332.531 483.834 310.425 511.473 304.892 516.98C302.126 519.747 293.851 528.046 285.552 539.086C280.019 547.386 266.213 561.192 260.68 569.492C235.807 594.364 233.041 599.897 235.807 602.664C238.574 602.664 241.34 599.897 246.847 594.364C257.887 580.558 299.359 533.579 310.399 519.747C313.166 514.214 324.206 503.174 329.739 494.874C338.038 481.067 351.845 472.768 354.611 475.534C357.378 475.534 313.165 536.32 299.332 550.152C296.566 555.685 291.033 561.192 288.292 566.725C285.526 569.492 277.227 577.765 271.72 588.831C266.187 597.131 260.679 605.404 257.913 605.404C257.913 608.171 252.381 616.47 194.362 677.255C163.957 707.661 150.15 727 158.449 727C161.216 727 163.982 721.467 163.982 718.701C169.515 710.401 252.407 619.237 263.473 613.704L271.772 608.171C271.772 605.404 269.005 605.404 266.239 605.404C263.472 608.171 266.238 599.871 274.538 591.598C280.071 583.298 288.344 575.025 288.344 575.025C288.344 572.258 291.111 566.725 299.384 558.451C315.957 541.878 335.297 517.006 357.403 486.6C362.936 478.301 376.743 470.027 373.976 472.794C373.976 475.56 365.677 486.6 354.637 500.433C343.597 517.006 332.53 530.838 329.764 533.579C326.997 539.112 315.958 552.918 304.892 563.984C296.593 575.05 285.552 591.624 280.019 597.156C271.72 610.963 271.72 610.963 271.72 608.196L266.187 616.496C263.42 619.262 263.421 624.795 263.421 624.795C266.187 624.795 268.953 622.029 268.953 622.029C268.953 619.263 291.059 588.857 313.165 564.01C318.698 555.711 324.205 550.204 326.971 547.437C326.971 544.671 335.272 536.371 340.779 528.098C346.312 519.798 351.818 514.291 354.585 511.525C354.585 508.758 360.117 503.225 368.391 497.718C373.924 489.419 379.432 481.145 382.199 475.612C387.731 467.313 387.731 467.313 384.965 486.652C384.965 500.459 382.198 508.758 379.431 511.525C376.665 514.291 371.132 522.591 365.625 530.864C357.326 544.671 324.18 588.883 318.647 597.182C315.88 599.949 310.347 605.482 307.607 610.989C302.074 613.755 296.566 622.055 296.566 622.055C285.475 633.043 268.902 655.149 271.668 655.149ZM368.366 594.338V586.039C368.366 583.272 376.665 594.338 376.665 597.105C376.665 602.638 371.132 602.638 368.366 594.338ZM373.899 619.211C373.899 624.744 371.132 627.51 371.132 627.51C368.365 627.51 368.366 624.744 368.366 621.977C368.366 619.211 368.365 616.444 371.132 616.444C371.132 616.444 373.899 616.444 373.899 619.211ZM340.752 768.42C337.986 760.121 343.519 751.847 346.286 760.12C349.052 762.887 349.052 768.42 346.286 771.187C346.26 776.719 346.259 776.719 340.752 768.42ZM346.26 787.785C346.26 790.552 343.493 796.085 343.493 796.085C340.727 796.085 340.727 793.318 340.727 790.552C340.727 785.019 340.727 782.252 343.493 782.252C343.519 782.252 346.26 782.252 346.26 787.785ZM293.774 823.698C291.007 820.932 288.241 823.698 291.008 826.465C291.008 829.231 291.007 834.764 288.241 837.505C279.941 845.804 279.942 845.804 277.175 837.505C277.175 829.205 282.708 818.165 296.515 807.099C302.048 801.566 302.048 801.566 304.814 807.099C307.58 809.865 310.347 812.632 307.58 812.632C307.58 815.399 304.814 812.632 304.814 812.632C302.048 804.333 299.281 809.866 299.281 815.398C302.047 823.698 302.047 823.698 293.774 823.698ZM296.54 854.104C291.007 859.636 285.501 859.636 285.501 854.104C285.501 851.337 291.034 840.297 293.8 840.297C299.308 840.271 299.306 848.571 296.54 854.104ZM271.668 837.505C274.435 837.505 274.434 840.271 274.434 845.804C274.434 854.103 274.435 859.611 271.668 859.611C271.668 859.611 268.902 854.078 271.668 851.311C271.668 840.245 266.135 843.012 260.628 854.078C255.095 859.611 249.588 862.377 249.588 862.377H246.821C249.587 859.611 252.354 856.844 252.354 854.078C252.354 851.311 268.928 826.439 274.461 823.672C277.227 820.906 277.227 812.606 271.694 815.373C266.161 818.139 244.055 854.052 244.055 859.585C244.055 862.351 241.288 865.118 235.755 865.118C232.989 865.118 230.223 862.351 232.989 859.585C238.522 856.818 238.522 851.285 232.989 854.052C230.223 856.818 235.755 848.519 249.562 829.179C257.861 820.88 266.135 809.84 271.668 809.84C274.435 807.073 282.708 798.8 291.008 793.267C299.307 782.201 304.814 779.46 304.814 782.201C307.58 784.967 307.58 787.734 299.281 796.007C288.241 807.047 268.876 834.686 268.876 837.453C268.902 837.505 268.902 837.505 271.668 837.505ZM266.135 859.611C266.135 859.611 266.135 859.611 266.135 862.377L263.369 865.143V862.377C263.369 859.611 263.369 859.611 266.135 859.611ZM216.389 820.932C202.583 837.505 191.518 848.571 191.518 848.571C191.518 837.53 263.369 751.847 277.175 749.106C282.708 746.34 282.708 743.573 277.175 743.573C274.409 743.573 266.135 746.34 260.602 751.873C238.496 773.979 197.051 823.724 191.518 834.764C183.218 848.57 180.477 848.57 177.71 837.53C177.71 831.997 188.752 815.424 205.35 796.085L244.029 757.406C257.836 740.833 268.901 729.767 268.901 732.533C271.668 732.533 279.942 721.467 285.475 713.194C288.241 710.427 296.515 702.154 304.814 691.088C313.113 680.022 324.154 668.982 329.687 663.449L335.22 655.149L337.986 663.449C340.753 668.982 340.753 671.748 335.22 674.489C332.454 674.489 332.453 677.255 332.453 680.022C332.453 680.022 326.92 688.321 318.647 696.595C313.114 704.894 307.607 713.168 304.841 715.934C302.074 718.701 296.541 724.234 293.8 729.741C285.501 740.781 277.226 754.613 279.993 754.613C279.993 754.613 285.527 749.08 291.06 743.573C293.826 735.274 302.099 729.767 304.866 727C304.866 724.234 310.399 715.96 313.165 713.194C318.698 707.661 321.465 704.894 324.205 704.894C329.738 704.894 326.972 715.96 324.205 715.96C321.439 715.96 318.672 718.727 318.672 721.493C318.672 721.493 313.139 732.559 304.866 740.833C296.566 749.132 288.293 760.172 282.76 765.705C279.994 771.238 274.461 776.771 271.72 776.771C271.72 776.771 252.381 796.111 233.041 818.217C205.402 851.389 194.362 862.429 194.362 856.896C194.362 854.129 263.446 776.771 271.72 771.238C277.253 765.705 277.252 765.705 277.252 762.939C271.667 760.146 257.835 776.719 216.389 820.932ZM343.52 657.89C337.987 649.59 340.753 644.083 346.286 652.357C349.052 655.123 349.052 657.89 349.052 660.656C346.259 660.656 343.52 660.656 343.52 657.89ZM349.026 677.255V685.555C346.26 688.321 346.259 688.321 343.493 685.555C337.96 682.788 340.727 674.489 346.26 674.489C346.26 674.489 349.026 674.489 349.026 677.255ZM349.026 638.55C351.793 638.55 357.326 646.85 357.326 649.616C360.092 652.383 354.559 652.383 351.792 646.85C346.259 644.083 346.26 638.55 349.026 638.55ZM351.792 624.744C349.026 624.744 349.026 624.744 349.026 627.51C349.026 630.277 315.88 674.489 296.515 693.828C290.982 702.128 282.708 710.401 282.708 713.168C282.708 713.168 277.176 718.701 274.409 718.701C266.11 724.234 255.069 735.274 219.13 776.719C180.451 818.165 177.686 823.698 174.919 820.932C172.153 815.399 177.685 804.358 188.725 793.293C208.065 771.187 235.703 740.781 257.809 718.675C268.849 707.609 282.683 693.802 285.449 688.269C290.982 682.736 302.021 668.93 310.321 660.63C321.361 649.59 332.427 635.758 337.96 627.484C349 613.678 354.533 610.911 354.533 619.185C357.325 621.977 354.559 624.744 351.792 624.744ZM335.22 751.847C332.454 754.613 329.687 754.613 329.687 751.847C326.92 749.08 332.453 743.548 337.986 746.314C337.986 749.081 337.987 751.847 335.22 751.847ZM337.986 771.187C337.986 776.719 335.219 779.486 332.453 779.486C329.686 782.252 326.92 773.953 329.687 771.187C332.453 765.679 337.986 765.679 337.986 771.187ZM332.453 729.741C329.686 726.974 329.687 724.208 329.687 721.442C332.453 715.909 332.454 715.909 335.22 721.442C337.987 724.208 337.986 726.974 337.986 729.741C335.22 732.507 335.219 732.507 332.453 729.741ZM332.453 707.635L329.687 702.102C326.92 696.569 332.454 685.529 335.22 685.529C335.22 685.529 337.986 685.529 337.986 688.295C340.753 693.828 340.753 696.595 337.986 702.102L332.453 707.635ZM318.647 790.526C313.114 787.76 313.114 784.993 318.647 782.227C321.413 779.46 324.18 779.46 326.946 782.227C326.946 782.227 326.946 784.993 326.946 787.76C324.154 793.292 324.154 793.292 318.647 790.526ZM326.92 809.891C326.92 812.658 326.92 815.424 326.92 815.424C324.153 818.191 321.387 818.191 321.387 815.424C318.621 809.891 318.621 807.125 324.154 807.125C324.154 807.125 326.92 807.125 326.92 809.891ZM310.347 776.719C307.581 771.186 310.348 765.653 315.881 768.42V776.719C313.114 782.252 313.114 782.252 310.347 776.719ZM318.647 765.679C315.88 762.913 324.18 754.613 326.946 757.38C326.946 757.38 326.946 760.146 326.946 762.913C326.92 768.42 321.387 768.42 318.647 765.679ZM321.387 740.807C318.621 735.274 318.621 735.274 321.387 732.507C324.154 729.741 326.92 729.741 326.92 735.274C329.686 743.573 326.92 746.314 321.387 740.807ZM213.623 848.571C224.663 834.764 238.497 820.931 255.07 804.358C263.369 796.059 274.409 782.252 285.475 771.187C293.774 760.121 304.814 749.081 307.58 746.314L313.113 740.781L318.647 746.314C321.413 751.847 315.88 757.38 310.347 754.613C304.814 749.08 302.048 754.613 304.814 760.146C307.58 762.913 307.58 765.679 299.281 773.953C293.748 779.486 285.475 790.526 282.708 796.059C277.176 801.592 274.409 804.358 274.409 804.358C274.409 801.592 271.642 801.592 271.642 801.592C266.109 801.592 255.069 812.658 238.47 834.764C230.17 845.83 221.897 856.87 221.897 859.636C219.131 862.403 216.365 862.403 213.598 862.403L205.299 859.636L213.623 848.571ZM302.048 829.231C304.814 823.698 304.814 823.698 307.58 829.231C310.347 831.998 310.347 834.764 310.347 837.53C310.347 840.297 307.58 843.063 304.814 843.063C302.048 843.038 299.307 834.738 302.048 829.231ZM313.113 843.038C313.113 843.038 315.881 843.038 315.881 845.804C315.881 848.571 313.113 851.337 313.113 851.337C310.347 851.337 310.347 848.571 310.347 848.571C310.347 845.804 310.347 843.038 313.113 843.038ZM310.347 826.465C310.347 818.165 313.114 815.399 315.881 820.932V829.231C313.114 829.231 313.114 829.231 310.347 826.465ZM310.347 798.826C310.347 796.059 310.347 793.293 310.347 793.293C313.114 790.526 318.647 793.293 318.647 798.826C318.647 804.358 313.114 807.125 310.347 798.826ZM318.647 834.738C321.413 831.972 324.18 831.972 326.946 837.505C326.946 837.505 326.946 840.271 326.946 843.038C329.713 845.804 321.413 845.804 318.647 840.271C318.647 840.271 318.647 837.505 318.647 834.738ZM326.92 831.997C324.153 823.698 329.686 818.191 332.453 823.698C335.219 826.464 335.22 831.997 335.22 831.997C332.454 837.504 329.686 837.504 326.92 831.997ZM329.687 807.125C326.92 807.125 326.92 798.826 329.687 796.085C335.22 790.552 337.987 796.085 335.22 801.618C335.22 804.358 332.453 807.125 329.687 807.125ZM337.986 809.891V812.658C340.753 820.957 337.987 820.957 335.22 818.191C335.22 815.399 335.22 812.632 337.986 809.891ZM340.752 707.635C346.285 702.102 346.285 702.102 351.792 704.868C354.559 707.635 351.793 710.401 349.026 713.168C343.493 718.701 340.727 718.701 340.727 715.934C337.986 713.168 337.986 710.401 340.752 707.635ZM340.752 735.274C343.519 729.741 349.052 729.741 346.286 735.274C346.286 740.807 346.285 743.573 349.052 743.573C343.519 746.314 337.986 740.807 340.752 735.274ZM354.56 721.467C357.326 715.934 357.326 715.934 357.326 721.467C357.326 724.234 357.326 729.767 357.326 729.767C354.559 732.533 354.559 732.533 351.792 729.767C349.026 726.974 349.027 724.208 354.56 721.467ZM354.56 699.361C351.793 696.595 351.793 696.595 354.56 693.828C357.326 691.062 360.092 691.062 360.092 691.062V699.361C357.325 702.102 357.326 702.102 354.56 699.361ZM351.792 668.956C351.792 668.956 351.793 666.189 354.56 663.423C357.326 663.423 360.092 666.189 360.092 671.722C362.858 674.489 354.559 674.489 351.792 668.956ZM360.092 655.149C362.858 655.149 365.625 655.149 365.625 657.916C365.625 660.682 365.625 663.449 365.625 663.449C360.092 663.423 357.325 657.89 360.092 655.149ZM357.326 630.277C357.326 627.51 360.093 627.51 362.859 630.277C365.625 630.277 368.391 633.043 368.391 635.81C368.391 638.576 365.625 641.343 365.625 641.343C360.092 644.083 354.559 635.784 357.326 630.277ZM360.092 605.404C360.092 597.105 362.859 597.105 365.625 602.638C365.625 605.404 365.625 608.171 362.859 610.937C360.093 613.704 360.092 610.937 360.092 605.404ZM105.859 470.002C108.626 470.002 108.626 470.001 105.859 478.301C100.326 489.367 94.8204 494.874 94.8204 492.108C94.8204 483.808 103.093 470.002 105.859 470.002ZM92.0531 481.042L89.287 472.742C86.5205 467.209 89.2874 464.443 94.8204 467.209C97.5868 467.209 97.5868 467.209 94.8204 472.742L92.0531 481.042ZM103.093 503.148C105.86 500.381 111.392 492.082 116.899 486.575C119.666 478.275 122.434 475.534 125.2 475.534C130.733 475.534 125.199 483.834 111.393 503.173C108.626 508.706 103.093 516.98 100.352 516.98C97.5859 519.747 97.5861 511.447 103.093 503.148ZM310.347 481.042C315.88 481.042 313.113 481.042 307.58 489.341C304.814 492.108 293.774 503.148 288.241 514.214C279.941 525.254 266.136 541.853 255.07 552.893C246.77 563.959 235.73 577.765 230.197 583.298C221.897 594.364 216.39 597.105 221.897 586.065C221.897 583.298 230.196 572.258 238.47 561.192C246.769 552.893 263.342 533.553 271.642 522.513C293.774 489.341 304.814 478.301 310.347 481.042ZM326.92 467.235C291.007 472.768 266.134 472.768 227.43 472.768C172.152 472.768 150.072 470.002 111.367 461.728L92.0278 456.195L105.834 450.662C119.641 442.362 136.24 439.596 177.685 431.322C210.831 425.789 219.131 423.023 279.916 423.023L337.934 420.256L335.168 428.556C329.635 447.895 343.467 456.195 368.339 447.895C384.912 445.129 390.446 445.129 390.446 450.662C390.472 458.935 371.132 461.702 326.92 467.235ZM365.625 434.089C360.092 439.622 349.052 445.129 346.286 439.622V420.282C349.052 411.983 351.819 387.136 351.819 370.537C357.352 320.792 357.352 323.559 371.158 320.792C384.965 318.026 384.965 315.259 379.458 340.132C376.691 351.172 373.925 373.278 371.158 392.643C371.133 414.723 368.366 428.556 365.625 434.089ZM224.69 903.823V901.056C224.69 901.056 227.456 901.056 227.456 903.823C230.223 909.356 227.456 909.356 224.69 903.823ZM260.602 912.122C260.602 912.122 255.069 903.823 252.302 895.549C249.536 887.25 246.769 881.743 244.003 881.743C241.236 881.743 241.236 890.042 246.769 901.082C249.535 903.849 249.536 909.381 249.536 912.148C249.536 914.914 241.237 903.848 241.237 895.575C238.47 890.042 235.704 887.275 235.704 887.275C232.937 884.509 232.937 901.082 238.47 906.615C238.47 909.382 238.47 912.148 238.47 912.148C235.703 912.148 232.938 906.615 232.938 901.082C227.405 892.783 224.638 887.275 224.638 892.783C224.638 895.549 221.871 895.549 219.105 895.549C216.338 892.783 216.339 895.549 216.339 901.082C221.872 912.148 219.105 909.381 213.572 898.316C208.039 887.25 208.038 887.25 208.038 892.783L205.272 901.082L202.506 892.783L196.973 884.483V892.783C194.206 898.316 194.206 898.316 191.44 892.783C188.673 887.25 188.674 887.25 185.907 895.549C185.907 901.082 185.907 901.082 183.14 895.549C180.374 892.783 174.841 890.016 172.1 887.25C166.567 887.25 149.994 859.611 144.461 845.804C141.695 840.271 138.928 820.931 136.162 804.358C136.162 782.252 130.629 762.913 125.122 746.34C111.315 696.595 89.2088 633.043 89.2088 630.277C86.4423 627.51 86.4427 624.744 86.4427 621.977C86.4427 619.211 83.6763 613.678 78.1434 605.404C69.8439 586.065 50.5048 528.046 44.9977 511.447C44.9977 503.148 42.2309 486.575 39.4644 470.002C36.6979 456.195 31.165 436.83 31.165 431.322C17.3585 376.07 9.05824 320.792 9.05824 298.686C9.05824 287.646 11.8246 268.281 17.3576 268.281H20.1249C20.1249 271.047 28.4243 276.58 39.4644 282.087C50.5045 287.594 61.5707 293.153 64.3372 295.894C64.3372 298.66 69.8696 298.66 75.4026 301.427C78.1691 301.427 97.5089 306.96 119.615 312.493C194.232 329.066 196.998 331.832 252.251 331.832C290.93 331.832 313.037 331.832 326.869 329.066C337.909 326.299 346.209 326.299 346.209 326.299C346.209 326.299 346.208 342.872 343.441 364.978C343.441 384.318 340.675 403.658 340.675 409.191C340.675 414.723 340.674 414.724 337.908 411.957C329.608 406.424 191.465 414.723 169.359 423.023C161.06 425.789 147.254 428.556 138.954 431.322C127.914 431.322 111.315 436.855 100.275 442.388C72.6364 453.454 72.636 456.195 83.7019 492.133C86.4684 505.94 92.0013 525.28 92.0013 536.345C94.7678 547.411 100.301 566.751 103.068 580.557C108.601 602.663 111.367 613.704 122.407 663.449C122.407 671.748 125.173 682.788 127.94 688.321C130.706 693.854 138.98 724.234 138.98 724.234C138.98 724.234 138.98 729.767 141.747 735.274C144.513 740.807 147.279 746.34 144.513 754.613C144.513 760.146 144.513 762.913 147.279 762.913C147.279 762.913 150.046 765.679 150.046 768.446C150.046 773.979 155.579 785.019 158.346 793.318C161.112 801.618 163.879 815.424 166.645 823.724C172.178 856.87 172.177 856.87 188.751 865.169C202.557 870.702 216.39 873.469 238.496 873.469L249.562 876.235L257.861 895.575C260.602 906.589 263.368 912.122 260.602 912.122ZM257.836 876.21C257.836 867.91 260.602 873.443 266.135 890.016C268.901 895.549 268.901 903.823 268.901 903.823C266.135 903.823 257.836 881.717 257.836 876.21ZM279.941 903.823C277.175 903.823 268.901 884.483 268.901 876.184C268.901 867.884 271.667 873.417 277.2 884.483C279.967 892.783 282.734 898.29 282.734 901.056C285.474 901.056 282.708 903.823 279.941 903.823ZM291.008 898.316C291.008 903.849 288.241 901.082 282.708 884.509C277.176 870.702 277.175 870.702 279.941 870.702C282.708 870.702 285.474 873.469 288.241 881.743C291.007 887.25 293.774 895.549 291.008 898.316ZM307.58 903.823C302.047 903.823 299.281 898.29 296.54 890.016C296.54 881.717 293.774 876.21 291.008 876.21C288.241 873.443 288.24 870.677 296.54 870.677C299.306 870.677 302.073 870.677 302.073 873.443C302.073 873.443 302.074 878.976 304.841 881.743C307.607 884.509 310.373 887.275 304.841 890.042C302.074 892.808 302.074 895.575 307.607 895.575C313.14 895.575 313.14 898.341 313.14 901.108C313.114 901.056 310.347 903.823 307.58 903.823ZM321.387 895.549C318.621 898.315 315.855 892.783 313.088 881.743C310.322 876.21 307.555 870.702 304.789 870.702C302.022 867.936 302.022 865.169 304.789 865.169C307.555 865.169 313.088 870.702 315.854 878.976C321.387 887.25 324.154 895.549 321.387 895.549ZM321.387 876.21C315.855 867.91 315.854 862.403 315.854 859.636C318.621 856.87 321.387 862.403 326.894 870.702C332.453 887.25 329.687 892.783 321.387 876.21ZM346.26 876.21C340.727 878.976 337.96 884.509 337.96 884.509C335.193 884.509 324.153 856.87 326.92 854.104C329.686 848.571 335.22 854.103 340.727 865.169C340.727 870.702 343.494 870.702 346.26 870.702C349.027 870.677 349.027 870.677 346.26 876.21ZM354.56 862.377C349.027 865.144 346.26 865.144 343.52 859.611C337.987 854.078 337.986 848.545 337.986 845.804C340.753 840.271 343.519 840.271 346.286 848.571C349.052 854.104 351.818 859.636 354.585 859.636C360.092 859.611 360.093 859.611 354.56 862.377ZM360.092 848.571C357.325 854.104 357.325 854.103 351.792 845.804C346.259 840.271 346.26 831.997 346.26 831.997C346.26 829.231 349.026 826.464 349.026 823.698C349.026 818.165 349.027 820.932 354.56 826.465C357.326 829.231 360.092 834.764 360.092 837.505V848.571ZM368.366 812.632V823.698C365.599 826.464 365.599 826.464 357.326 818.165C349.026 809.866 349.026 807.099 351.792 801.592C354.559 798.826 357.325 798.825 360.092 804.358C362.858 807.125 365.625 809.891 368.391 809.891C368.365 809.891 368.366 809.891 368.366 812.632ZM371.132 801.592V807.125L362.833 798.826C360.066 796.059 357.299 790.526 357.299 785.019V776.719L365.6 785.019C371.133 790.526 373.898 796.059 371.132 801.592ZM376.665 765.679C376.665 773.979 373.898 785.019 371.132 785.019C368.365 785.019 360.092 768.446 360.092 762.913C360.092 754.613 362.859 754.613 365.625 760.146C368.392 762.913 371.158 765.679 371.158 762.913C373.925 762.913 373.924 760.146 368.391 754.613C362.858 746.314 360.093 743.573 362.859 738.04C365.625 726.974 365.626 726.974 373.899 738.04C379.432 746.314 379.432 749.08 376.665 765.679ZM379.431 735.274C373.898 732.507 365.625 718.701 368.391 713.168C371.158 710.401 371.157 710.401 376.69 715.934C382.223 724.234 382.223 715.934 376.69 704.868C368.391 696.569 368.392 685.529 371.158 688.295C376.691 688.295 384.965 704.868 384.965 713.168C384.965 726.974 382.198 735.274 379.431 735.274ZM379.431 688.295C371.132 671.722 371.133 666.189 382.199 679.996C384.965 685.529 387.731 691.062 387.731 693.802C387.705 696.595 384.964 696.595 379.431 688.295ZM390.471 679.996C384.938 679.996 373.899 660.656 376.665 652.357C376.665 646.824 376.665 646.824 384.965 657.89C387.731 660.656 390.498 668.956 390.498 671.696C390.472 674.489 390.471 679.996 390.471 679.996ZM393.239 655.149C393.239 652.383 390.472 652.383 387.705 652.383C382.172 652.383 379.406 641.343 379.406 633.043C382.172 627.51 382.172 627.51 387.705 635.81C393.238 641.343 393.239 649.616 393.239 652.383C393.239 655.149 393.239 655.149 393.239 655.149ZM384.965 619.211C379.432 610.911 382.198 605.404 387.731 613.678C390.497 616.444 393.265 621.977 396.031 621.977C398.798 621.977 401.563 621.977 401.563 627.51C401.537 635.784 390.472 633.043 384.965 619.211ZM401.538 613.678C396.005 613.678 384.965 597.105 384.965 594.338C384.965 588.805 384.964 588.805 387.731 594.338C396.03 605.378 398.771 597.105 393.264 586.039C387.731 583.272 387.731 577.739 387.731 574.999C387.731 569.466 387.731 569.466 390.498 574.999C390.498 577.765 396.031 583.298 398.797 586.039C404.33 591.572 404.331 597.105 404.331 605.378C401.538 610.937 401.538 613.678 401.538 613.678ZM396.005 572.232C384.965 555.659 382.198 541.827 390.471 555.659L401.512 566.699C407.044 572.232 407.045 574.999 407.045 580.506C404.304 583.298 404.304 583.298 396.005 572.232ZM409.837 550.126C409.837 550.126 407.071 547.36 401.538 541.827C398.772 533.527 396.005 533.527 396.005 536.294C396.005 539.06 398.772 544.593 401.538 550.1C404.305 555.607 409.837 561.14 409.837 563.907C409.837 566.673 407.07 563.907 398.771 552.841C393.238 541.801 390.471 536.268 390.471 527.968C390.471 519.669 390.472 516.902 393.239 522.435C401.538 528.02 412.578 544.619 409.837 550.126ZM412.578 533.553C412.578 536.32 407.045 528.02 407.045 525.254C407.045 522.487 407.044 522.487 409.811 525.254C412.577 530.787 415.345 533.553 412.578 533.553ZM412.578 519.747C409.812 516.98 409.811 508.706 415.344 508.706C415.344 508.706 418.11 511.473 418.11 514.239C418.11 522.513 415.345 522.513 412.578 519.747ZM437.45 464.469L434.684 475.534V464.469C434.684 458.936 434.683 456.169 437.45 456.169V453.403C437.45 450.636 437.45 450.636 437.45 450.636C440.216 450.636 440.217 450.636 440.217 450.636C440.217 450.636 440.216 456.195 437.45 464.469ZM467.856 276.58C467.856 306.986 462.323 348.431 456.816 370.537C454.049 378.837 454.05 389.877 454.05 395.41C454.05 411.983 443.009 445.155 440.242 442.388V434.089C440.242 434.089 443.01 425.789 443.01 420.282C443.01 411.983 445.776 400.943 445.776 398.176C451.309 387.136 448.543 381.603 443.01 392.643C440.243 398.176 440.243 395.41 445.776 365.004C445.776 353.964 445.776 353.964 443.01 362.238C443.01 365.004 440.243 370.537 437.476 370.537C434.71 370.537 434.71 370.537 434.71 373.304L437.476 376.07C440.243 376.07 440.243 376.07 437.476 387.136C437.476 389.903 434.71 400.943 434.71 412.009C434.71 423.075 431.943 431.348 431.943 434.115C429.176 434.115 429.177 436.881 429.177 439.648C429.177 442.414 429.177 445.181 426.411 445.181C420.878 445.181 420.878 445.181 426.411 453.48C429.177 461.78 429.176 461.78 423.644 456.247C418.111 450.714 418.11 450.714 418.11 456.247C418.11 459.013 418.111 461.78 420.878 461.78C423.644 464.546 423.643 470.079 418.11 467.313C409.811 464.546 409.811 470.079 418.11 475.612C420.877 475.612 420.878 478.379 420.878 481.145C418.111 483.912 415.345 481.145 412.578 478.379C404.279 470.079 404.279 478.378 412.578 486.678C415.345 489.444 420.878 494.977 420.878 497.744V506.043L412.578 500.51C407.045 492.211 404.279 492.211 404.279 500.51H401.512C398.745 497.744 395.979 494.977 395.979 497.744C393.213 500.51 395.979 503.277 401.512 511.55C404.278 517.083 404.279 519.85 404.279 519.85C401.512 519.85 398.746 514.317 395.979 511.55C390.446 506.017 390.446 503.251 393.212 483.911C395.979 470.105 398.745 459.039 401.512 456.273C404.278 450.74 401.511 447.973 390.471 439.699L379.431 428.659L382.199 395.487C382.199 362.341 390.498 309.83 393.239 312.596C398.772 312.596 445.75 287.724 459.556 276.684L467.856 268.384V276.58ZM429.177 207.496C462.349 224.069 473.389 246.175 454.05 268.281C448.517 273.814 434.709 282.087 420.903 287.62L398.797 298.66L401.563 279.321C404.33 240.642 409.863 196.43 409.863 199.196C412.577 199.196 420.877 201.963 429.177 207.496ZM412.578 124.604C412.578 130.137 407.045 166.05 401.538 201.963C396.005 237.875 393.239 271.047 393.239 279.347C393.239 293.153 387.705 306.986 379.431 309.752C368.391 312.519 360.093 312.519 362.859 306.986C365.625 301.453 368.392 276.58 376.665 218.562C390.472 132.904 396.004 108.031 398.771 96.9913L404.304 85.9512L409.837 94.2507C415.37 99.7837 415.371 102.55 415.371 108.057C412.578 110.772 412.578 119.071 412.578 124.604ZM542.448 36.1803C523.108 41.7133 462.322 66.5858 448.49 74.8595C442.957 77.6259 437.45 83.1588 434.684 83.1588C431.917 88.6918 429.151 85.9254 423.618 80.3925L415.319 72.0929L431.891 61.0269C462.297 44.4539 484.404 36.1545 536.889 19.5814C550.696 14.0485 553.462 14.0485 556.229 19.5814C561.813 27.8809 561.813 30.6473 542.448 36.1803Z" fill="#B2B2B2"/>
</svg>
