<svg width="693" height="584" viewBox="0 0 693 584" fill="none" xmlns="http://www.w3.org/2000/svg">
<path d="M525.911 134.797C528.678 137.563 528.678 140.33 536.951 137.563C545.251 134.797 559.058 123.757 559.058 115.457C559.058 109.924 550.758 107.158 542.485 107.158C534.185 107.158 523.145 126.497 525.911 134.797ZM548.018 115.457C550.785 115.457 548.018 120.99 542.485 126.523C534.185 132.056 534.185 132.056 534.185 129.29C534.185 126.523 542.485 115.457 548.018 115.457Z" fill="#B2B2B2"/>
<path d="M542.484 162.41C539.718 167.943 542.484 181.75 550.784 192.816C556.317 203.881 556.317 203.881 561.824 198.349C567.357 192.816 567.357 176.242 561.824 165.202C553.55 154.136 548.017 154.136 542.484 162.41ZM556.29 179.009C556.29 184.542 556.291 187.308 553.524 181.775C550.758 173.476 550.757 165.202 556.29 167.969C556.29 170.71 559.057 176.243 556.29 179.009Z" fill="#B2B2B2"/>
<path d="M517.612 98.8584C523.145 101.625 536.952 98.8584 539.719 93.3254C539.719 90.5589 539.718 82.2596 536.951 79.5189C534.185 76.7783 525.912 76.7524 520.379 79.5189C512.08 85.0519 509.338 96.0919 517.612 98.8584ZM528.679 87.8183C528.679 87.8183 531.445 87.8181 531.445 90.5846L528.679 93.3513C525.912 93.3513 525.911 90.5846 525.911 90.5846C525.911 87.8181 525.912 87.8183 528.679 87.8183Z" fill="#B2B2B2"/>
<path d="M586.696 176.242C592.229 181.775 600.502 179.009 603.268 167.943C606.035 159.643 594.97 134.771 586.696 132.03C581.163 126.497 581.163 126.497 578.397 132.03C570.123 140.304 575.656 167.943 586.696 176.242ZM583.929 148.603C583.929 140.304 583.929 140.304 589.462 143.07C592.229 145.837 594.996 151.37 594.996 156.877C594.996 165.176 594.996 170.683 592.23 170.683C589.463 170.683 581.162 156.903 583.929 148.603Z" fill="#B2B2B2"/>
<path d="M467.867 286.773C467.867 297.839 467.867 303.346 470.633 303.346C473.4 303.346 473.399 297.813 473.399 286.773C470.633 267.433 467.867 267.433 467.867 286.773Z" fill="#B2B2B2"/>
<path d="M398.808 148.604H409.848C415.381 148.604 418.147 145.837 423.655 140.304C429.188 129.238 426.421 123.731 418.121 120.964C407.081 118.224 390.509 140.304 398.808 148.604ZM415.38 137.563C409.847 143.096 407.081 143.096 407.081 140.33C407.081 134.797 412.614 132.03 415.38 132.03C420.913 132.03 418.147 132.03 415.38 137.563Z" fill="#B2B2B2"/>
<path d="M407.082 101.625C415.381 107.158 418.123 107.158 420.889 101.625C423.656 93.3256 423.655 87.8186 418.122 82.2856C412.589 73.9861 412.589 73.9863 407.082 79.5192C401.549 85.0522 401.549 98.8586 407.082 101.625Z" fill="#B2B2B2"/>
<path d="M409.848 170.709C396.042 170.709 393.275 184.516 401.549 201.115C404.315 206.648 407.082 212.181 409.848 212.181C415.381 212.181 423.654 201.115 423.654 192.841C423.654 184.516 412.615 170.709 409.848 170.709ZM407.081 192.816C404.314 187.283 404.314 181.75 407.081 181.75C409.847 181.75 412.614 181.75 412.614 187.283C415.381 192.816 409.847 198.349 407.081 192.816Z" fill="#B2B2B2"/>
<path d="M448.528 123.731C465.101 132.031 476.167 123.731 467.867 112.665C465.101 104.366 456.827 101.625 448.528 107.132C440.254 109.924 440.254 120.965 448.528 123.731ZM456.827 112.691C459.594 112.691 462.359 112.691 462.359 115.457C462.359 120.99 454.06 120.99 451.294 118.224C448.527 115.457 451.294 112.691 456.827 112.691Z" fill="#B2B2B2"/>
<path d="M465.126 167.943C467.892 165.176 465.125 162.41 462.359 151.37C454.059 137.563 454.059 137.563 443.019 143.07C437.486 145.837 440.253 154.136 445.786 165.177C451.294 173.476 459.593 173.476 465.126 167.943ZM451.293 151.37C451.293 151.37 454.059 151.37 454.059 156.903C454.059 159.669 454.059 162.436 454.059 162.436C454.059 162.436 451.293 162.436 451.293 159.669C451.293 154.136 451.293 151.37 451.293 151.37Z" fill="#B2B2B2"/>
<path d="M398.809 57.4128C401.576 51.8798 401.576 49.1134 398.809 43.6063C396.043 38.0733 393.276 32.5401 393.276 29.7995C390.509 21.5001 382.21 24.2667 379.47 32.5662C373.937 40.8656 376.703 43.6319 379.47 54.672C387.743 68.4786 393.276 71.2452 398.809 57.4128ZM387.742 40.8397C390.509 40.8397 393.276 40.8397 393.276 46.3727C393.276 49.1392 390.51 54.672 390.51 54.672C390.51 54.672 387.742 49.1392 387.742 46.3727C384.976 40.8397 384.976 40.8397 387.742 40.8397Z" fill="#B2B2B2"/>
<path d="M224.7 284.006C221.933 284.006 221.934 286.773 221.934 289.539C219.167 295.072 221.933 297.838 224.7 297.838C227.466 297.838 230.233 295.072 227.467 289.539C227.467 286.773 227.466 284.006 224.7 284.006Z" fill="#B2B2B2"/>
<path d="M25.7718 422.175C9.19879 422.175 9.19919 427.708 11.9657 449.814C17.4986 474.687 25.7726 494.026 36.8385 502.326C42.3715 505.092 50.6446 513.392 58.944 518.899C83.8165 538.238 94.8562 543.771 152.901 560.344C172.24 568.644 202.647 571.41 246.859 574.151C280.005 576.917 321.476 579.684 324.217 582.45C329.75 585.217 415.407 579.684 467.893 571.41C473.425 571.41 489.999 568.644 509.339 568.644C545.251 565.877 564.616 560.344 597.762 543.771C628.168 527.198 644.741 516.132 666.847 480.22C688.953 447.074 694.487 436.008 691.72 422.201V411.135H653.04L655.807 402.836C655.807 400.069 658.573 394.536 658.573 394.536C666.873 389.003 666.873 383.496 664.107 375.197C661.34 361.39 664.106 353.091 675.172 347.558C680.705 344.791 683.471 342.025 683.471 339.258C683.471 339.258 675.173 333.725 666.899 328.218C644.793 317.152 642.026 314.412 644.792 303.346V289.539C642.026 284.006 642.026 281.24 650.326 272.966C666.899 256.393 675.198 239.82 675.198 217.714C675.198 201.141 666.899 179.035 661.392 173.502C658.626 170.735 655.859 167.969 655.859 165.202C650.326 154.136 639.285 143.096 614.413 115.457C603.373 104.391 595.073 93.3511 595.073 90.5846C595.073 90.5846 584.008 82.2854 572.968 74.0118C561.928 65.7124 548.094 57.4386 542.561 51.9057C539.795 49.1392 534.262 46.3727 534.262 46.3727C534.262 46.3727 525.964 40.8398 517.69 38.0733C506.65 32.5403 495.584 27.0332 490.051 27.0332C487.285 27.0332 479.01 24.2666 476.244 21.5001C470.711 21.5001 465.204 18.7338 462.437 18.7338C456.904 18.7338 445.865 15.9673 434.799 13.2008C343.608 -3.37227 280.056 -3.37227 224.778 13.2008C208.205 18.7338 197.139 21.5001 191.631 21.5001C186.099 18.7337 186.099 21.5003 186.099 24.2668C186.099 27.0333 183.333 29.7995 180.566 29.7995C177.8 32.566 175.033 32.5662 175.033 32.5662C172.266 35.3327 166.733 38.099 163.993 40.8655C144.653 49.165 125.314 62.9718 114.248 74.0377C108.715 79.5707 103.207 85.0775 100.441 85.0775C94.9078 85.0775 72.8023 107.184 67.2951 118.25C64.5287 126.549 61.7623 126.549 58.9958 123.783C56.2293 123.783 56.2298 123.783 56.2298 123.783C56.2298 126.549 56.2293 129.315 58.9958 129.315C61.7623 129.315 61.7619 132.082 53.4625 143.122C50.696 148.655 42.4232 162.462 36.8903 176.268C31.3573 187.334 25.8493 201.141 23.0828 203.907C23.0828 206.674 20.3172 220.48 17.5508 231.546C12.0178 242.612 9.25014 253.652 9.25014 253.652C6.48366 256.419 20.2906 275.758 25.8236 281.291C34.1231 284.058 36.8637 286.824 36.8637 295.098C36.8637 303.397 34.0974 306.164 28.5644 306.164C20.2649 308.93 0.925537 328.27 0.925537 333.803C0.925537 336.569 0.92589 342.102 6.45886 342.102C11.9918 344.869 11.9909 347.635 11.9909 350.402C9.22444 355.935 14.7573 397.38 20.2903 402.913C23.0568 405.68 28.5904 408.446 31.3569 408.446C45.1118 408.343 39.5784 419.409 25.7718 422.175ZM655.781 184.516C655.781 181.75 655.781 181.749 655.781 181.749C655.781 181.749 658.548 181.75 658.548 184.516C658.548 187.283 658.547 190.049 655.781 190.049C655.781 190.049 655.781 187.283 655.781 184.516ZM454.06 27.0332C459.593 27.0332 473.4 43.6063 478.933 62.9458C484.466 74.0117 481.699 79.5189 478.933 68.4788C476.166 65.7123 467.892 54.6721 462.359 46.3727C454.06 35.3067 448.553 27.0332 448.553 27.0332C448.553 27.0332 451.293 27.0332 454.06 27.0332ZM307.618 7.69366C313.151 7.69366 324.19 24.2667 343.53 57.4387C349.063 74.0117 354.57 87.8442 354.57 87.8442C354.57 87.8442 349.037 82.3111 346.27 71.271C340.737 62.9716 332.464 49.165 326.931 40.8655C307.617 18.7336 302.085 7.69366 307.618 7.69366ZM232.999 76.7523C238.532 87.7924 238.533 93.3254 230.233 82.2853C221.934 71.2452 199.828 49.1393 191.554 43.6063C188.788 38.0733 186.021 35.3066 186.021 35.3066C191.554 32.5401 224.7 65.7122 232.999 76.7523ZM23.0058 256.367C23.0058 239.794 50.645 159.644 56.178 154.136C58.9445 151.37 64.4771 143.071 69.9842 134.797C83.7907 109.924 94.8573 98.8842 119.73 76.7782C144.602 57.4386 169.475 40.8657 175.008 43.6322C188.814 49.1652 208.154 68.5047 227.519 93.3772C235.819 104.417 257.924 143.122 257.924 148.655C257.924 148.655 257.924 151.422 260.69 154.188C268.99 159.721 274.497 156.955 271.757 148.655C263.457 112.743 260.691 107.21 244.118 82.3371C235.818 68.5305 222.011 51.9317 213.712 43.6581L199.906 29.8513L222.011 21.5519C260.69 10.486 291.096 4.97877 293.862 10.4859C293.862 10.4859 302.162 24.2925 310.436 35.3584C318.735 46.4243 329.775 62.9976 332.541 68.5047C340.841 82.3113 357.415 126.523 360.181 140.356C360.181 148.655 362.947 151.396 365.713 148.655C371.246 148.655 371.247 145.889 371.247 126.549C371.247 98.91 362.947 79.5705 343.608 40.8914L327.034 7.74542H346.374C360.181 7.74542 376.78 10.5119 387.82 13.2784C398.86 16.0449 412.692 18.8111 420.991 18.8111C426.524 18.8111 432.031 21.5776 432.031 24.3441C432.031 24.3441 437.564 32.6438 443.071 38.1509C470.71 65.7899 490.051 110.002 492.817 143.148C495.584 159.721 501.117 168.021 503.857 156.955V137.615C501.091 129.316 498.324 115.509 498.324 101.702C498.324 85.1294 490.024 63.0233 478.984 35.3843C476.218 29.8513 498.325 38.1507 520.431 49.1908C542.537 60.2308 564.642 76.8299 595.048 107.21C628.194 140.356 644.792 162.462 644.792 173.528C644.792 179.061 647.559 184.594 650.326 187.334C653.092 195.634 653.093 234.313 647.56 242.612C642.027 250.912 642.026 250.912 642.026 214.973C642.026 184.568 639.259 173.528 636.493 179.061C636.493 179.061 636.493 187.36 636.493 195.634C642.026 217.74 636.493 261.952 628.194 267.485L622.66 273.018L625.428 250.912C628.194 223.273 625.427 184.594 619.894 187.36C619.894 187.36 617.128 190.127 617.128 192.893C619.895 203.959 619.895 275.784 617.128 275.784C614.362 278.551 611.595 281.317 608.829 281.317C603.296 284.084 603.295 281.317 606.062 273.018C608.828 261.978 606.062 223.273 603.295 209.466C600.529 198.4 594.996 201.167 597.762 212.233C600.529 231.572 603.296 253.678 600.529 267.485C597.763 284.058 597.763 286.824 589.489 289.591C581.19 292.357 581.19 292.357 583.956 275.784C586.722 256.445 586.722 212.232 583.956 209.466C581.19 206.699 578.423 209.466 578.423 212.233C578.423 214.999 578.423 217.765 581.19 220.532C581.19 228.831 578.423 281.317 575.657 286.85C572.89 295.15 567.357 297.916 567.357 289.616C572.89 278.551 567.356 223.299 564.59 223.299C559.057 223.299 559.057 231.598 561.824 234.364C564.59 237.131 564.59 275.81 561.824 292.383C561.824 300.683 561.824 303.449 553.525 303.449H547.991V284.11C550.758 262.004 545.226 234.364 542.459 237.131C539.693 237.131 539.692 248.197 539.692 270.277L542.459 303.423H525.886V273.018C528.652 250.912 525.886 242.612 525.886 242.612C523.119 242.612 520.352 248.145 520.352 259.185V289.591C517.586 303.397 517.586 306.164 509.312 306.164C503.779 306.164 501.012 303.397 503.779 300.631C503.779 295.098 506.546 275.758 506.546 261.952C506.546 259.185 503.779 256.419 503.779 256.419C501.012 256.419 501.013 267.485 501.013 281.291C501.013 303.397 498.246 306.164 495.48 306.164C489.947 306.164 489.948 303.397 489.948 284.058C489.948 270.251 487.181 261.952 484.414 264.718C484.414 264.718 481.648 273.018 481.648 284.058L484.414 306.164L467.841 303.397H454.035V292.331C454.035 272.992 451.269 272.992 451.269 278.525C448.502 281.291 448.501 289.591 448.501 295.098C445.735 308.905 440.202 308.904 437.461 292.331C434.695 278.525 431.929 278.525 431.929 292.331C431.929 300.631 429.161 303.397 423.628 303.397C415.329 303.397 415.329 300.631 415.329 289.591C415.329 284.058 412.563 281.291 412.563 281.291C409.797 281.291 409.797 286.824 409.797 292.331C409.797 303.397 401.497 306.138 398.757 295.098C398.757 289.565 395.99 286.798 393.224 286.798C393.224 286.798 390.457 289.565 393.224 295.098C393.224 300.631 393.223 303.397 387.69 303.397C384.924 303.397 382.158 300.631 382.158 295.098C382.158 289.565 379.391 286.798 376.625 286.798C376.625 286.798 373.858 289.565 376.625 295.098C376.625 300.631 376.624 303.397 373.858 303.397C371.091 303.397 371.091 300.631 371.091 300.631C371.091 297.864 371.091 295.098 365.558 292.331C360.025 286.798 360.026 289.565 360.026 297.864C362.793 303.397 357.259 303.397 354.493 295.098C351.726 289.565 348.959 292.331 348.959 297.864C348.959 300.527 338.695 300.631 315.814 300.631C318.58 300.631 318.58 292.332 315.814 289.591C310.281 286.824 307.514 292.357 310.28 297.89C310.28 297.89 313.047 300.657 315.814 300.657C314.909 300.657 314.003 300.657 313.047 300.657L274.368 303.423L277.135 295.124C277.135 289.591 277.134 286.824 274.368 289.591C274.368 289.591 271.601 292.357 271.601 295.124C268.835 306.19 255.028 303.423 255.028 295.124C252.262 286.824 246.729 286.824 246.729 295.124C246.729 297.89 243.962 300.657 238.429 300.657H216.324C205.284 300.657 202.517 300.657 205.284 297.89C208.05 295.124 205.283 289.591 199.75 289.591C199.75 289.591 199.75 292.357 199.75 295.124C199.75 300.657 196.984 303.423 191.451 303.423C185.918 303.423 185.918 300.657 183.152 295.124C183.152 289.591 180.385 286.824 177.618 286.824C177.618 286.824 174.852 289.591 177.618 295.124C177.618 300.657 177.619 303.423 172.086 303.423C166.553 303.423 163.786 300.657 166.553 297.89C166.553 295.124 161.02 286.824 155.513 286.824C152.746 286.824 152.746 292.357 158.279 297.89C163.812 300.657 163.812 303.423 158.279 303.423C155.512 303.423 152.746 297.89 149.979 295.124C144.446 286.824 138.94 286.824 136.173 292.357C133.407 286.824 130.64 286.824 130.64 295.124C130.64 300.657 127.873 300.657 105.767 297.89C89.194 297.89 80.8951 295.124 64.3221 286.824C53.282 281.291 42.2153 278.525 42.2153 278.525C34.0451 278.473 23.0058 261.9 23.0058 256.367ZM606.036 292.305C600.503 295.072 597.736 295.072 603.269 289.539C606.035 286.773 608.802 286.772 608.802 286.772C611.569 286.772 608.803 289.539 606.036 292.305ZM597.762 292.305C597.762 295.072 592.229 297.838 589.463 297.838C581.163 300.605 575.656 300.605 578.423 297.838C581.189 295.072 597.762 292.305 597.762 292.305ZM11.9392 333.751C9.17268 330.985 25.7465 317.178 34.046 317.178C36.8124 317.178 39.5788 314.411 42.3453 311.645C42.3453 311.645 50.6443 311.645 64.4508 317.178C75.4909 319.944 92.0901 325.478 97.623 325.478C105.922 325.478 122.496 325.477 133.536 331.01C158.408 336.543 263.405 342.076 285.511 339.31C291.044 336.544 321.424 336.543 351.829 336.543C481.699 339.31 517.612 336.543 539.718 336.543C567.357 331.01 614.336 325.478 625.376 322.737C633.675 319.97 636.416 319.97 644.715 328.27C653.015 331.036 658.522 336.569 661.289 336.569C664.055 336.569 666.821 336.569 666.821 336.569C666.821 339.336 655.781 339.336 639.182 339.336C617.076 339.336 606.036 339.336 600.503 342.102C594.97 344.869 586.697 347.635 572.864 344.869C561.824 344.869 553.525 344.869 553.525 344.869C550.758 350.402 536.952 350.402 531.419 344.869C525.886 342.102 523.119 342.102 517.612 344.869C512.079 347.635 506.572 350.402 498.272 347.635C489.973 347.635 484.466 347.635 481.7 350.402C476.167 350.402 473.4 350.402 465.126 347.635C454.086 342.102 443.02 342.102 440.254 347.635C440.254 347.635 434.721 347.635 426.447 347.635C420.915 347.635 412.641 347.635 407.108 350.402C401.575 353.168 398.808 353.168 393.301 350.402C385.001 344.869 376.728 344.869 362.896 353.168C354.596 355.935 351.856 355.935 340.79 350.402C329.724 347.635 326.982 347.635 321.449 350.402C304.876 358.701 302.111 361.468 296.578 355.935C288.278 347.635 285.537 347.635 274.471 353.168C268.938 358.701 266.172 358.701 257.899 355.935C241.326 350.402 230.259 350.402 221.986 358.701C210.946 367.001 205.412 367.001 191.58 355.935C175.007 347.635 169.475 347.635 155.668 355.935C150.135 358.701 141.861 361.468 139.095 361.468C139.095 361.468 122.521 353.168 105.922 344.894L72.7502 328.322L56.178 333.855C39.5791 339.258 14.7057 339.258 11.9392 333.751ZM650.249 350.324C650.249 350.324 650.249 353.091 650.249 364.131C647.482 383.47 647.481 383.47 647.481 364.131C647.481 355.857 647.482 350.324 650.249 350.324ZM53.3855 411.109C53.3855 408.343 58.9183 408.343 81.0243 408.343C128.003 411.109 133.536 411.109 257.872 408.343C324.19 408.343 379.442 405.576 382.209 405.576C382.209 402.81 442.995 402.81 514.846 402.81C630.909 402.81 644.716 402.81 641.949 405.576C641.949 411.109 630.909 411.109 559.058 413.876C514.846 413.876 448.528 416.642 409.849 419.409C343.531 422.175 332.49 422.175 329.723 422.175C329.723 422.175 266.172 419.409 191.554 419.409C116.937 419.409 53.3855 416.642 53.3855 416.642C50.619 416.642 53.3855 413.876 53.3855 411.109ZM50.6182 397.303C45.0852 397.303 45.0852 350.324 50.6182 347.558C53.3846 344.791 53.3855 353.091 53.3855 383.47C53.3855 389.003 50.6182 397.303 50.6182 397.303ZM58.9188 364.131C58.9188 350.324 61.6844 342.025 64.4508 342.025C64.4508 342.025 67.2181 353.091 67.2181 366.897C67.2181 383.47 64.4508 397.303 64.4508 397.303C58.9179 400.069 58.9188 391.77 58.9188 364.131ZM72.725 397.303V366.897C75.4914 342.025 75.4918 342.025 78.2583 353.091V380.73C78.2583 394.536 75.4914 402.836 72.725 397.303ZM86.5576 366.897C86.5576 347.558 86.5572 342.025 89.3237 344.791C92.0901 350.324 94.8562 375.197 92.0897 386.237C89.3232 397.303 86.5576 389.003 86.5576 366.897ZM97.5978 377.963C97.5978 364.157 100.364 353.091 100.364 353.091C103.13 350.324 105.897 366.897 105.897 383.496C103.131 397.303 103.13 402.836 100.364 402.836C97.5973 402.836 97.5978 397.303 97.5978 377.963ZM111.429 380.73C114.196 369.664 114.196 361.39 114.196 361.39C116.963 355.857 119.73 364.157 119.73 380.73C119.73 400.069 119.729 402.836 116.963 402.836C111.43 402.836 111.429 400.069 111.429 380.73ZM128.003 383.47C128.003 372.404 128.002 366.897 130.769 372.404C130.769 372.404 130.769 380.704 130.769 388.977C130.769 394.51 130.769 402.784 130.769 402.784C128.002 402.836 128.003 394.536 128.003 383.47ZM139.043 394.536C136.276 386.237 136.276 372.43 141.809 372.43C141.809 372.43 144.576 375.197 144.576 377.963V391.77C147.343 402.836 141.809 405.576 139.043 394.536ZM155.642 402.836C152.875 402.836 152.875 400.069 152.875 397.303C152.875 394.536 150.109 389.003 150.109 380.73C147.343 369.664 150.109 369.664 155.642 364.157C169.448 355.857 172.215 358.624 169.449 377.963C166.682 405.602 163.916 408.369 163.916 383.496C163.916 369.69 161.149 364.156 158.382 366.923C155.616 366.923 155.616 372.456 155.616 383.496C158.383 394.536 155.642 402.836 155.642 402.836ZM183.255 377.963C180.489 364.157 180.488 361.39 186.021 364.157C188.788 366.923 188.788 372.456 188.788 380.73C188.788 394.536 186.022 400.069 180.489 400.069C174.956 397.303 174.956 397.303 174.956 389.003V377.937L177.722 386.237C183.255 400.069 186.022 397.303 183.255 377.963ZM199.854 375.197C202.62 375.197 202.62 377.963 202.62 386.237C202.62 400.043 199.854 405.576 197.088 394.536C194.321 383.496 194.321 375.197 199.854 375.197ZM213.66 375.197C216.426 375.197 219.193 375.197 219.193 386.237C219.193 397.303 216.427 400.043 210.894 397.303C208.127 394.536 208.127 377.963 213.66 375.197ZM230.233 364.131C233 361.364 238.533 361.364 241.274 361.364C244.014 361.364 246.807 361.364 246.807 375.171C246.807 386.211 244.04 391.744 241.274 391.744C238.507 391.744 238.508 386.211 238.508 377.937C238.508 372.404 235.74 366.871 235.74 366.871C232.974 366.871 232.974 369.638 232.974 377.937C232.974 389.003 230.208 394.51 224.675 391.744C221.96 389.003 227.467 366.897 230.233 364.131ZM255.106 364.131C260.639 364.131 266.146 372.43 263.406 380.704C263.406 389.003 260.639 391.77 255.106 389.003C252.34 386.237 252.34 364.131 255.106 364.131ZM277.212 364.131C288.252 355.831 293.785 358.598 293.785 377.937C293.785 383.47 291.019 391.744 291.019 391.744C288.253 391.744 288.252 388.977 288.252 377.937C288.252 369.638 285.486 364.131 285.486 364.131C282.719 364.131 282.719 369.664 282.719 377.937C282.719 389.003 279.953 391.744 277.187 391.744C266.172 391.77 268.912 372.43 277.212 364.131ZM296.551 380.73C299.318 366.923 302.084 366.923 304.851 377.963C304.851 389.029 304.852 391.77 299.319 391.77C296.552 391.77 296.551 389.003 296.551 380.73ZM313.125 380.73C313.125 375.197 313.124 369.664 315.891 369.664C315.891 369.664 315.891 369.664 315.891 372.43V386.237C313.124 394.536 313.125 391.77 313.125 380.73ZM321.424 380.73C324.191 361.39 326.957 358.624 329.723 358.624C332.49 358.624 329.724 364.157 326.957 383.496C324.191 394.536 318.658 391.77 321.424 380.73ZM335.23 366.897C337.997 355.857 343.53 358.598 343.53 375.197C343.53 386.237 340.764 391.77 337.998 391.77C332.49 391.77 332.49 377.963 335.23 366.897ZM346.297 386.237C346.297 383.47 349.063 377.937 349.063 372.43C349.063 369.664 349.063 366.897 351.829 366.897C351.829 366.897 354.596 372.43 354.596 377.963C354.596 386.263 351.829 391.77 349.063 391.77C346.297 391.77 343.53 389.003 346.297 386.237ZM360.103 377.963C362.87 364.157 362.87 361.39 365.636 364.157C365.636 364.157 365.636 369.69 365.636 377.963C362.87 394.536 357.337 394.536 360.103 377.963ZM373.936 375.197C373.936 364.131 373.935 358.624 376.702 358.624C376.702 358.624 379.469 364.157 379.469 375.197C379.469 383.496 376.702 391.77 373.936 391.77C373.936 391.77 371.169 383.47 373.936 375.197ZM384.976 375.197C384.976 364.131 384.976 358.624 384.976 358.624C393.275 358.624 393.275 364.157 393.275 377.963C390.509 389.029 390.508 394.536 387.742 394.536C384.975 394.536 384.976 389.003 384.976 375.197ZM404.315 364.131C404.315 364.131 404.315 366.897 404.315 372.43C404.315 383.496 401.549 391.77 398.782 389.003C396.042 383.47 401.549 364.131 404.315 364.131ZM412.615 361.364C415.381 353.065 418.148 358.598 418.148 369.664C415.382 377.963 415.381 386.237 412.615 386.237C409.848 386.237 409.848 369.664 412.615 361.364ZM423.655 375.197C423.655 364.131 426.422 355.857 429.188 358.624C429.188 358.624 431.954 364.156 431.954 372.43C434.721 383.496 434.721 386.237 429.188 386.237C423.655 386.237 423.655 383.47 423.655 375.197ZM437.488 375.197V361.39C437.488 361.39 440.253 358.624 443.02 358.624C445.786 355.857 445.787 358.624 445.787 366.923C443.021 380.73 440.254 386.237 437.488 375.197ZM451.294 377.963C451.294 366.897 454.061 355.857 456.827 355.857C456.827 355.857 459.593 358.623 459.593 366.897C459.593 375.171 456.826 380.704 454.06 383.47C451.293 386.237 451.294 383.47 451.294 377.963ZM465.126 369.664C465.126 364.131 465.126 358.598 467.893 358.598C470.659 358.598 470.66 364.131 470.66 369.664C473.426 380.73 470.659 383.47 467.893 383.47C465.126 383.47 462.36 380.73 465.126 369.664ZM481.7 372.43C481.7 364.131 481.699 361.364 484.466 361.364C484.466 361.364 487.232 364.131 487.232 372.43C487.232 377.963 484.466 383.496 484.466 383.496C481.699 383.47 481.7 377.963 481.7 372.43ZM492.739 361.364C495.505 361.364 495.506 364.131 498.272 369.664C498.272 380.73 495.505 386.237 492.739 383.47C489.972 380.73 489.972 361.364 492.739 361.364ZM503.805 369.664C503.805 364.131 503.805 361.364 506.572 361.364C506.572 361.364 509.339 364.131 509.339 369.664C509.339 375.197 506.572 380.73 506.572 380.73C503.805 380.73 503.805 375.197 503.805 369.664ZM514.846 358.624C517.612 358.624 520.378 355.857 523.145 355.857C528.678 353.091 528.677 355.857 525.911 366.897C525.911 375.197 523.145 380.704 523.145 383.47C520.378 386.237 517.612 383.47 517.612 377.937V366.871C514.845 361.364 514.846 358.624 514.846 358.624ZM531.444 366.897C534.211 353.091 539.744 355.857 536.978 369.664C536.978 377.963 534.21 383.47 534.21 383.47C528.677 386.237 528.678 377.963 531.444 366.897ZM550.784 358.624C553.55 355.857 553.55 358.624 553.55 366.923C553.55 372.456 550.784 380.73 550.784 380.73C550.784 383.496 548.017 386.262 545.25 386.262C539.718 386.237 545.251 358.624 550.784 358.624ZM556.291 383.47C556.291 380.704 559.058 372.404 559.058 364.131C561.824 344.791 564.59 347.558 564.59 369.664C561.823 383.47 561.824 389.003 559.058 389.003C556.291 389.003 556.291 386.237 556.291 383.47ZM570.123 386.237C570.123 386.237 570.123 377.937 570.123 369.664C570.123 355.857 570.124 355.857 575.657 355.857C578.423 358.624 581.19 361.39 581.19 369.664C581.19 377.963 578.423 380.73 575.657 383.47C572.89 383.47 570.123 386.237 570.123 386.237ZM586.697 369.664C586.697 355.857 592.23 350.324 592.23 364.131C592.23 369.664 592.229 375.197 589.463 377.937C586.696 383.47 586.697 383.47 586.697 369.664ZM603.269 353.091C606.035 353.091 606.036 355.857 606.036 364.131C606.036 380.704 603.269 389.003 600.503 375.197C597.736 361.39 597.762 353.091 603.269 353.091ZM611.57 386.237C611.57 386.237 611.57 383.47 611.57 380.704C611.57 377.937 614.336 369.638 614.336 361.364C614.336 355.831 614.336 350.298 614.336 350.298C617.102 350.298 617.102 358.598 617.102 366.871C614.335 377.963 614.336 386.237 611.57 386.237ZM625.376 355.857V361.39C625.376 366.923 625.376 375.197 625.376 375.197C619.869 377.963 619.869 366.897 625.376 355.857ZM639.208 350.324C639.208 350.324 639.208 358.623 639.208 366.897C639.208 377.963 639.208 380.704 636.441 375.197C630.908 369.664 633.675 344.791 639.208 350.324ZM31.2787 372.43C28.5122 350.324 22.9798 339.258 20.2133 358.624C20.2133 344.817 25.7457 342.051 31.2787 353.091V372.43ZM36.812 397.303C36.812 397.303 36.812 391.77 36.812 389.003C36.812 383.47 36.8128 372.43 39.5793 364.131V353.091C42.3458 358.624 42.3453 369.664 42.3453 380.73C39.5788 389.003 39.5785 397.303 36.812 397.303ZM213.66 430.449C304.851 430.449 398.809 430.449 418.148 427.682C467.893 424.916 677.887 419.383 675.12 422.149C675.12 422.149 675.121 427.682 672.354 435.956L669.588 447.022V435.956C666.822 422.149 666.822 422.149 658.548 427.656C655.781 427.656 655.781 433.189 655.781 449.763C655.781 463.569 653.015 469.102 650.249 474.635L644.715 482.934V460.829C644.715 444.255 641.948 441.489 639.182 441.489C636.415 441.489 633.649 441.489 636.416 447.022C639.182 460.828 636.416 488.467 630.883 488.467C628.116 488.467 625.35 485.701 628.117 469.128C628.117 455.321 628.116 447.022 625.349 447.022C622.583 447.022 622.584 455.321 619.817 474.661C619.817 496.767 617.05 505.066 614.284 507.807C611.517 513.34 611.517 510.573 614.284 499.508C617.05 482.934 614.284 449.763 611.518 449.763C611.518 449.763 608.751 463.569 608.751 477.401C608.751 510.547 605.984 518.847 600.451 521.614C594.918 524.38 594.918 524.38 594.918 493.975C597.684 469.102 597.685 460.803 592.152 463.569C592.152 463.569 589.386 471.868 589.386 493.975C589.386 521.614 589.385 527.121 583.852 529.887C578.32 535.42 578.319 532.654 578.319 510.548C575.553 485.675 575.554 477.401 572.787 474.635C570.021 474.635 570.02 488.442 570.02 505.041C570.02 521.639 570.02 538.187 570.02 538.187C567.253 538.187 564.487 540.953 561.72 540.953C553.421 543.72 553.421 540.953 556.187 535.42C558.954 521.614 558.954 485.675 556.187 480.142C553.421 477.376 550.655 482.909 550.655 505.015C550.655 538.161 550.655 546.46 542.356 546.46C539.589 546.46 539.588 543.694 539.588 518.821C539.588 480.142 534.056 482.909 531.289 518.821C531.289 543.694 531.289 549.227 525.756 549.227C522.989 551.993 522.99 546.46 522.99 527.121C525.756 507.781 525.757 502.248 520.224 505.015C517.457 505.015 517.456 510.548 517.456 527.121C517.456 551.993 514.69 557.526 509.157 557.526C503.624 557.526 503.624 551.993 500.858 540.953V516.081C500.858 510.548 498.092 507.781 498.092 507.781C495.325 507.781 495.324 518.847 495.324 535.42L498.092 560.293L489.792 557.526H481.493V535.42C481.493 505.015 475.96 505.015 475.96 535.42C473.193 557.526 473.193 560.293 467.66 560.293C459.361 563.059 459.361 557.526 459.361 538.187C459.361 527.121 456.594 521.614 456.594 521.614C453.827 521.614 453.828 529.913 453.828 543.72C453.828 563.059 451.061 565.826 448.294 563.059C442.761 563.059 442.762 560.293 442.762 543.72C439.996 518.847 437.229 521.614 437.229 549.253C437.229 565.826 434.462 568.592 428.929 568.592C423.397 568.592 423.397 565.826 420.63 552.019C420.63 529.913 415.097 532.68 415.097 552.019C412.33 565.826 412.33 571.359 409.563 571.359C404.03 571.359 404.031 568.592 406.797 552.019C406.797 540.979 406.798 535.446 404.031 538.212C404.031 538.212 401.265 543.746 398.498 552.019C398.498 571.359 392.965 576.891 390.199 563.085C390.199 557.552 387.432 549.279 384.665 546.512C381.899 535.472 379.133 543.745 381.899 554.811C384.666 571.384 384.665 574.151 376.366 574.151C370.833 574.151 368.066 571.384 370.833 563.111C370.833 543.771 365.3 543.771 362.533 563.111C362.533 574.151 357 574.151 354.234 563.111C351.467 552.045 345.935 554.811 345.935 565.877C345.935 568.644 345.935 574.177 343.169 574.177C340.402 574.177 340.401 571.41 340.401 568.644C340.401 557.578 337.636 554.837 334.869 557.578C332.103 560.344 332.102 563.111 332.102 568.644C334.868 571.41 332.102 574.177 329.336 574.177C329.336 574.177 326.57 571.41 326.57 565.877C326.57 557.578 321.036 557.578 318.269 565.877V563.111C315.503 554.811 309.97 552.045 309.97 563.111V571.41L301.671 565.877C293.371 557.578 293.371 557.578 293.371 563.111C293.371 568.644 287.838 568.644 285.072 563.111C282.305 554.811 279.539 554.811 279.539 560.344C279.539 565.877 276.772 565.877 265.732 565.877C260.199 565.877 240.86 563.111 221.52 563.111C182.841 560.344 182.842 560.344 141.396 549.304C99.9504 535.498 83.3765 529.965 66.7775 516.158C61.2446 510.625 50.205 502.351 44.672 496.819C33.6061 488.519 22.5657 466.413 19.7992 447.073L17.0332 433.267L30.8393 430.501H213.66V430.449Z" fill="#B2B2B2"/>
<path d="M130.769 176.242C136.302 181.775 136.303 181.775 150.109 176.242C158.409 173.476 161.149 173.476 158.409 165.202C158.409 159.669 155.642 156.903 150.109 154.136C136.303 151.37 119.703 170.709 130.769 176.242ZM152.875 165.177C152.875 170.71 141.81 170.709 139.069 170.709C136.303 167.943 136.303 167.943 139.069 165.177C144.576 162.41 152.875 162.41 152.875 165.177Z" fill="#B2B2B2"/>
<path d="M163.916 85.0516C166.682 90.5846 177.722 87.8184 186.021 79.5189L194.321 73.9859L186.021 68.4529C180.488 62.9199 163.915 62.9199 161.149 68.4529C158.382 76.7524 158.383 82.2851 163.916 85.0516ZM174.981 74.0118C177.748 74.0118 180.515 74.0117 180.515 76.7782C180.515 76.7782 177.748 79.5445 174.981 79.5445C169.448 79.5445 169.449 76.7782 169.449 76.7782C169.449 76.7782 169.448 74.0118 174.981 74.0118Z" fill="#B2B2B2"/>
<path d="M133.535 129.264C150.108 126.497 158.408 112.691 150.109 104.391C144.576 96.0918 136.301 98.8581 128.002 109.924C122.469 118.223 122.47 120.99 125.236 126.497C125.236 129.264 128.002 132.03 133.535 129.264ZM144.576 109.924C147.342 109.924 144.575 112.691 141.808 115.457C136.275 120.99 133.509 120.99 133.509 115.457C133.535 112.691 144.576 107.158 144.576 109.924Z" fill="#B2B2B2"/>
<path d="M174.981 134.797C180.513 143.097 186.021 143.097 194.32 134.797C205.386 123.757 202.62 109.924 188.788 109.924C174.956 109.924 166.681 123.731 174.981 134.797ZM191.554 123.731C188.787 129.264 183.254 132.031 180.514 129.264C177.747 123.731 183.28 118.224 188.813 118.224C197.087 118.224 197.087 118.224 191.554 123.731Z" fill="#B2B2B2"/>
<path d="M274.445 29.7996C266.146 21.5002 260.638 21.5002 252.338 29.7996C246.805 35.3326 246.806 38.0993 249.572 43.6064C252.339 49.1394 252.339 49.1394 266.146 43.6064C279.978 38.0735 282.745 35.3067 274.445 29.7996Z" fill="#B2B2B2"/>
<path d="M346.297 203.882C360.103 190.075 362.869 184.542 360.103 176.242C357.336 167.943 349.063 167.943 340.763 176.242C332.464 184.542 326.957 201.115 329.698 209.389C332.49 214.922 335.231 214.922 346.297 203.882ZM346.297 181.775C354.596 179.009 354.596 181.775 346.297 190.075C343.53 195.608 340.764 198.374 337.997 198.374C335.231 201.115 343.53 181.775 346.297 181.775Z" fill="#B2B2B2"/>
<path d="M285.511 68.4788C291.044 57.4128 288.277 51.9057 277.211 49.1393C274.445 49.1393 271.678 51.9057 266.171 62.9457C260.638 71.2452 260.639 79.5188 263.405 82.2852C263.405 85.0517 266.172 87.8183 268.938 87.8183C274.446 87.8183 282.744 76.7524 285.511 68.4788ZM274.445 62.9457C277.212 57.4128 282.745 57.4126 282.745 60.1791C282.745 62.9456 279.978 65.7121 277.211 71.2451C268.912 76.7522 268.912 74.0117 274.445 62.9457Z" fill="#B2B2B2"/>
<path d="M324.19 87.8183C326.957 74.0117 318.658 62.9456 307.618 65.7121C299.319 65.7121 299.319 65.7124 299.319 79.5189C299.319 85.0519 302.084 96.0919 304.851 98.8584C313.124 112.691 321.424 104.391 324.19 87.8183ZM310.384 74.0118C313.151 74.0118 315.917 76.7782 315.917 82.3112C318.684 93.3771 313.151 98.8843 310.384 87.8442C304.851 76.7524 304.851 71.2453 310.384 74.0118Z" fill="#B2B2B2"/>
<path d="M288.278 165.176C293.811 173.476 299.343 173.476 304.85 165.176C315.89 151.37 315.89 132.004 304.85 132.004C299.317 132.004 296.551 134.771 291.044 143.07C285.511 151.37 285.511 156.903 288.278 165.176ZM296.551 154.136C296.551 148.603 296.552 143.07 299.318 140.33C302.084 134.797 304.85 134.797 304.85 140.33C307.617 140.33 307.617 143.096 307.617 145.863C307.617 145.863 304.851 148.629 302.084 154.162L296.551 162.462V154.136Z" fill="#B2B2B2"/>
<path d="M161.149 198.348C141.809 201.115 130.744 223.221 144.577 231.52C150.11 237.053 155.616 234.287 166.682 223.221C177.748 214.921 177.748 209.414 172.215 201.115C169.449 198.348 166.682 195.582 161.149 198.348ZM161.149 217.688C155.616 225.987 150.109 225.987 147.343 220.454C144.576 217.688 152.875 209.388 161.149 209.388C169.422 209.388 169.448 212.155 161.149 217.688Z" fill="#B2B2B2"/>
<path d="M221.959 225.987C230.259 212.181 230.259 201.115 221.959 195.582C213.66 190.049 210.92 190.049 208.153 192.815C202.62 198.348 202.62 225.961 208.153 231.494C210.894 237.027 213.66 237.027 221.959 225.987ZM210.894 212.155C213.66 201.089 213.661 201.089 216.427 203.855C219.194 206.622 219.193 209.388 219.193 212.155C219.193 214.921 216.426 220.454 213.66 220.454C210.893 220.454 208.127 220.454 210.894 212.155Z" fill="#B2B2B2"/>
<path d="M241.299 181.775C246.832 181.775 255.106 170.735 255.106 162.436C255.106 154.136 241.3 140.33 235.767 143.096C230.234 143.096 230.233 145.863 230.233 156.903C230.233 165.202 233 173.476 235.767 176.242C235.767 179.009 238.532 181.775 241.299 181.775ZM235.767 151.37C241.3 151.37 246.832 156.903 246.832 162.436C246.832 170.735 241.3 170.735 235.767 162.436C233 154.136 233 151.37 235.767 151.37Z" fill="#B2B2B2"/>
<path d="M296.551 292.305C293.785 286.773 291.019 286.773 291.019 295.072C291.019 297.839 291.018 300.605 296.551 300.605C302.084 300.579 302.084 295.046 296.551 292.305Z" fill="#B2B2B2"/>
</svg>
