<svg width="536" height="734" viewBox="0 0 536 734" fill="none" xmlns="http://www.w3.org/2000/svg">
<path d="M299.293 171.284L282.685 212.658H249.445C230.066 209.896 213.459 212.658 205.142 215.42C199.598 215.42 185.764 218.181 174.675 220.943C144.208 226.467 75.0071 243.011 47.3115 254.032C25.1602 259.555 14.0972 270.576 11.3251 284.385V298.168C11.3251 298.168 16.8694 303.691 22.3878 306.453L36.2235 311.976L27.9071 320.261C16.8185 325.785 0.211716 361.635 0.211716 372.682C-2.56043 386.465 22.3628 419.579 47.2862 436.123C52.8305 438.885 55.6026 444.409 55.6026 447.145C55.6026 449.88 58.3743 458.165 58.3743 469.212C61.1464 477.497 63.9189 507.824 63.9189 538.177V596.096L72.2353 598.857C91.6144 612.64 138.689 656.776 163.613 684.367C171.929 692.652 185.763 709.196 194.08 717.456L210.687 734L221.75 725.715C230.066 717.43 238.357 711.932 268.824 698.124C277.141 695.362 288.204 689.839 293.748 687.103C299.292 684.341 313.127 676.082 324.215 667.797L357.455 651.252C382.379 637.469 426.681 615.402 429.454 615.402C434.998 615.402 443.289 604.355 443.289 596.096C446.061 579.551 470.984 496.803 473.756 491.28C476.529 488.518 479.301 485.757 484.819 482.995C487.591 482.995 495.908 474.71 501.427 466.451C515.261 452.668 518.033 436.098 515.261 419.553C515.261 414.03 512.489 405.771 512.489 397.485C512.489 389.2 509.717 380.941 506.945 378.179C504.172 372.656 506.945 369.894 518.007 375.418H531.842C537.386 372.656 537.386 358.873 531.842 345.065C526.297 334.044 495.856 298.168 493.084 295.406C490.311 295.406 487.539 292.644 482.021 289.882C476.477 287.121 473.704 281.597 470.958 284.359C470.958 284.359 457.124 273.338 440.491 259.53C404.505 229.177 390.644 223.679 357.43 215.394C343.595 212.632 332.506 209.871 332.506 209.871C332.506 209.871 343.569 193.326 357.43 174.02C368.493 154.714 390.644 121.599 404.505 105.055C415.593 85.7489 429.428 66.4428 432.2 66.4428C440.516 58.1577 437.744 49.8984 423.884 38.8516C418.339 33.3282 412.821 27.8048 412.821 27.8048C412.821 22.2814 385.125 -2.54809 385.125 0.21361C382.353 2.97531 376.809 16.758 368.518 33.3282C351.911 69.1787 335.305 105.055 326.988 118.838C321.444 124.387 310.381 149.216 299.293 171.284ZM27.959 298.168C16.8704 295.406 16.8704 281.623 27.959 273.338C33.5033 265.053 63.9448 256.794 102.729 248.509C116.564 242.985 133.197 240.223 138.715 240.223C183.018 226.441 216.232 220.917 241.156 223.679C274.369 223.679 277.141 226.441 268.851 237.462C266.079 242.985 260.534 245.747 257.788 245.747C255.016 245.747 249.472 248.509 249.472 248.509C243.928 254.032 219.004 262.291 210.714 262.291C207.942 262.291 194.106 265.053 183.017 267.815C158.094 276.1 113.791 287.121 97.1843 289.882C88.8679 289.882 83.3503 292.644 80.5782 292.644C77.806 295.406 72.2609 298.168 66.7425 298.168C52.8558 303.691 36.2495 303.691 27.959 298.168ZM227.294 270.576C227.294 270.576 227.294 270.576 227.294 273.338L224.522 276.1V273.338C224.547 270.576 224.548 270.576 227.294 270.576ZM443.289 347.827C448.834 336.806 451.605 336.806 446.061 347.827C443.289 350.588 440.517 356.112 437.745 356.112C437.745 356.112 437.745 350.588 443.289 347.827ZM437.745 325.759C437.745 322.997 437.744 322.997 440.516 322.997C443.288 322.997 443.289 325.759 443.289 328.52C440.517 331.282 437.745 331.282 437.745 325.759ZM451.579 356.112L462.642 345.091L454.325 356.112C446.009 372.656 432.174 380.941 398.935 389.2C382.328 391.962 365.694 397.485 365.694 397.485H362.923C365.695 394.724 374.01 391.962 387.845 386.439C412.821 380.915 437.744 367.133 451.579 356.112ZM468.212 350.588L476.528 356.112C484.845 358.873 490.363 367.133 484.844 367.133C484.844 367.133 473.783 369.894 459.922 375.418C440.543 383.703 437.77 383.703 446.086 378.179C448.858 375.418 457.15 367.158 459.922 361.635L468.212 350.588ZM315.899 314.712C307.582 317.474 296.521 325.733 290.976 334.018C285.432 339.541 279.913 350.562 277.141 353.324V358.847L274.369 353.324C268.825 345.039 268.824 345.039 277.141 345.039C279.913 345.039 282.685 342.277 282.685 339.516C282.685 331.23 291.002 320.21 302.064 314.686C313.127 309.163 332.533 303.665 332.533 306.401C332.533 306.453 324.215 309.214 315.899 314.712ZM340.823 314.712L351.885 311.95L343.569 317.474C326.962 322.997 304.811 345.065 296.494 356.086C285.432 372.63 282.659 367.107 290.95 350.562C302.064 331.282 318.671 317.474 340.823 314.712ZM279.914 369.894C279.914 369.894 288.23 383.677 293.748 397.485C302.065 411.268 307.583 425.077 310.355 427.838C313.128 430.6 313.127 430.6 313.127 430.6C304.811 430.6 302.064 427.838 296.52 411.294C290.975 400.273 285.458 386.464 282.685 380.941C279.913 372.656 277.142 369.894 279.914 369.894ZM310.381 405.745C304.836 400.221 326.988 375.392 343.621 369.894C349.165 367.133 360.228 367.133 371.316 367.133H390.695L371.316 369.894C360.254 375.418 346.393 378.179 340.849 383.677C335.305 386.439 327.014 394.698 321.47 400.221C315.9 405.745 310.381 408.507 310.381 405.745ZM393.442 356.112C387.897 356.112 374.063 358.873 362.975 358.873C349.14 358.873 340.823 358.873 332.506 364.397L321.444 369.92L326.988 364.397C329.76 358.873 335.304 353.376 340.823 350.614C351.885 345.091 357.43 345.091 390.67 350.614L401.758 353.376L393.442 356.112ZM401.758 364.371C401.758 364.371 398.986 367.133 396.214 367.133C390.669 367.133 390.67 364.371 398.986 361.609C401.759 361.609 401.758 361.609 401.758 364.371ZM349.139 389.2C360.202 383.677 362.974 383.677 354.684 391.962C349.139 394.724 338.077 402.983 332.533 408.507C326.989 414.03 324.215 416.792 324.215 416.792C321.443 411.268 338.05 394.724 349.139 389.2ZM354.684 400.247C360.228 397.486 360.228 400.247 354.684 405.771L343.621 416.792C340.849 422.315 338.077 425.077 335.305 425.077C332.532 425.051 346.367 405.745 354.684 400.247ZM393.442 397.485C401.758 394.724 401.758 397.486 396.214 400.247C393.441 403.009 387.897 405.771 385.151 405.771C379.606 408.532 371.316 411.294 365.772 414.056C360.227 416.817 357.455 416.817 357.455 414.056C357.455 411.268 379.607 400.247 393.442 397.485ZM418.366 356.112C415.593 358.873 410.049 358.873 410.049 358.873C407.277 358.873 407.277 358.873 412.821 356.112C423.909 350.588 423.91 350.588 418.366 356.112ZM418.366 342.303C418.366 342.303 418.365 339.541 421.137 336.78C421.137 331.256 423.91 331.256 426.682 331.256C426.682 331.256 426.682 331.256 426.682 336.78C423.91 339.541 421.138 342.303 418.366 342.303ZM432.2 320.235C429.428 325.759 426.655 325.759 426.655 320.235C426.655 314.712 415.593 317.474 415.593 322.997C412.82 328.52 404.505 339.541 398.986 342.303C396.214 342.303 385.151 339.541 376.834 339.541C354.683 334.018 343.594 336.78 324.215 353.324C315.899 361.609 307.608 372.63 304.836 378.154C299.292 386.439 299.292 386.439 296.52 383.677C296.52 372.656 299.293 369.894 307.609 358.847C329.76 331.256 357.456 317.474 371.291 328.495C374.063 331.256 376.835 331.256 379.607 331.256H382.379C385.151 336.78 393.442 336.78 398.986 331.256C410.049 320.235 415.593 306.427 404.53 306.427C401.758 306.427 401.758 303.665 401.758 300.903C401.758 298.142 398.986 298.142 396.214 298.142C393.441 298.142 393.442 298.142 393.442 300.903C393.442 306.427 382.38 320.21 379.607 317.448C371.291 317.448 357.456 298.142 354.684 287.095C351.911 278.81 351.912 276.074 340.849 276.074C338.077 278.836 335.305 276.074 332.533 273.312C326.989 270.551 310.381 267.789 299.293 270.551C296.521 270.551 290.976 270.551 290.976 270.551C290.976 270.551 296.521 262.265 302.039 251.244C315.874 231.938 321.418 226.415 321.418 234.7C321.418 234.7 321.418 237.462 324.19 237.462C324.19 237.462 387.872 284.359 393.417 287.121C393.417 292.644 426.656 314.712 432.175 317.474C432.201 317.474 434.972 320.235 432.2 320.235ZM393.442 317.474C401.758 306.453 404.505 306.453 398.986 317.474C396.214 320.235 393.442 325.759 390.67 325.759C387.898 325.759 390.67 320.235 393.442 317.474ZM340.823 295.406L326.988 298.168C310.381 298.168 299.292 303.691 285.457 314.712C282.685 317.474 277.141 325.733 274.394 331.256L268.851 339.541L266.078 331.256C263.306 322.971 266.079 322.971 279.914 309.189C296.521 292.644 307.609 289.882 326.988 292.644L340.823 295.406ZM266.078 375.418C274.394 383.703 288.23 408.507 288.23 416.792C288.23 419.553 288.23 425.077 291.002 430.574C293.774 436.072 296.546 441.595 293.773 441.595C293.773 441.595 291.002 438.834 291.002 436.072C291.002 436.072 285.458 425.051 282.685 414.004C274.369 389.175 263.306 375.392 246.699 369.869C238.382 367.107 235.637 367.107 230.093 369.869C224.548 375.392 221.775 372.63 227.32 367.107C235.61 361.609 254.989 364.371 266.078 375.418ZM232.838 414.03C230.066 414.03 227.294 411.268 227.294 411.268C224.522 405.745 232.839 405.745 238.357 408.507C241.129 411.268 243.901 414.03 243.901 419.527C249.445 430.548 246.673 430.548 241.129 422.289C238.383 416.792 232.838 414.03 232.838 414.03ZM238.383 444.383V455.404C238.383 460.927 238.382 460.927 232.838 455.404C230.066 447.119 230.066 447.119 232.838 444.383C238.382 441.621 238.383 441.621 238.383 444.383ZM232.838 400.247C227.294 403.009 224.522 400.247 227.294 397.485C230.067 389.2 254.99 397.486 260.508 408.507C263.28 414.03 266.053 422.289 266.053 430.574C266.053 438.859 268.825 447.119 271.597 447.119C274.369 449.88 274.369 452.642 274.369 452.642H266.053C260.508 455.404 260.508 452.642 257.736 438.859C254.99 408.506 246.699 400.247 232.838 400.247ZM238.383 380.915C241.155 380.915 246.699 380.915 246.699 383.677C249.471 386.439 243.927 386.439 235.636 383.677C230.066 380.915 230.066 380.915 238.383 380.915ZM224.548 347.827C224.548 339.541 230.092 334.044 238.383 339.541C243.927 342.303 243.927 347.827 235.611 347.827C232.839 347.827 230.066 347.827 230.066 350.588C227.294 356.112 224.548 356.112 224.548 347.827ZM252.218 339.541C243.902 328.52 235.611 325.759 227.294 328.52C216.206 334.044 213.459 328.52 224.522 322.997C232.838 320.235 243.901 322.997 249.445 328.52C252.217 328.52 254.989 334.044 257.762 339.541C263.306 347.827 260.535 347.827 252.218 339.541ZM191.308 336.78C185.764 331.256 182.992 325.759 182.992 322.997C182.992 320.235 188.536 317.474 194.054 322.997C207.889 328.52 213.434 342.303 213.434 375.418C216.206 391.962 216.206 405.771 213.434 405.771C210.661 405.771 210.662 391.988 210.662 375.418C207.916 358.848 205.143 347.827 191.308 336.78ZM202.396 386.439C202.396 397.485 202.396 405.745 202.396 405.745H199.624C191.308 400.221 185.789 353.324 194.08 353.324C196.852 353.35 199.624 364.371 202.396 386.439ZM105.475 328.52C108.247 325.759 111.02 320.235 113.792 320.235C116.564 314.712 133.171 314.712 141.487 320.235C149.804 325.759 163.638 347.826 163.638 358.847C163.638 364.371 163.639 372.63 166.411 378.154C171.955 391.936 171.955 394.698 160.866 386.439C152.55 378.154 147.031 364.371 152.55 361.609C163.613 353.324 141.487 320.235 127.626 320.235C119.31 320.235 108.247 331.256 105.475 336.78V339.541C102.703 334.018 77.7794 320.235 69.4889 314.712C63.9446 314.712 61.1725 311.95 61.1725 309.189C61.1725 309.189 80.5519 303.665 105.475 298.168C122.082 295.406 124.854 295.406 127.626 298.168C127.626 300.929 130.398 300.929 135.942 300.929C147.031 298.168 160.866 306.453 169.183 322.997C180.245 336.78 180.245 342.303 180.245 361.609C183.017 383.677 180.246 383.677 177.474 375.392C174.701 372.63 171.929 361.609 171.929 356.086C169.157 331.256 155.322 311.95 138.689 306.427C122.082 300.903 108.221 306.427 99.9307 317.448C97.1585 325.733 97.159 328.469 97.159 331.231C99.9312 334.044 102.703 334.044 105.475 328.52ZM119.31 345.065C124.854 342.303 130.373 345.065 135.917 353.35C138.689 356.112 141.461 361.635 138.689 364.371C138.689 367.133 135.917 367.133 127.626 358.847C119.31 350.588 116.564 347.827 119.31 345.065ZM116.563 339.541C113.791 345.065 111.02 347.827 111.02 345.065C111.02 339.541 122.108 331.282 127.626 331.282C122.082 334.044 119.31 336.78 116.563 339.541ZM171.929 306.453C166.385 300.929 160.866 295.432 155.322 292.67C149.777 289.908 147.006 289.908 152.55 287.147C185.79 276.126 216.232 267.84 216.232 270.602C216.232 270.602 213.459 278.887 210.687 287.147C205.143 300.929 205.143 311.976 210.687 317.499C213.459 323.023 213.459 323.023 205.142 317.499C196.826 309.214 188.536 309.214 182.992 311.976C180.245 314.712 174.701 311.976 171.929 306.453ZM213.459 306.453C210.687 298.168 219.004 281.623 221.776 281.623C221.776 281.623 221.776 281.623 221.776 284.385C219.004 289.908 216.232 295.432 216.232 300.929C213.46 309.214 213.459 309.214 213.459 306.453ZM36.2488 414.03C19.6418 400.247 11.3251 383.677 11.3251 369.894C11.3251 350.588 30.7048 320.235 41.7934 317.474C52.8561 314.712 86.0962 334.018 105.475 350.588L124.854 369.894C130.399 372.656 135.917 378.179 138.689 378.179C141.461 380.941 149.752 389.226 160.841 397.485C180.22 411.268 216.205 447.144 224.522 458.165C230.066 463.689 230.066 466.451 221.75 469.186C218.978 474.71 207.915 480.207 196.826 485.731C185.738 491.254 171.902 496.752 163.586 496.752C141.435 499.513 110.968 480.207 66.6653 441.595C58.4007 433.336 44.5652 422.315 36.2488 414.03ZM216.232 609.878C216.232 598.857 213.459 593.334 213.459 593.334C210.687 593.334 210.687 607.117 210.687 626.448C210.687 642.993 210.688 667.822 207.915 684.367C207.915 698.149 205.143 711.958 202.371 711.958C202.371 711.958 202.371 706.435 202.371 698.175C205.143 670.584 207.915 593.36 205.142 593.36C202.37 593.36 202.371 604.381 202.371 626.474C202.371 659.563 199.598 678.895 196.826 695.439C194.054 711.984 191.282 695.439 194.054 676.133C196.827 651.304 194.054 604.407 188.51 604.407C188.51 604.407 185.738 612.692 188.51 623.713C188.51 670.61 188.509 689.916 182.965 687.154C180.193 687.154 180.193 684.393 180.193 637.495C180.193 626.474 177.421 620.951 174.649 620.951C174.649 620.951 174.649 631.972 174.649 651.304C174.649 667.848 174.649 678.895 174.649 678.895C169.104 678.895 166.332 673.372 166.332 648.542C163.56 623.713 158.016 620.951 158.016 648.542C160.788 670.61 155.245 665.086 152.473 637.521C152.473 629.236 149.7 620.977 146.928 620.977C144.156 620.977 144.156 626.5 146.928 640.283C149.7 648.568 149.7 654.065 149.7 654.065C141.383 654.065 141.383 643.044 141.383 626.474C141.383 612.692 138.611 607.168 135.839 607.168C135.839 607.168 133.067 612.692 135.839 623.713C135.839 631.998 135.839 640.257 133.067 640.257C130.295 637.495 124.75 629.236 127.522 623.713C127.522 607.168 124.751 598.883 124.751 601.645C121.979 601.645 119.206 609.93 119.206 615.427V626.448L116.434 612.666C113.662 607.142 110.89 601.645 108.118 601.645C108.118 601.645 108.118 598.883 108.118 596.121C108.118 593.36 105.346 593.36 102.573 593.36C102.573 593.36 102.573 598.883 102.573 601.645C105.346 609.93 99.8008 612.666 97.0287 604.407C94.2566 590.624 91.4853 590.624 91.4853 593.385C88.7132 598.909 85.9403 598.909 80.396 593.385C77.6239 590.624 72.0797 587.862 72.0797 585.1C72.0797 585.1 72.0797 557.509 72.0797 529.918C72.0797 499.565 69.308 472 69.308 472C69.308 469.238 69.3075 466.476 72.0797 466.476C69.3075 466.476 69.308 463.715 69.308 460.953C69.308 455.43 72.0797 458.191 83.1424 469.238C91.4589 477.523 99.7493 483.021 102.521 483.021C102.521 483.021 105.294 485.782 108.066 488.544C119.155 499.565 144.052 507.85 160.685 507.85C174.52 507.85 182.836 505.089 204.987 494.068L232.684 480.285L229.911 488.57C229.911 494.093 229.911 502.353 227.139 510.638C227.139 518.923 224.366 546.488 221.594 574.079C216.231 626.423 216.232 634.708 216.232 609.878ZM224.548 711.932C219.004 711.932 219.004 698.149 224.548 695.388C224.548 695.388 227.32 695.388 227.32 698.149V706.434C230.066 709.196 227.294 711.932 224.548 711.932ZM254.99 689.864C254.99 687.103 254.989 684.341 257.762 681.579C257.762 689.864 257.762 692.626 254.99 689.864ZM451.579 521.607C448.807 521.607 446.035 532.628 443.263 540.913C437.718 551.934 434.946 557.458 434.946 557.458C434.946 557.458 437.719 546.437 440.491 532.628C448.807 510.56 451.553 507.799 446.034 510.56C443.262 510.56 437.718 524.343 426.655 565.717C421.111 585.023 415.593 590.546 418.339 574.002C418.339 568.479 423.883 554.696 426.655 546.411C432.2 529.866 432.2 521.581 426.655 527.105C423.883 529.866 418.339 543.649 415.593 562.955C412.82 579.5 407.277 593.308 404.505 596.07C401.732 598.831 404.504 571.24 412.821 549.173C418.365 532.628 418.365 524.343 412.821 529.866C407.277 535.39 401.758 574.002 401.758 590.546C401.758 601.567 393.442 612.614 387.924 612.614C385.152 612.614 387.923 596.07 393.467 574.002C399.011 557.458 399.012 551.934 396.24 551.934C393.468 551.934 382.406 590.546 382.406 604.355C382.406 609.878 382.405 615.402 376.861 620.899L371.316 626.423V620.899C371.316 618.138 371.316 604.355 374.088 593.308C382.404 568.479 382.405 565.717 376.861 568.479C374.089 568.479 368.544 587.785 365.772 615.376C365.772 626.397 363 631.92 357.455 634.682C351.911 637.444 351.911 634.682 357.455 604.329C357.455 598.806 357.455 596.044 357.455 596.044C354.683 596.044 349.139 620.873 349.139 631.894C349.139 640.18 343.595 648.439 338.051 648.439C338.051 648.439 338.051 640.154 338.051 629.133C340.823 618.112 338.051 612.588 338.051 615.35C335.279 615.35 332.506 620.873 332.506 623.635C332.506 640.18 329.734 653.988 324.19 656.75C318.646 659.511 318.646 656.75 321.418 642.967C321.418 634.682 321.418 629.184 321.418 629.184C318.646 629.184 315.874 642.967 315.874 656.776C315.874 662.299 310.329 667.797 304.811 667.797C304.811 667.797 304.811 659.511 304.811 654.014C304.811 645.729 304.811 642.993 304.811 642.993C302.039 642.993 299.266 648.516 299.266 654.014C296.494 670.558 296.494 676.082 293.722 676.082C290.949 676.082 290.95 667.797 290.95 659.537C293.722 651.252 290.95 645.755 290.95 648.516C288.178 648.516 288.178 654.04 288.178 659.537C288.178 673.32 285.406 681.605 279.862 681.605C279.862 681.605 277.09 676.082 279.862 667.822C279.862 659.537 279.862 654.04 279.862 654.04C277.09 654.04 274.317 665.061 274.317 678.869C274.317 684.393 271.545 687.154 268.772 687.154C266 687.154 266.001 681.631 266.001 676.133C266.001 665.112 263.229 665.112 257.684 667.848C252.14 670.61 246.622 684.393 249.368 689.916C249.368 692.678 249.367 695.439 246.595 695.439C241.051 698.201 241.052 698.201 241.052 687.154C241.052 681.631 241.051 678.869 238.279 678.869C235.507 678.869 235.507 684.393 235.507 689.89C235.507 703.673 232.735 706.435 229.962 695.414C229.962 689.89 227.19 687.128 224.418 687.128C221.646 687.128 221.646 684.367 221.646 665.061C221.646 654.04 224.418 634.708 224.418 626.448C227.19 615.427 229.962 593.334 229.962 576.789C229.962 557.483 232.735 532.654 235.507 518.871C238.279 507.85 241.052 494.042 241.052 488.518C241.052 485.757 241.052 482.995 241.052 482.995C243.824 482.995 249.368 491.28 254.886 499.539C265.949 516.084 268.721 521.607 282.582 527.131C315.796 543.675 354.58 540.913 404.401 518.845C418.236 513.322 429.325 507.824 434.869 507.824C437.641 507.824 445.931 502.301 451.475 499.539C454.247 496.778 459.792 494.016 459.792 496.778C462.667 496.778 457.123 516.084 451.579 521.607ZM506.97 411.268C509.742 438.859 506.971 449.88 490.364 463.689C479.301 474.71 429.453 502.301 423.909 502.301C421.137 502.301 412.847 505.063 401.758 507.824C393.442 513.348 376.835 518.845 371.291 521.607C362.975 521.607 354.684 524.369 351.912 527.131C346.368 529.892 313.153 529.892 302.064 524.369C285.457 518.845 271.597 507.824 260.535 491.28C249.472 477.497 246.699 469.212 254.99 469.212C257.762 469.212 271.596 460.927 288.203 452.668C304.81 444.383 324.19 436.123 332.506 433.362C340.823 433.362 360.202 425.077 376.809 419.579C390.644 411.294 412.795 403.035 426.655 400.273C437.718 394.75 457.124 386.49 468.186 383.729C479.249 378.205 493.11 375.443 493.11 375.443C498.654 372.656 501.426 386.439 506.97 411.268ZM346.367 223.705C354.684 223.705 371.291 229.228 382.354 231.99C398.961 240.275 454.351 278.887 454.351 284.411C454.351 284.411 459.896 289.934 468.186 295.457C476.503 298.219 487.566 306.478 493.11 312.002C506.945 325.785 526.324 353.376 526.324 361.661C526.324 367.184 515.261 367.184 512.489 361.661C512.489 358.899 506.945 358.899 504.173 358.899C498.629 358.899 490.338 353.376 468.186 334.07C462.642 328.546 446.035 314.764 429.428 306.478C415.593 295.457 398.96 281.649 393.442 276.126C371.291 259.581 368.519 256.819 351.912 243.011C343.595 237.488 332.533 229.228 332.533 226.467C326.989 220.943 329.76 220.943 346.367 223.705ZM429.428 55.4218L421.112 63.7069C418.34 69.2303 410.049 83.013 401.733 94.0598C393.416 105.081 385.125 121.651 379.581 127.149C371.264 138.17 338.051 187.829 304.811 237.488C293.748 254.032 279.887 273.338 274.342 278.861C271.57 284.385 268.799 289.882 268.799 292.644C271.571 298.168 274.343 298.168 277.115 292.644C277.115 287.121 279.888 284.359 282.66 284.359C285.432 284.359 290.975 284.359 293.722 281.597C296.494 278.836 304.785 278.836 310.329 278.836H321.418L307.583 281.597C290.976 287.121 282.659 292.618 268.824 306.427C260.508 314.712 254.99 317.448 254.99 317.448C254.99 317.448 252.217 317.448 249.445 314.686C246.673 314.686 241.129 311.924 235.611 311.924C224.548 311.924 224.548 311.924 224.548 303.639C224.548 292.593 232.864 276.048 238.383 278.81C240.092 278.81 241.802 278.81 242.865 278.139C241.802 280.255 240.092 283.662 238.383 287.069C230.066 298.09 230.067 298.09 235.611 295.354C238.383 295.354 243.927 295.354 243.927 298.116C243.927 298.116 249.471 300.878 255.015 300.878C263.332 303.639 266.078 303.639 266.078 295.354C266.078 289.831 266.078 284.307 271.623 278.81C274.395 276.048 277.167 270.525 277.167 270.525C277.167 270.525 277.167 265.001 279.939 265.001C282.711 262.24 291.002 242.934 302.091 223.627C313.154 201.56 324.242 179.492 329.786 171.207C335.331 162.922 340.849 154.662 340.849 154.662C340.849 151.901 371.316 96.744 374.088 91.2206C376.86 88.4589 387.923 74.6763 393.467 60.8678L407.303 38.8L429.428 55.4218ZM351.912 85.7747L376.834 36.1157L387.897 16.8096L393.442 22.333L401.758 27.8564L396.214 41.6391C393.441 47.1625 385.151 60.9452 376.834 71.992C354.683 105.107 343.595 127.174 335.305 146.48C329.76 157.501 321.47 171.31 315.925 176.833C313.153 185.118 304.862 198.901 299.318 209.948C293.774 220.969 282.711 243.037 271.623 259.607C260.56 278.913 255.016 289.96 249.472 289.96C246.7 289.96 246.7 287.198 249.472 281.675C252.244 278.913 255.016 276.151 257.788 276.151C257.788 276.151 260.56 273.39 260.56 270.628C260.56 270.628 263.332 265.105 266.105 256.845C277.167 240.301 277.167 243.063 285.484 220.995C307.635 174.097 321.47 143.77 329.786 129.962C335.305 118.863 346.368 99.5574 351.912 85.7747Z" fill="#B2B2B2"/>
</svg>
