<svg width="593" height="542" viewBox="0 0 593 542" fill="none" xmlns="http://www.w3.org/2000/svg">
<path d="M457.487 376.042C454.721 373.275 454.72 373.275 451.954 373.275C451.954 376.042 451.954 378.808 451.954 378.808C454.72 384.341 460.254 381.575 457.487 376.042Z" fill="#B2B2B2"/>
<path d="M427.081 392.615C427.081 392.615 427.081 395.381 427.081 398.148C429.848 398.148 429.849 398.148 429.849 395.381C432.615 395.381 429.849 392.615 429.849 389.848C427.082 387.082 427.081 389.848 427.081 392.615Z" fill="#B2B2B2"/>
<path d="M429.848 373.275C429.848 370.509 427.082 370.509 424.315 370.509C418.782 370.509 418.783 373.275 421.549 376.042C424.316 378.808 429.848 378.808 429.848 373.275Z" fill="#B2B2B2"/>
<path d="M487.867 381.575C487.867 378.808 485.1 376.042 485.1 376.042C482.334 376.042 482.334 376.042 482.334 378.808C482.334 384.341 482.334 387.108 485.1 387.108C485.126 387.082 487.867 384.341 487.867 381.575Z" fill="#B2B2B2"/>
<path d="M261.299 503.145C261.299 503.145 258.533 505.911 258.533 508.678C258.533 511.444 258.533 514.211 255.767 514.211C253 514.211 253 514.211 253 516.977C253 519.744 258.533 519.744 264.04 514.211C269.573 508.678 269.573 503.145 261.299 503.145Z" fill="#B2B2B2"/>
<path d="M308.279 503.145C308.279 503.145 302.746 505.911 299.979 505.911C297.213 505.911 297.212 508.678 297.212 511.444C297.212 516.977 299.979 516.977 302.745 511.444C302.745 508.678 305.512 508.678 308.279 508.678C311.045 511.444 313.811 508.678 313.811 505.911C313.785 503.145 311.019 503.145 308.279 503.145Z" fill="#B2B2B2"/>
<path d="M319.319 505.911C316.553 505.911 313.786 505.911 319.319 508.678C319.319 511.444 322.085 514.211 322.085 514.211C322.085 514.211 324.851 511.444 324.851 508.678C324.851 505.911 322.086 505.911 319.319 505.911Z" fill="#B2B2B2"/>
<path d="M335.891 492.105C333.124 492.105 333.125 494.871 333.125 497.638C333.125 500.404 333.124 503.171 335.891 503.171C335.891 503.171 338.658 500.404 338.658 494.871C338.658 492.105 335.891 492.105 335.891 492.105Z" fill="#B2B2B2"/>
<path d="M275.106 516.977C272.339 519.744 275.105 522.51 277.872 522.51C280.638 522.51 283.406 519.744 280.639 516.977C280.639 511.444 275.106 511.444 275.106 516.977Z" fill="#B2B2B2"/>
<path d="M277.872 503.145C280.639 503.145 280.64 500.378 280.64 497.612C280.64 492.079 277.873 492.079 275.106 492.079C275.106 492.079 275.106 492.079 275.106 497.612C275.106 500.378 275.106 503.145 277.872 503.145Z" fill="#B2B2B2"/>
<path d="M413.275 406.447C410.509 409.214 410.509 411.98 410.509 411.98C410.509 414.747 413.275 411.98 416.041 409.214C416.041 403.681 416.042 403.681 413.275 406.447Z" fill="#B2B2B2"/>
<path d="M355.23 478.272C352.464 478.272 352.464 478.272 352.464 481.039C352.464 483.805 349.698 483.805 346.931 483.805C344.165 481.039 344.165 483.805 344.165 486.572C344.165 492.105 344.165 492.105 352.464 486.572C360.764 481.039 360.763 478.272 355.23 478.272Z" fill="#B2B2B2"/>
<path d="M211.555 124.576C217.088 124.576 222.595 124.576 219.854 119.043C219.854 119.043 217.088 116.276 211.555 116.276C203.255 116.302 200.515 121.809 211.555 124.576Z" fill="#B2B2B2"/>
<path d="M170.109 127.342C167.343 127.342 167.342 132.875 167.342 138.408C170.109 141.175 175.642 138.408 175.642 135.642C181.149 127.342 175.642 124.576 170.109 127.342Z" fill="#B2B2B2"/>
<path d="M192.215 127.342C194.982 127.342 197.749 124.576 197.749 121.809C197.749 116.276 189.449 116.276 189.449 121.809C189.449 124.576 189.449 127.342 192.215 127.342Z" fill="#B2B2B2"/>
<path d="M496.167 364.976C496.167 364.976 498.934 367.742 501.7 367.742C504.467 367.742 504.467 362.209 501.7 359.443C498.934 356.702 493.4 359.469 496.167 364.976Z" fill="#B2B2B2"/>
<path d="M501.7 395.381C501.7 398.148 501.699 400.914 507.232 403.681C509.999 403.681 512.765 409.214 512.765 409.214C512.765 414.747 518.299 411.98 518.299 409.214C518.299 406.447 518.298 406.447 515.531 406.447C512.765 406.447 509.999 400.914 507.232 398.148C504.466 389.848 501.7 389.848 501.7 395.381Z" fill="#B2B2B2"/>
<path d="M139.703 154.981C136.937 154.981 136.937 154.981 136.937 157.748C136.937 163.281 139.703 163.281 142.469 157.748C142.469 154.981 145.237 149.448 145.237 149.448C145.237 146.682 145.237 146.682 145.237 146.682C142.47 146.682 142.469 146.682 142.469 149.448C142.469 152.215 139.703 154.981 139.703 154.981Z" fill="#B2B2B2"/>
<path d="M142.469 130.109C142.469 130.109 139.704 130.109 136.937 130.109C131.404 130.109 131.404 132.875 134.17 135.642C136.937 138.408 142.469 135.642 142.469 130.109Z" fill="#B2B2B2"/>
<path d="M156.302 146.682C159.068 146.682 164.602 135.642 161.835 130.109C159.069 127.342 153.536 130.109 153.536 138.408C153.536 141.175 153.536 146.682 156.302 146.682Z" fill="#B2B2B2"/>
<path d="M175.641 105.236C175.641 102.47 172.875 102.47 172.875 102.47C167.342 102.47 164.575 105.236 167.342 108.003C170.108 110.769 175.641 110.769 175.641 105.236Z" fill="#B2B2B2"/>
<path d="M150.769 121.809C153.536 121.809 153.536 116.276 150.769 113.51C148.003 110.743 142.471 113.51 145.237 119.043C145.237 119.069 148.003 121.809 150.769 121.809Z" fill="#B2B2B2"/>
<path d="M532.079 381.575C526.546 381.575 526.546 381.575 526.546 384.341C526.546 387.108 526.546 389.874 526.546 389.874C529.312 389.874 532.079 387.108 534.845 384.341C537.612 381.575 534.846 381.575 532.079 381.575Z" fill="#B2B2B2"/>
<path d="M540.379 359.469L543.145 362.235C548.678 362.235 551.445 353.936 548.678 351.195C545.912 348.403 537.613 356.702 540.379 359.469Z" fill="#B2B2B2"/>
<path d="M554.185 334.596C551.419 334.596 545.885 340.129 548.652 342.896C551.418 345.662 554.185 345.662 556.951 340.129C556.951 334.596 556.952 334.596 554.185 334.596Z" fill="#B2B2B2"/>
<path d="M526.572 378.808C526.572 378.808 529.339 376.042 529.339 370.509C529.339 367.742 526.572 367.742 526.572 367.742C523.805 367.742 523.806 370.509 523.806 373.275C523.806 376.042 523.805 378.808 526.572 378.808Z" fill="#B2B2B2"/>
<path d="M532.079 353.936C529.313 351.169 526.546 353.936 526.546 359.469C526.546 362.235 526.546 365.002 526.546 365.002C529.338 364.976 534.846 356.702 532.079 353.936Z" fill="#B2B2B2"/>
<path d="M540.379 367.742C537.612 364.976 534.845 367.742 534.845 373.275C534.845 376.042 534.845 378.808 534.845 378.808C537.612 378.808 543.145 370.509 540.379 367.742Z" fill="#B2B2B2"/>
<path d="M247.467 503.145C241.934 503.145 239.167 505.911 241.934 508.678C244.7 511.444 250.233 511.444 250.233 505.911C250.233 503.145 247.467 503.145 247.467 503.145Z" fill="#B2B2B2"/>
<path d="M23.6662 243.406C23.6662 246.172 23.6658 246.172 26.4322 246.172C29.1987 243.406 31.9656 246.172 31.9656 248.938C31.9656 251.705 31.9651 254.471 34.7316 254.471C37.4981 254.471 37.4985 251.705 31.9656 243.431C29.1732 237.873 23.6662 237.873 23.6662 243.406Z" fill="#B2B2B2"/>
<path d="M23.6658 232.34C31.9652 229.573 31.9648 218.533 26.4318 221.274C23.6653 221.274 20.8985 224.04 20.8985 226.807C18.132 232.34 20.8993 232.34 23.6658 232.34Z" fill="#B2B2B2"/>
<path d="M51.2787 204.726C54.0451 204.726 54.0451 196.427 51.2787 199.193C45.7457 199.193 40.2128 201.96 42.9793 204.726C43.0052 207.493 45.7715 207.493 51.2787 204.726Z" fill="#B2B2B2"/>
<path d="M29.1732 293.151C40.2133 295.917 40.2137 295.917 45.7466 318.023C48.5131 329.063 51.2795 342.896 54.046 345.662C59.579 356.702 84.4509 381.575 95.491 387.108C106.557 392.641 128.663 398.174 139.703 398.174C145.236 398.174 150.743 400.94 150.743 403.707C150.743 412.006 167.317 445.152 175.616 456.218C186.656 467.258 200.488 478.324 217.061 486.624C228.101 489.39 228.101 492.157 228.101 500.43C228.101 511.47 236.401 525.303 247.441 533.602C250.207 536.369 261.248 539.135 272.314 539.135C280.613 541.902 291.654 541.902 297.187 541.902C305.486 539.135 346.931 519.796 352.464 514.263C355.231 511.496 357.998 511.496 357.998 508.73C363.531 508.73 385.636 472.817 391.143 458.985C396.676 453.452 396.677 442.411 396.677 436.879C399.443 425.838 399.442 425.838 413.249 428.579C416.015 431.346 432.589 434.112 449.162 436.879C476.801 439.645 479.567 439.645 496.14 436.879C507.206 434.112 518.246 428.579 521.013 425.838C526.546 423.072 548.652 389.926 548.652 384.393C548.652 381.626 551.419 378.86 554.185 378.86C556.952 373.327 567.992 345.688 579.058 309.775C587.357 284.903 590.098 268.33 592.864 246.224C592.864 215.818 592.864 210.311 587.331 185.439C581.798 171.632 576.291 155.033 573.525 149.526C565.225 135.719 567.992 113.613 579.058 97.0144C587.357 83.2079 587.357 74.9084 579.058 63.8683C573.525 52.8024 565.251 52.8024 559.718 61.1018C554.185 66.6348 551.419 66.6348 548.678 63.8683C537.612 52.8024 521.039 66.6348 526.571 83.2079C526.571 85.9744 532.104 94.248 534.871 97.0144C540.404 105.314 543.171 108.055 537.638 113.588C534.872 121.887 526.598 127.394 529.339 119.12C529.339 113.588 526.572 110.821 523.805 110.821C521.039 110.821 521.039 105.288 518.272 99.7551C518.272 91.4557 515.505 85.9485 512.739 83.182C507.206 77.6491 507.207 74.8826 507.207 74.8826C507.207 72.1161 479.568 61.076 474.035 61.076C471.268 61.076 471.268 58.3095 474.035 55.543C479.568 52.7765 485.075 50.0101 490.608 50.0101C507.181 52.7766 515.48 38.97 507.18 27.904C504.414 25.1375 504.414 19.6046 504.414 16.8639C501.648 5.82384 498.882 3.05738 490.608 0.290894C482.309 0.290894 479.568 0.290892 474.035 5.82386C471.268 8.59035 471.269 11.3568 471.269 14.1233C471.269 16.8898 465.734 19.6563 462.968 22.4228C460.201 22.4228 457.436 25.1893 457.436 27.9557C457.436 27.9557 451.903 25.1893 446.396 22.4228C438.096 14.1233 438.096 14.1233 418.757 16.8898C352.439 22.4228 330.332 25.1893 305.459 33.4629C297.16 36.2294 277.821 41.7623 264.014 47.2694C214.269 61.076 186.631 69.3755 159.018 83.182C134.145 94.2221 134.145 96.9886 123.105 110.821C117.572 124.628 114.805 130.161 114.805 146.734C114.805 157.8 117.571 168.84 117.571 171.606C120.338 177.139 117.572 177.139 95.4658 177.139H62.3188C59.5524 179.906 54.0198 182.672 48.5127 182.672C45.7462 182.672 34.7058 190.972 23.6399 199.245C9.83329 210.311 7.06685 213.052 4.30036 224.118C-1.23261 240.691 -1.23261 248.99 4.30036 265.563C12.5998 284.851 15.3666 290.384 29.1732 293.151ZM385.636 450.659C374.57 478.298 344.191 514.211 327.618 516.977L311.045 525.277C302.745 530.81 294.472 530.81 272.366 528.043C247.493 528.043 241.96 519.744 233.687 494.897C233.687 489.364 233.686 489.364 241.986 489.364C244.752 492.131 255.792 489.364 261.325 489.364C291.731 481.065 319.344 464.492 360.815 420.28C374.622 406.473 388.454 395.407 391.22 395.407C393.935 395.381 391.169 434.06 385.636 450.659ZM537.612 77.6232C537.612 74.8567 537.612 72.0902 537.612 72.0902C543.145 72.0902 545.912 74.8567 548.678 80.3897C551.445 88.6891 556.977 85.9227 562.484 74.8567C568.017 63.8166 570.783 63.8166 573.55 69.3238C576.316 80.3638 573.551 88.6633 568.018 94.1963C562.485 96.9627 562.485 102.496 559.718 116.302C556.952 132.875 556.952 135.642 551.419 127.342C548.653 124.576 548.652 119.043 548.652 110.769C551.418 99.7034 551.418 99.7034 543.118 94.1963C537.611 88.6633 537.612 83.1303 537.612 77.6232ZM521.039 160.514L526.571 135.642H534.871C556.977 135.642 568.018 149.448 576.317 179.854C579.084 188.153 581.85 199.193 581.85 204.726C584.617 215.766 584.617 251.705 581.85 276.577C579.084 287.618 576.317 295.917 576.317 295.917C573.551 290.384 570.784 290.384 570.784 298.684C570.784 301.45 570.783 301.45 573.55 301.45H576.317C576.317 301.45 559.743 342.896 554.21 353.962C551.444 359.495 551.444 365.002 551.444 365.002C551.444 367.768 540.404 387.108 523.805 409.214C518.273 414.747 512.766 420.254 501.7 423.02C493.4 428.553 482.36 428.553 479.593 428.553C454.721 428.553 429.849 423.02 418.809 420.254L402.235 414.721V400.914C399.469 387.108 402.235 384.341 413.301 370.509C421.6 362.209 432.64 348.403 438.173 340.103C449.213 323.53 454.747 315.231 482.386 262.745C487.919 251.679 493.425 243.406 496.192 240.639C501.699 232.34 518.273 182.62 521.039 160.514ZM476.827 25.1117C479.594 25.1117 482.359 22.3452 482.359 16.8122C482.359 11.2793 482.36 11.2793 485.126 11.2793C490.659 11.2793 493.425 14.0457 487.893 19.5787C485.126 25.1117 487.893 33.3853 493.426 33.3853C498.959 33.3853 501.725 33.3853 501.725 36.1518C501.725 41.6847 496.192 41.6848 490.685 38.9183C485.152 38.9183 482.386 38.9183 476.879 41.6847C465.839 47.2177 465.838 47.2177 463.071 38.9183C460.253 33.4112 465.761 30.6446 476.827 25.1117ZM145.237 99.7034C164.576 88.6633 203.255 74.8309 264.066 55.4913C322.085 38.9183 346.957 33.3853 374.596 30.6188C382.896 30.6188 396.703 27.8523 407.768 27.8523C418.809 25.0858 429.874 25.0858 432.64 25.0858C438.173 27.8523 451.98 44.4254 454.747 52.7248C457.513 58.2578 457.514 58.2578 440.941 61.0243C421.601 63.7908 385.662 72.0644 352.516 83.1303C344.217 85.8968 333.177 88.6633 330.411 88.6633C319.37 91.4298 264.091 108.003 253.051 113.536C247.518 119.069 233.712 121.835 225.412 127.342C203.306 135.642 167.395 154.981 148.029 168.788C139.73 174.321 131.456 182.595 131.456 182.595C128.689 182.595 128.689 174.295 125.922 157.722C123.13 132.875 131.43 110.769 145.237 99.7034ZM131.429 190.894C139.729 185.361 153.536 177.087 161.835 171.554C189.474 152.215 258.559 119.043 311.045 105.236C324.851 102.47 344.216 96.9369 352.49 91.4298C399.468 77.6232 418.808 72.0902 443.68 72.0902C474.086 69.3237 485.126 72.0902 496.192 80.3897C504.491 88.6891 512.765 105.262 512.765 113.562C512.765 119.095 512.765 124.602 515.531 127.368C518.298 130.135 518.298 157.774 512.765 163.281C512.765 166.047 509.998 174.321 507.232 185.387C501.699 201.96 474.061 262.745 457.488 293.151C449.188 301.45 446.447 312.49 446.447 312.49C446.447 318.023 410.534 359.469 385.662 384.341C358.023 409.214 358.022 409.214 352.49 403.681C349.723 400.914 346.957 398.148 346.957 400.914C344.191 400.914 346.957 403.681 349.724 409.214C355.256 414.747 355.256 414.747 338.683 428.553C319.344 447.893 297.238 464.466 277.899 472.765C264.092 478.298 236.452 481.065 230.919 478.298C214.346 472.765 195.007 458.959 183.941 450.659C175.641 442.36 170.134 434.086 164.601 414.747C156.302 395.407 153.562 389.874 150.795 389.874C123.156 387.108 87.243 376.068 90.0095 370.535V362.235C87.243 356.702 87.2434 356.702 87.2434 362.235C84.4769 365.002 81.7109 365.002 73.4373 356.702C67.9043 351.169 62.3963 342.896 59.6298 340.129C54.0969 329.063 48.5898 298.684 51.3305 293.151C51.3305 293.151 54.0978 287.618 54.0978 279.344C54.0978 271.044 65.1632 254.471 76.2033 243.431C81.7363 237.898 84.5026 237.898 84.5026 243.431C84.5026 246.198 84.5034 248.964 87.2699 248.964C90.0364 248.964 90.0356 240.665 84.5026 237.924C84.5026 235.158 90.0355 229.625 112.141 207.519C114.83 204.726 123.13 196.427 131.429 190.894ZM15.367 221.299C18.1335 215.767 23.6664 213 23.6664 213C26.4329 213 29.1992 210.234 31.9657 207.467C37.4987 193.66 54.0719 188.128 84.4774 188.128C98.284 188.128 112.116 188.128 112.116 190.894C114.883 190.894 109.35 196.427 103.817 201.934C92.751 210.234 76.1777 226.807 70.6447 235.08C67.8782 235.08 62.3457 243.38 56.8385 251.653C48.5391 262.719 43.0311 270.993 43.0311 273.759C43.0311 279.292 40.2655 282.059 37.4991 282.059C23.6925 282.059 20.9257 282.059 12.6262 265.486C4.30092 248.938 4.30107 232.34 15.367 221.299Z" fill="#B2B2B2"/>
<path d="M183.916 201.96C183.916 207.493 183.915 210.259 186.682 210.259C189.448 210.259 192.215 207.493 189.449 204.726C189.449 196.427 183.916 196.427 183.916 201.96Z" fill="#B2B2B2"/>
<path d="M167.342 177.087C170.109 179.854 170.109 179.854 172.876 177.087C175.642 174.321 178.409 171.554 178.409 171.554C181.175 171.554 183.941 171.554 183.941 171.554C183.941 166.021 175.642 166.021 170.135 171.554C167.343 174.321 164.576 177.087 167.342 177.087Z" fill="#B2B2B2"/>
<path d="M128.663 213C128.663 213 125.896 213 123.129 213C117.596 213 117.597 215.767 120.363 218.533C123.13 221.299 128.663 218.533 128.663 213Z" fill="#B2B2B2"/>
<path d="M76.1516 320.764C76.1516 320.764 76.1516 320.764 76.1516 326.297C76.1516 329.063 76.1524 331.83 78.9189 331.83C81.6854 331.83 81.6849 329.063 81.6849 326.297C81.6849 320.764 78.9181 320.764 76.1516 320.764Z" fill="#B2B2B2"/>
<path d="M142.47 232.34C139.703 235.106 148.003 235.106 148.003 229.573C150.769 224.04 148.003 221.274 142.47 226.807C142.47 226.832 142.47 229.599 142.47 232.34Z" fill="#B2B2B2"/>
<path d="M145.236 218.533C148.002 215.766 145.236 210.234 139.703 210.234C136.936 210.234 136.936 215.766 139.703 218.533C139.703 218.533 142.469 218.533 145.236 218.533Z" fill="#B2B2B2"/>
<path d="M131.429 290.384C125.896 287.618 120.363 290.384 123.13 295.917C123.13 295.917 125.896 298.684 128.663 298.684C131.429 298.684 134.17 293.151 131.429 290.384Z" fill="#B2B2B2"/>
<path d="M139.703 367.742C131.403 367.742 131.403 370.509 134.169 373.275C136.936 376.042 139.702 376.042 142.469 370.509C145.235 367.742 145.236 367.742 139.703 367.742Z" fill="#B2B2B2"/>
<path d="M106.557 306.957C106.557 306.957 109.324 306.957 114.857 306.957H120.389C114.83 301.424 106.557 301.424 106.557 306.957Z" fill="#B2B2B2"/>
<path d="M136.937 345.636C139.704 345.636 142.469 345.636 142.469 342.87C145.236 337.337 136.937 340.103 134.17 342.87C134.17 345.636 134.171 348.403 136.937 345.636Z" fill="#B2B2B2"/>
<path d="M172.875 340.129C175.642 340.129 175.642 334.596 170.109 331.83C164.576 326.297 164.576 326.297 167.342 334.596C167.342 337.363 170.109 340.129 172.875 340.129Z" fill="#B2B2B2"/>
<path d="M369.063 387.082C369.063 381.549 360.764 378.782 355.257 381.549C355.257 381.549 355.257 384.315 355.257 387.082C357.997 389.848 369.063 389.848 369.063 387.082Z" fill="#B2B2B2"/>
<path d="M189.449 431.294C189.449 431.294 189.449 434.06 189.449 436.827C192.216 439.593 192.215 439.593 192.215 436.827C194.982 431.294 192.216 428.553 189.449 431.294Z" fill="#B2B2B2"/>
<path d="M84.4509 287.618C84.4509 290.384 84.4509 293.151 84.4509 293.151C89.9839 298.684 92.7507 293.151 89.9842 287.618C87.2177 284.851 87.2174 284.851 84.4509 287.618Z" fill="#B2B2B2"/>
<path d="M424.315 318.023C424.315 315.257 421.549 315.257 421.549 315.257C416.016 315.257 413.249 318.023 416.015 320.79C418.808 323.53 424.315 323.53 424.315 318.023Z" fill="#B2B2B2"/>
<path d="M89.984 271.045C89.984 271.045 92.75 268.278 92.75 265.512C92.75 262.745 89.984 259.979 89.984 259.979C87.2175 259.979 87.218 262.745 87.218 265.512C87.218 268.278 87.2175 271.045 89.984 271.045Z" fill="#B2B2B2"/>
<path d="M349.723 387.082C352.49 387.082 352.49 381.549 349.723 378.782C346.957 376.016 341.424 378.782 344.19 384.315C344.19 384.341 346.957 387.082 349.723 387.082Z" fill="#B2B2B2"/>
<path d="M333.125 392.615C338.657 398.148 344.165 392.615 338.658 387.082C335.891 384.315 333.125 384.315 330.358 387.082C327.618 387.082 327.617 389.848 333.125 392.615Z" fill="#B2B2B2"/>
<path d="M239.193 428.553C239.193 423.02 233.66 423.02 230.894 428.553C230.894 428.553 230.894 431.32 236.427 436.853C239.194 439.619 241.96 442.386 244.727 442.386C250.26 442.386 250.26 434.086 244.727 434.086C239.194 434.06 239.193 431.294 239.193 428.553Z" fill="#B2B2B2"/>
<path d="M200.514 403.681C203.281 403.681 203.281 392.641 200.514 389.874C197.748 387.108 194.981 389.874 194.981 398.174C194.981 400.914 197.748 403.681 200.514 403.681Z" fill="#B2B2B2"/>
<path d="M225.361 417.487C225.361 411.954 217.062 406.447 214.295 409.188C214.295 409.188 214.295 411.954 217.061 414.721C219.854 420.254 225.361 420.254 225.361 417.487Z" fill="#B2B2B2"/>
<path d="M194.981 423.02V431.32C200.514 439.619 206.021 439.619 203.28 431.32C200.514 420.254 200.514 420.254 194.981 423.02Z" fill="#B2B2B2"/>
<path d="M219.854 436.827C219.854 436.827 217.087 436.827 214.32 436.827C208.787 436.827 206.022 439.593 208.788 442.36C211.555 445.126 219.854 442.36 219.854 436.827Z" fill="#B2B2B2"/>
<path d="M283.405 423.02C283.405 425.787 286.172 425.787 288.939 423.02C291.705 420.254 294.472 420.254 297.238 423.02C300.005 423.02 302.77 423.02 302.77 420.254C302.77 417.487 300.004 414.721 300.004 414.721C294.445 411.954 283.405 417.487 283.405 423.02Z" fill="#B2B2B2"/>
</svg>
