<svg width="423" height="532" viewBox="0 0 423 532" fill="none" xmlns="http://www.w3.org/2000/svg">
<path d="M224.087 197.414C210.245 191.877 179.762 189.108 171.441 189.108C157.599 191.877 113.274 202.925 99.4065 211.231C93.8594 214 85.5647 219.537 80.0176 222.305C77.2441 225.074 68.9243 230.611 63.4032 236.123C49.5614 247.171 46.788 249.94 35.6938 274.831C16.3049 310.771 13.5306 321.846 13.5306 324.614C13.5306 327.383 10.7567 332.92 7.98314 332.92C-3.08512 346.737 -3.08431 421.411 10.7575 449.072C21.8258 471.194 27.3722 479.5 41.24 479.5C49.5606 482.269 52.3082 479.5 60.6288 473.963C66.1759 468.426 71.6979 465.657 74.4715 465.657C74.4715 465.657 77.2441 462.889 80.0176 460.12C82.7912 457.352 82.7912 457.351 80.0176 449.046C77.2441 446.277 74.4707 440.74 71.6971 440.74C66.15 437.971 66.1508 424.154 74.4715 424.154C74.4715 424.154 82.7917 421.386 88.3129 421.386C96.6335 418.617 96.633 421.386 110.475 432.46C116.022 437.997 124.317 446.277 124.317 449.046C124.317 451.814 127.09 460.12 129.864 468.4C132.637 476.706 138.185 487.754 138.185 493.292C143.733 509.877 157.573 523.72 171.441 529.231C176.988 532 185.283 532 188.057 532C193.604 532 218.54 520.926 235.155 509.877C243.476 507.109 248.998 504.34 248.998 504.34C251.771 504.34 257.317 498.803 265.612 490.523C273.933 482.217 276.681 476.706 279.455 468.4C282.228 451.814 279.454 426.923 271.133 415.848C268.359 410.311 265.587 404.774 265.587 404.774C265.587 404.774 260.04 396.468 254.518 390.957C248.971 382.651 237.903 363.297 226.809 343.943C204.647 305.234 204.647 294.159 215.741 280.342C221.288 277.574 226.809 274.805 226.809 274.805C229.583 274.805 229.582 283.111 232.355 294.16C232.355 310.745 235.129 316.282 240.676 321.82C248.996 330.125 260.065 335.637 276.68 338.405C298.843 343.942 301.617 343.943 321.006 327.331L334.847 310.745V288.622C337.621 269.268 340.394 227.791 343.168 194.594C345.941 178.008 348.715 172.471 359.783 172.471C365.33 172.471 373.626 164.165 390.267 147.579C401.335 136.505 412.429 125.456 412.429 125.456C412.429 122.688 412.429 119.919 417.976 117.151C426.297 106.102 423.523 75.6733 415.202 64.5989C412.428 59.0617 406.881 53.5505 404.134 48.0133C390.292 23.1218 362.583 6.53612 329.326 0.998932C304.39 -1.76966 273.907 0.998825 226.834 12.0473C190.83 20.3531 176.962 28.6331 154.8 47.9874C140.958 61.8045 140.958 64.5731 135.411 81.1588C132.638 94.9759 132.638 100.513 135.411 111.587C138.185 119.893 140.959 128.173 140.959 128.173C140.959 130.942 143.732 133.71 146.506 133.71C149.28 133.71 154.827 139.248 154.827 142.016C157.6 144.785 168.667 153.065 179.762 158.602C232.407 186.262 232.407 186.262 232.407 191.773C232.407 197.414 229.634 200.157 224.087 197.414ZM332.151 214C332.151 225.048 329.378 249.94 329.378 269.294C326.604 308.003 326.604 308.003 312.762 324.614C301.694 335.663 293.374 335.663 268.438 327.383C251.823 324.614 249.049 321.845 246.275 313.566C243.502 308.028 243.502 299.749 243.502 294.211V277.626C246.276 272.088 254.569 272.088 260.117 277.626C262.89 277.626 265.664 285.931 265.664 294.211C265.664 310.797 271.211 321.871 279.505 319.103C307.215 305.286 309.99 296.98 298.896 255.503C293.348 241.686 279.506 225.074 254.57 211.257C243.502 205.72 243.502 202.951 243.502 194.671C243.502 189.134 243.501 189.134 249.048 189.134C262.89 191.903 296.147 191.903 312.762 186.366C329.378 183.597 329.378 183.597 332.151 189.134V214ZM321.057 172.522C321.057 169.754 321.057 166.985 323.831 166.985C323.831 166.985 326.605 166.985 326.605 169.754C326.605 175.291 323.831 178.06 323.831 178.06C321.057 178.034 321.057 175.291 321.057 172.522ZM329.378 172.522C326.604 166.985 326.604 164.217 329.378 164.217C332.152 164.217 332.151 166.985 332.151 169.754C334.899 178.034 332.152 178.034 329.378 172.522ZM152.079 125.508C146.532 125.508 146.532 97.848 152.079 92.3367C152.079 89.5681 154.852 95.1054 154.852 106.154C154.852 117.202 152.079 125.508 152.079 125.508ZM229.634 155.911C229.634 175.265 229.635 178.034 226.861 172.497C224.087 169.728 224.087 161.448 224.087 147.605C224.087 133.788 221.314 131.019 218.54 131.019V150.374C221.314 164.191 218.54 169.728 215.766 166.959C212.993 166.959 212.992 158.654 210.219 142.068C210.219 128.251 210.219 119.945 207.446 122.714C207.446 122.714 207.446 128.251 207.446 131.019C207.446 142.094 204.672 161.448 201.898 161.448C201.898 161.448 199.125 153.142 201.898 142.094C201.898 128.277 201.898 119.971 201.898 119.971C199.125 119.971 196.352 125.508 196.352 136.557C196.352 153.142 196.351 155.911 193.578 155.911C190.804 153.142 188.031 147.605 188.031 131.019C190.805 117.202 188.031 111.665 188.031 111.665C185.258 111.665 185.257 117.202 185.257 131.019C185.257 142.094 182.484 150.374 182.484 150.374C179.71 150.374 179.71 139.325 179.71 122.714C179.71 106.128 176.937 97.8221 176.937 97.8221C174.163 97.8221 174.163 108.896 174.163 122.714C174.163 136.531 171.389 142.068 171.389 142.068C168.616 142.068 168.616 128.251 168.616 111.639C168.616 92.285 165.842 83.9792 163.069 83.9792C163.069 83.9792 160.295 92.285 163.069 108.871C163.069 125.456 163.069 133.762 160.295 133.762C157.522 133.762 157.522 119.945 157.522 106.102C154.749 83.9792 154.748 75.6734 151.975 72.9306C149.201 70.162 149.201 67.3935 160.295 56.345C176.911 36.9907 182.458 34.2221 212.941 25.9163C254.492 12.0992 298.817 6.56194 323.753 12.0991C348.689 14.8677 362.531 20.4049 379.147 31.4534C392.989 45.2705 409.63 70.162 406.856 72.9306C404.083 72.9306 404.082 78.4679 404.082 86.7478V106.102C401.308 111.639 401.309 108.871 401.309 100.565C401.309 92.259 401.309 89.4905 401.309 89.4905C398.535 89.4905 395.761 92.259 395.761 95.0276C395.761 111.613 392.989 122.688 390.215 125.456C390.215 128.225 387.442 122.688 390.215 108.871C390.215 97.7963 390.215 92.2849 390.215 92.2849C387.442 92.2849 387.441 95.0535 387.441 97.8221C387.441 100.591 384.667 100.591 379.12 100.591C373.573 97.8221 373.573 97.8221 370.8 122.714C370.8 139.299 370.8 147.605 368.027 147.605C365.253 144.836 365.252 136.531 365.252 122.714C368.026 111.665 365.252 103.359 365.252 103.359C362.479 103.359 356.932 142.068 359.706 147.605C359.706 153.142 359.705 153.142 356.932 155.911C354.158 155.911 354.159 153.142 354.159 131.019C354.159 117.202 351.385 108.897 351.385 108.897C348.612 108.897 348.611 117.202 348.611 133.788C348.611 150.374 345.837 161.448 343.064 161.448C343.064 161.448 340.29 155.911 343.064 136.557C343.064 119.971 340.291 108.897 340.291 108.897C337.517 108.897 337.518 119.971 337.518 136.557C334.744 164.217 331.971 161.448 329.197 125.482C326.423 92.3108 323.65 97.8222 323.65 133.788C326.423 153.142 323.65 164.217 323.65 164.217C320.876 164.217 320.876 161.448 320.876 161.448C320.876 153.142 318.102 97.848 318.102 97.848C315.329 97.848 315.329 114.434 315.329 136.557C315.329 161.448 315.328 178.034 312.555 180.802C309.781 180.802 309.782 178.034 309.782 169.728C309.782 144.836 304.235 95.0535 301.461 95.0535C301.461 95.0535 301.461 103.359 301.461 117.176C304.235 147.605 304.234 147.605 304.234 166.959C304.234 178.008 301.461 183.545 298.688 183.545C295.914 183.545 293.141 178.008 293.141 166.959C293.141 153.142 293.141 150.374 290.367 155.885C290.367 158.654 287.594 164.191 290.367 172.471C290.367 178.008 290.367 183.545 287.593 183.545C284.819 183.545 282.046 161.422 284.82 153.116C284.82 147.579 284.82 147.579 284.82 147.579C279.273 147.579 279.273 150.348 279.273 169.702C282.046 180.777 279.272 186.288 273.725 183.519C273.725 180.751 270.952 175.213 270.952 166.934C270.952 150.348 268.178 139.273 265.405 144.811V164.165C268.178 175.239 268.178 183.519 265.405 183.519C262.631 183.519 262.631 169.702 262.631 155.859C262.631 147.553 259.858 139.273 257.084 139.273C257.084 139.273 257.084 144.811 257.084 158.628C259.858 175.213 257.084 183.519 257.084 183.519C251.537 183.519 248.763 175.213 246.016 155.859C246.016 144.785 243.243 139.273 240.47 139.273V161.396C243.243 180.751 243.242 183.519 237.695 175.213C234.922 172.445 232.149 164.139 234.922 153.09C234.922 142.042 234.923 133.736 232.149 133.736C232.408 131.045 229.634 142.094 229.634 155.911ZM293.348 269.294C301.669 294.185 298.895 299.723 285.028 308.002C279.48 310.771 279.481 310.771 276.707 308.002C273.933 302.465 273.933 299.697 273.933 294.185C282.253 280.368 271.16 266.525 248.998 263.757C229.609 263.757 224.06 263.757 210.219 277.574C199.15 288.622 199.151 288.622 201.898 302.465C201.898 316.283 212.967 338.405 218.514 338.405C218.514 341.174 221.287 341.174 221.287 343.943C221.287 346.711 224.061 354.991 226.834 360.528C229.608 368.834 232.382 374.345 232.382 377.114C232.382 379.883 232.382 385.42 237.929 388.162C246.25 399.211 254.544 421.334 260.091 446.225C262.865 462.811 262.865 465.58 260.091 471.117C257.318 473.885 254.544 476.654 254.544 473.885C254.544 473.885 254.544 462.837 251.771 448.994C246.224 424.103 229.608 382.625 224.061 382.625C221.288 382.625 221.287 385.394 226.834 396.442C243.45 426.871 257.318 487.703 248.998 495.982C246.224 495.982 243.45 493.214 243.45 482.165C237.903 454.505 226.835 418.565 224.061 413.028C218.514 404.722 218.514 415.797 224.061 432.382C226.835 440.688 232.382 457.274 232.382 468.322C235.155 479.397 237.929 490.445 237.929 495.982C240.703 501.52 237.928 504.288 235.155 504.288C232.381 504.288 232.381 498.751 229.608 487.702C226.834 468.348 215.767 432.408 212.993 432.408C210.219 432.408 212.993 437.945 218.54 465.605C229.635 498.777 229.634 509.851 224.087 509.851C221.313 509.851 218.54 504.314 218.54 501.546C212.993 473.885 207.471 460.068 204.698 460.068C201.924 460.068 204.698 465.605 210.245 493.24C213.019 501.546 215.792 512.594 213.018 512.594C210.245 515.363 207.471 509.825 204.698 493.24C201.924 476.654 199.151 471.117 196.377 473.885C196.377 476.654 196.377 484.96 199.15 496.008C201.924 504.314 201.925 515.363 201.925 518.131C201.925 526.437 190.83 498.777 190.83 490.471C190.83 484.934 188.057 482.165 188.057 484.934C185.283 487.702 185.283 493.24 188.057 504.288C193.604 523.643 193.603 526.411 190.83 526.411C188.056 526.411 185.284 518.105 185.284 509.825C182.51 496.008 179.737 490.471 176.963 493.24C176.963 493.24 176.963 501.545 179.736 507.057C182.51 515.363 182.509 523.643 182.509 523.643C182.509 526.411 179.736 526.411 179.736 523.643C176.963 512.594 174.189 498.751 171.416 498.751C168.642 498.751 168.643 498.751 168.643 498.751C168.643 495.982 165.869 493.214 163.095 490.445C160.322 487.677 160.322 487.677 163.095 501.494C168.642 509.8 168.643 518.079 168.643 518.079C160.322 518.079 146.479 495.957 140.932 471.065C132.611 443.405 124.317 429.588 110.449 418.513C99.3812 410.208 96.6078 410.208 82.7401 410.208C63.3512 412.976 60.5774 412.976 57.8038 421.256C55.0303 432.331 55.0306 437.842 63.3513 446.148L68.8974 454.454L63.3513 462.759C57.8042 465.528 52.2821 471.065 49.5086 471.065C32.8933 476.602 16.2521 448.942 10.7309 410.234C10.7309 396.416 7.95783 382.573 7.95783 382.573C5.18428 377.036 13.505 343.865 19.0261 330.022C21.7997 324.485 27.3464 310.668 32.8675 302.362C35.6411 294.056 41.1882 280.239 43.9358 274.702C49.4829 263.627 88.2613 224.919 93.8084 224.919C96.582 224.919 99.3546 222.15 99.3546 222.15C99.3546 216.613 104.903 213.844 118.745 211.076C124.292 211.076 138.133 208.307 149.227 205.539C168.616 200.001 207.393 200.001 224.035 208.307C265.664 227.817 285.053 244.402 293.348 269.294Z" fill="#B2B2B2"/>
<path d="M66.0048 385.199C55.0324 390.797 46.7834 399.169 49.5329 404.768C49.5329 410.366 49.5325 407.567 52.282 404.768C60.5306 393.571 74.2532 387.998 82.5018 387.998C85.2514 387.998 88 385.199 88 385.199C85.2248 379.6 74.2277 379.6 66.0048 385.199Z" fill="#B2B2B2"/>
<path d="M185 283.393C185 286.197 185.001 289 187.755 289L190.509 286.197C190.509 283.393 196.017 275.009 204.254 263.795C212.516 252.581 218 247 218 247C212.517 246.974 185 277.786 185 283.393Z" fill="#B2B2B2"/>
</svg>
