<svg width="322" height="393" viewBox="0 0 322 393" fill="none" xmlns="http://www.w3.org/2000/svg">
<path d="M322 89.0419C322 80.7437 313.697 58.6407 302.652 50.3684C299.884 47.6023 297.116 42.0702 297.116 42.0702C299.884 36.5381 291.581 28.2658 277.768 28.2658C269.465 28.2658 263.955 25.4997 258.42 22.7336C252.885 17.2014 236.304 17.2013 230.769 19.9673C230.769 22.7334 225.233 25.4995 219.724 25.4995C214.188 25.4995 208.652 25.4997 205.91 28.2658C203.143 31.0319 200.375 31.0317 194.865 25.4995C192.097 22.7334 186.562 19.9673 181.053 19.9673C178.285 19.9673 172.75 17.2015 169.983 14.4355C164.447 8.90331 158.937 8.90327 156.169 8.90327C153.401 8.90327 147.866 6.13715 145.124 3.37108C134.079 -4.92715 114.706 3.37115 114.706 14.4355C114.706 17.2015 109.17 19.9673 103.661 19.9673C95.3574 22.7334 92.6151 25.4996 87.0797 36.538C84.312 42.0702 78.7771 47.5764 76.0094 50.3425C70.474 55.8746 64.9645 66.9132 67.7064 72.4454C70.4741 80.7436 64.9382 83.5097 51.1255 83.5097C37.3128 83.5097 29.0094 89.0418 26.2417 97.3142C26.2417 102.846 23.4739 105.612 15.1966 105.612C4.15162 108.378 -1.38386 119.417 4.15157 127.715V136.013C-1.38386 138.779 -1.38386 149.818 4.15157 155.35C9.687 160.882 23.4997 160.882 23.4997 158.116C23.4997 155.35 20.7324 155.35 20.7324 155.35C17.9647 155.35 17.9651 152.584 17.9651 149.818C17.9651 147.052 15.1966 147.052 15.1966 147.052C9.66118 147.052 9.66199 138.754 17.9651 138.754C20.7329 138.754 23.4997 135.988 23.4997 133.222C23.4997 130.455 20.7329 127.689 17.9651 127.689C9.66199 124.923 9.66199 119.391 17.9651 113.885H29.0102C37.3133 119.417 40.0551 113.885 37.3132 105.586C37.3132 100.054 37.3128 97.2884 40.0805 94.5224C42.8482 88.9902 53.8931 88.9901 59.4286 97.2883C62.1963 102.82 64.9639 102.82 67.7316 97.2883C73.267 86.224 76.0356 83.4837 81.5452 91.7561C84.3129 97.2883 84.3128 97.2883 89.8482 91.7561C92.6159 86.224 92.6155 86.224 92.6155 91.7561C95.3832 100.054 98.151 102.795 103.661 97.2883C106.428 94.5222 106.428 94.5222 114.706 97.2883C120.241 100.054 120.241 100.055 120.241 100.055C114.706 102.821 114.705 108.353 123.009 111.119C125.776 111.119 128.544 113.885 128.544 116.651C128.544 122.183 131.312 124.949 131.312 124.949C134.079 127.715 134.079 130.481 134.079 133.247C131.311 138.78 131.312 147.052 136.847 147.052C142.383 147.052 142.382 152.584 134.079 158.116C128.543 163.648 125.777 166.414 128.544 166.414C131.312 166.414 134.079 171.947 134.079 174.713C134.079 180.245 128.544 183.011 120.267 183.011C111.963 180.245 111.963 183.011 114.731 188.543L117.499 196.841L103.686 194.075C89.8731 191.309 89.8735 191.309 89.8735 199.607C89.8735 207.905 76.0608 207.905 70.5254 199.607C64.99 194.075 62.2222 191.309 59.4804 194.075C56.7126 194.075 56.7131 196.841 56.7131 196.841C59.4808 202.373 51.1776 210.646 45.668 210.646C40.1326 210.646 31.8545 196.841 31.8545 188.543C31.8545 180.245 31.8546 180.245 23.5514 180.245C12.5065 177.479 9.73914 174.713 9.73914 166.44C9.73914 158.142 4.20381 158.142 1.4361 166.44C1.4361 177.505 4.20341 183.011 15.2484 185.777C20.7838 188.543 23.5514 191.309 23.5514 199.582C29.0869 216.152 45.6675 221.684 56.7383 213.386C62.2738 210.62 65.0424 210.62 70.5519 213.386C73.3196 216.152 78.8539 218.918 81.5957 218.918C87.1311 218.918 89.9 218.918 89.9 221.684C89.9 229.982 98.2023 238.255 106.48 238.255C109.247 238.255 114.784 241.021 120.293 241.021C123.061 243.787 131.338 243.787 134.105 243.787C139.641 241.021 145.151 257.592 150.686 285.227C153.454 310.095 153.453 321.134 147.918 351.535C145.15 370.871 142.382 376.403 136.873 381.936C131.337 387.468 131.337 387.468 136.873 390.234C139.64 393 145.176 393 153.454 393C158.989 390.234 170.033 390.234 175.569 393C183.872 393 186.614 393 194.917 387.468C205.962 381.936 205.962 379.17 211.498 348.795C217.033 332.224 219.801 307.355 217.034 296.291C217.034 276.954 211.498 246.553 205.989 229.982C203.221 227.216 205.989 224.45 211.524 227.216C217.06 227.216 222.595 229.982 222.595 232.749C228.13 235.515 253.013 232.749 255.755 227.216C258.523 224.45 264.058 221.684 266.8 218.918C269.568 218.918 272.335 213.386 275.103 207.88C280.639 199.581 283.406 196.815 286.148 196.815C299.961 194.049 305.496 174.713 294.451 155.376C288.916 138.805 288.917 141.572 297.22 138.805C299.987 138.805 302.754 136.039 302.754 133.273C302.754 130.507 305.522 127.741 308.29 127.741C311.058 127.741 316.593 113.937 313.826 108.404C313.826 108.404 313.825 102.872 316.593 100.106C319.231 97.3399 319.232 91.808 322 89.0419ZM239.072 130.481C239.072 133.247 239.072 136.013 239.072 136.013C239.072 136.013 239.071 136.013 241.839 138.78C244.607 141.546 244.607 144.312 239.072 147.078C233.536 152.61 233.536 155.376 239.072 158.142C241.84 158.142 244.606 160.908 244.606 163.674C244.606 169.206 236.303 169.206 233.561 163.674C228.026 158.142 225.258 158.142 225.258 169.206C225.258 183.011 225.259 183.011 219.724 180.271C214.188 174.738 211.421 177.505 211.421 183.037C211.421 191.335 200.376 194.101 192.073 188.569C183.77 183.037 181.027 185.803 178.259 194.101C178.259 196.867 175.492 199.633 175.492 199.633C169.956 202.399 167.188 191.335 169.956 185.829C172.724 177.53 164.421 172.024 161.653 177.53C156.118 188.569 147.841 185.829 147.841 171.998C147.841 166.466 147.84 158.194 150.608 155.428C150.608 152.661 150.608 149.895 147.841 144.363C142.305 136.065 139.537 113.962 145.072 119.494C150.608 122.26 153.376 116.728 147.841 111.196C145.073 108.43 145.072 102.898 145.072 100.132C147.84 94.5997 156.118 91.8338 161.653 97.3659C167.188 105.664 167.188 105.664 172.698 94.5997C175.466 83.5612 183.743 80.7954 189.279 89.0678C189.279 91.8339 192.046 94.5998 197.582 91.8337C205.885 89.0677 216.93 97.3658 216.93 105.638C219.698 111.17 225.233 113.937 227.975 108.404C230.743 105.638 239.02 113.937 236.278 119.443C236.304 124.949 236.304 127.715 239.072 130.481ZM194.84 202.322L192.073 205.088C189.305 205.088 189.304 202.322 189.304 199.556C189.304 199.556 189.305 199.556 192.073 199.556L194.84 202.322ZM139.563 89.0419C136.795 91.808 134.027 97.3399 134.027 100.106C131.259 94.5738 117.448 86.3016 109.145 86.3016C103.609 86.3016 98.0987 83.5354 95.331 80.7694C89.7955 75.2372 84.2864 75.2372 81.5187 75.2372C78.7509 75.2372 75.9837 72.4712 78.7514 66.939C78.7514 58.6408 78.7513 58.6409 87.0544 58.6409C98.0994 58.6409 100.867 53.1087 95.3575 47.5765C89.822 42.0444 89.822 39.2784 95.3575 33.7721C100.893 31.006 106.403 28.2398 111.938 31.0058C120.241 31.0058 122.982 31.006 122.982 28.2399C120.214 19.9417 122.982 11.6693 128.518 8.90327C136.821 8.90327 145.099 11.6691 145.099 19.9415C145.099 25.4736 153.402 25.4736 156.144 19.9415C156.144 14.4093 167.214 22.7077 167.214 28.2399C169.982 36.5381 172.75 36.538 178.259 31.0058C181.027 28.2398 181.027 28.2398 186.562 31.0058C194.865 36.538 194.866 36.5382 189.331 44.8106C183.795 50.3428 183.795 53.1087 192.098 53.1087C200.401 58.6409 200.401 61.407 194.865 64.1731C192.097 66.9392 194.866 69.705 200.401 75.2113L205.937 80.7435L197.634 77.9775C194.866 77.9775 186.588 75.2113 183.82 75.2113C178.285 72.4452 175.517 75.2113 170.008 80.7435C167.24 83.5096 161.705 86.2757 156.196 86.2757C150.608 83.5096 145.072 86.2758 139.563 89.0419ZM147.841 227.19C142.305 218.892 136.795 221.659 134.027 229.957C134.027 235.489 122.982 235.489 122.982 229.957C120.214 221.659 117.448 221.658 111.938 227.19C106.403 229.957 103.635 229.957 100.893 227.19C98.1255 224.424 98.1255 221.658 100.893 221.658C106.429 218.892 106.429 213.36 100.893 210.594C98.1255 210.594 98.1247 207.828 98.1247 205.062C98.1247 205.062 100.893 205.062 103.661 205.062C106.428 207.828 117.474 205.062 128.544 193.998L139.589 185.7L147.892 191.231C153.428 193.997 158.937 199.53 164.472 202.296C167.24 207.828 172.776 210.594 178.286 210.594C181.053 210.594 183.82 213.36 183.82 216.126C183.82 218.892 181.052 218.892 172.775 218.892C164.472 216.126 164.473 218.892 161.731 224.425C161.68 232.697 153.376 232.697 147.841 227.19ZM161.68 357.041C158.912 373.612 156.143 381.91 153.375 381.91C150.607 381.91 150.608 379.144 150.608 376.378C156.143 368.079 161.653 312.835 158.911 290.733C158.911 279.694 156.143 265.864 153.375 257.591C150.607 249.293 150.608 241.021 150.608 241.021C153.376 235.489 164.42 276.928 164.42 307.329C167.188 326.64 164.421 340.47 161.68 357.041ZM172.725 376.378C167.189 387.442 164.421 376.378 169.956 357.041C175.491 332.172 175.491 301.797 169.956 274.162C161.653 241.021 161.653 238.255 164.42 238.255C167.188 238.255 172.723 246.553 175.465 260.357C181.001 279.694 183.768 287.992 183.768 312.861C183.794 343.211 178.26 370.845 172.725 376.378ZM186.537 381.91C183.769 381.91 183.768 381.91 183.768 379.144C183.768 373.612 183.769 373.612 186.537 373.612C186.537 373.612 189.304 373.611 189.304 376.378C189.304 379.144 186.537 381.91 186.537 381.91ZM197.607 373.612C197.607 370.923 197.634 365.65 200.169 365.365C199.548 370.458 197.607 375.938 197.607 373.612ZM197.607 348.743C194.839 354.275 192.072 362.547 189.304 365.313C186.536 370.846 186.537 370.845 186.537 357.015C189.305 348.717 189.304 326.614 189.304 310.044C189.304 282.409 186.536 271.37 183.768 254.8C181.001 243.735 178.234 235.463 178.234 232.697C175.466 229.931 183.769 229.931 189.279 232.697C203.143 243.761 205.91 312.836 197.607 348.743ZM294.374 174.687C294.374 182.985 286.071 188.491 280.562 185.751C275.026 180.219 269.517 182.985 272.259 188.517C275.026 196.815 266.723 207.854 258.445 207.854C252.91 207.854 250.142 207.854 250.142 213.386C250.142 216.152 250.143 221.684 247.375 221.684C247.375 224.45 241.839 227.216 236.303 227.216C230.768 227.216 228 224.45 225.258 218.918C222.491 210.62 219.723 210.62 214.213 216.152C211.446 218.918 203.168 216.152 205.91 210.62C205.91 210.62 205.911 207.854 203.143 205.088C200.375 202.322 203.143 202.322 205.91 202.322C208.678 202.322 211.446 199.556 214.213 196.789C216.981 191.257 222.516 188.491 225.258 188.491C228.026 188.491 230.794 185.725 233.561 182.959C233.561 180.193 239.097 174.661 244.606 174.661C252.91 169.129 255.653 163.597 252.911 155.324C250.143 152.558 250.142 149.792 250.142 147.026C252.91 147.026 255.678 141.494 255.678 135.962C258.446 124.897 266.723 127.664 266.723 138.728C269.491 144.26 269.491 144.26 272.259 144.26C275.026 144.26 277.793 144.26 277.793 149.792C277.793 152.558 277.794 155.324 280.562 155.324C283.33 155.324 286.097 155.324 283.329 158.09C277.794 163.622 280.562 169.129 288.865 169.129C291.607 169.155 294.374 169.155 294.374 174.687ZM305.419 97.34C297.116 97.34 297.116 102.872 302.652 105.638C305.42 108.404 305.419 116.703 299.883 113.937C291.58 111.171 288.839 119.469 291.58 124.975C294.348 127.741 294.348 127.741 294.348 130.507C288.812 133.273 283.303 130.507 280.535 127.741C277.768 122.209 275 122.209 275 122.209C272.232 122.209 269.464 119.443 266.696 119.443H258.393C250.09 124.975 247.348 124.975 247.348 116.677C247.348 108.378 239.046 100.106 230.769 97.34C219.724 94.574 211.421 83.5354 211.421 75.2372C208.653 58.6666 208.653 36.564 211.421 33.798C214.188 31.0319 222.491 31.0317 225.233 36.5639C228.001 42.0961 233.536 42.0962 236.278 33.798C236.278 28.2658 239.045 28.2658 247.348 28.2658C255.652 28.2658 255.651 28.2657 255.651 36.5639C255.651 47.6024 258.419 47.6024 266.696 42.0961C269.464 36.5639 272.232 36.5639 277.742 36.5639H286.045C286.045 36.5639 286.045 42.096 286.045 44.862C286.045 50.3942 286.045 53.1605 288.813 53.1605C291.581 53.1605 294.349 55.9266 299.858 58.6927C305.394 64.2248 305.394 66.9907 299.858 69.7567C297.09 69.7567 297.09 72.5229 299.858 75.2889C299.858 78.055 305.393 80.8211 308.161 80.8211C316.49 80.7436 313.722 91.8079 305.419 97.34Z" fill="#B2B2B2"/>
</svg>
